<svg width="487" height="487" viewBox="0 0 487 487" fill="none" xmlns="http://www.w3.org/2000/svg">
<path d="M94.8021 302.87C88.5544 312.279 94.8352 324.923 106.108 325.629L369.134 342.107C380.406 342.813 388.216 331.052 383.191 320.936L265.948 84.91C260.924 74.7948 246.833 73.912 240.585 83.3211L94.8021 302.87Z" fill="#34A853" fill-opacity="0.9"/>
<path d="M183.722 94.8021C174.313 88.5544 161.669 94.8352 160.963 106.108L144.485 369.134C143.779 380.406 155.54 388.216 165.656 383.191L401.682 265.948C411.797 260.924 412.68 246.833 403.271 240.585L183.722 94.8021Z" fill="#FBBC04" fill-opacity="0.9"/>
<path d="M302.87 391.788C312.279 398.035 324.923 391.755 325.629 380.482L342.107 117.456C342.813 106.184 331.052 98.3739 320.936 103.399L84.91 220.642C74.7948 225.666 73.912 239.757 83.3211 246.005L302.87 391.788Z" fill="#DB4437"/>
<path d="M391.788 183.72C398.035 174.311 391.755 161.667 380.482 160.961L117.456 144.483C106.184 143.777 98.3739 155.538 103.399 165.654L220.642 401.68C225.666 411.795 239.757 412.678 246.005 403.269L391.788 183.72Z" fill="#4285F4"/>
</svg>
