<svg width="401" height="289" viewBox="0 0 401 289" fill="none" xmlns="http://www.w3.org/2000/svg">
<path d="M250.33 111.848C219.742 111.848 190.221 127.232 167.205 155.168C135.442 193.718 128.776 213.037 125.194 223.416C125.008 223.955 124.831 224.472 124.657 224.967C120.121 237.931 120.337 249.104 125.302 258.174C131.195 268.941 143.769 276.67 162.676 281.148C179.415 285.112 204.665 287.296 233.777 287.297C233.78 287.297 233.786 287.297 233.789 287.297C279.725 287.297 335.581 281.622 356.828 268.941C368.317 262.085 374.29 244.667 372.415 223.483C369.379 189.17 344.313 140.962 283.66 118.024C272.823 113.925 261.61 111.848 250.33 111.848ZM233.789 288.002C233.784 288.002 233.783 288.002 233.777 288.002C204.612 288.001 179.304 285.81 162.513 281.834C143.405 277.308 130.676 269.462 124.684 258.512C119.619 249.26 119.386 237.895 123.992 224.734C124.165 224.239 124.342 223.724 124.528 223.186C128.124 212.765 134.817 193.368 166.66 154.719C189.813 126.618 219.527 111.143 250.33 111.143C261.695 111.143 272.993 113.236 283.909 117.364C311.123 127.656 333.881 144.201 349.721 165.21C363.051 182.891 371.361 203.564 373.118 223.421C375.016 244.876 368.913 262.55 357.189 269.547C335.828 282.295 279.821 288.002 233.789 288.002Z" fill="#100F0D"/>
<path d="M393.416 205.877C392.048 206.463 390.76 207.499 390.269 208.481C389.701 209.248 389.573 210.416 389.933 211.313C390.128 211.801 390.545 212.412 391.421 212.558C392.925 212.854 393.563 211.259 393.771 210.558C394.218 209.053 394.092 207.188 393.416 205.877ZM391.792 213.303C391.63 213.303 391.464 213.285 391.295 213.251C390.369 213.098 389.649 212.502 389.278 211.575C388.826 210.447 388.988 209.022 389.671 208.111C390.2 207.044 391.565 205.923 393.032 205.272C392.733 204.889 392.368 204.591 391.938 204.419C390.948 204.024 389.154 203.946 387.781 204.582C387.068 204.913 386.605 205.379 386.41 205.966C386.348 206.151 386.15 206.252 385.964 206.19C385.779 206.128 385.679 205.928 385.741 205.744C385.997 204.976 386.6 204.352 387.485 203.942C388.846 203.31 390.874 203.233 392.199 203.765C392.817 204.012 393.321 204.449 393.712 205.007C393.966 204.923 394.218 204.854 394.468 204.804C395.965 204.303 397.259 204.333 398.269 204.905C399.355 205.52 400.113 206.762 400.521 208.599C400.563 208.789 400.443 208.977 400.253 209.019C400.062 209.061 399.875 208.942 399.833 208.752C399.469 207.118 398.826 206.031 397.922 205.519C397.09 205.048 395.989 205.037 394.648 205.485C394.461 205.522 394.271 205.571 394.081 205.631C394.815 207.114 394.933 209.124 394.446 210.759C393.963 212.385 392.991 213.302 391.792 213.303Z" fill="#100F0D"/>
<path d="M96.7441 223.452C96.5142 223.452 96.2731 223.503 96.0312 223.606C94.5971 224.217 94.057 225.407 93.856 226.297C93.6847 227.06 93.6925 227.909 93.8532 228.718C94.1783 228.712 94.5068 228.673 94.8347 228.598C96.4204 228.214 97.8962 226.972 98.1895 225.773C98.3474 224.93 98.1366 224.168 97.6219 223.755C97.3716 223.554 97.0691 223.452 96.7441 223.452ZM99.0757 233.672C97.3462 233.672 95.7344 232.987 94.5068 231.719C93.9618 231.105 93.5493 230.288 93.2997 229.404C92.3873 229.324 91.5109 229.011 90.7375 228.475C89.3886 227.541 88.4784 226.013 88.2407 224.284C87.9721 222.141 88.711 220.822 89.8688 219.054C89.976 218.891 90.1945 218.846 90.3574 218.953C90.5203 219.06 90.5654 219.278 90.4589 219.441C89.3583 221.121 88.6962 222.249 88.9402 224.192C89.1503 225.722 89.952 227.074 91.1386 227.895C91.7457 228.315 92.4247 228.578 93.1347 228.676C92.986 227.822 92.9888 226.94 93.1686 226.142C93.5084 224.636 94.4025 223.533 95.7548 222.957C96.5734 222.608 97.4364 222.701 98.0633 223.206C98.7839 223.784 99.0892 224.799 98.879 225.922C98.5173 227.398 96.8505 228.835 94.9961 229.285C94.6746 229.357 94.3517 229.402 94.0323 229.417C94.2544 230.115 94.5914 230.753 95.0236 231.241C96.1757 232.429 97.7298 233.037 99.3747 232.96C101.11 232.871 102.722 232.04 103.797 230.677C103.918 230.525 104.14 230.499 104.292 230.619C104.445 230.739 104.471 230.962 104.35 231.114C103.149 232.636 101.349 233.565 99.4107 233.663C99.2986 233.669 99.1864 233.672 99.0757 233.672Z" fill="#100F0D"/>
<path d="M109.829 22.1054C109.816 22.1294 109.804 22.1534 109.791 22.1774C108.928 23.8519 109.262 25.5864 110.731 27.0615C111.802 28.1367 112.813 28.5295 113.502 28.141C114.225 27.7341 114.542 26.5144 114.241 25.3037C114.063 24.5852 113.222 22.2592 109.829 22.1054ZM101.941 31.6191C101.747 31.6191 101.589 31.4619 101.588 31.268C101.575 28.2601 102.737 25.2466 104.62 23.4056C105.951 22.1047 107.609 21.4117 109.43 21.3933C110.857 19.154 113.837 17.7755 116.453 18.2092C117.986 18.4637 119.329 19.3027 120.628 20.1136C123.03 21.6147 125.105 22.9107 127.773 20.0953C127.907 19.9535 128.129 19.9479 128.271 20.0819C128.412 20.2158 128.419 20.4393 128.285 20.5804C125.221 23.8146 122.697 22.238 120.254 20.7115C119.015 19.9373 117.732 19.1356 116.337 18.9044C114.158 18.5448 111.615 19.644 110.263 21.43C113.079 21.7092 114.517 23.4874 114.925 25.1331C115.306 26.6659 114.853 28.1889 113.849 28.7551C113.27 29.0822 112.028 29.3622 110.232 27.5593C108.628 25.9489 108.201 23.9789 109.039 22.1132C107.548 22.2148 106.23 22.8176 105.113 23.9098C103.361 25.6224 102.281 28.4406 102.293 31.2652C102.294 31.4598 102.137 31.6184 101.942 31.6191C101.941 31.6191 101.941 31.6191 101.941 31.6191Z" fill="#100F0D"/>
<path d="M391.89 121.007C390.48 121.007 389.147 121.614 388.324 122.63C387.511 123.635 387.246 124.946 387.56 126.42C387.99 128.438 389.639 129.742 391.762 129.742C392.379 129.742 393.001 129.63 393.608 129.409C394.65 129.03 395.623 128.059 396.147 126.875C396.593 125.867 396.654 124.862 396.319 124.042C395.516 122.143 393.859 121.007 391.89 121.007ZM391.762 130.447C389.293 130.447 387.373 128.924 386.87 126.566C386.416 124.434 387.112 123.007 387.777 122.187C388.731 121.006 390.269 120.302 391.89 120.302C394.152 120.302 396.051 121.598 396.97 123.771C397.381 124.773 397.316 125.976 396.792 127.16C396.193 128.514 395.065 129.629 393.849 130.071C393.164 130.321 392.462 130.447 391.762 130.447Z" fill="#F8A218"/>
<path d="M38.9932 217.369C37.583 217.369 36.2504 217.977 35.4283 218.993C34.6139 219.999 34.3495 221.309 34.6633 222.782C35.0934 224.8 36.7433 226.105 38.8656 226.105C39.4832 226.105 40.1044 225.993 40.7122 225.772C41.7536 225.393 42.7266 224.422 43.2505 223.239C43.6968 222.231 43.7574 221.224 43.4218 220.404C42.6187 218.506 40.9625 217.369 38.9932 217.369ZM38.8656 226.811C36.3964 226.811 34.4757 225.287 33.9737 222.929C33.5189 220.796 34.2156 219.37 34.8805 218.549C35.8351 217.369 37.3729 216.664 38.9932 216.664C41.2551 216.664 43.1539 217.961 44.0733 220.133C44.4837 221.137 44.4202 222.339 43.8956 223.524C43.2963 224.878 42.1689 225.993 40.9526 226.435C40.2673 226.684 39.5657 226.811 38.8656 226.811Z" fill="#55C2E1"/>
<path d="M387.343 153.43C386.692 153.43 386.064 153.623 385.528 153.987L375.122 161.056C374.408 161.541 373.924 162.279 373.76 163.135C373.597 163.99 373.775 164.855 374.26 165.57L381.327 175.974C381.931 176.864 382.939 177.395 384.024 177.395C384.677 177.395 385.305 177.201 385.843 176.836L396.246 169.77C397.728 168.764 398.115 166.738 397.109 165.254L390.042 154.852C389.438 153.962 388.428 153.43 387.343 153.43ZM384.024 178.1C382.705 178.1 381.479 177.453 380.744 176.371L373.676 165.967C373.086 165.096 372.869 164.043 373.068 163.002C373.266 161.962 373.855 161.063 374.726 160.472L385.131 153.403C385.785 152.96 386.55 152.725 387.343 152.725C388.662 152.725 389.89 153.372 390.626 154.455L397.693 164.859C398.916 166.663 398.445 169.128 396.643 170.354L386.24 177.42C385.584 177.865 384.818 178.1 384.024 178.1Z" fill="#55C2E1"/>
<path d="M71.8258 249.182C71.2082 249.182 70.6963 249.394 70.3473 249.796C69.8953 250.318 69.7233 251.15 69.8636 252.141L71.9083 266.586C72.1206 268.084 72.894 268.979 73.9777 268.979C74.5771 268.979 75.2413 268.706 75.8977 268.192L87.3842 259.197C88.3086 258.473 88.757 257.638 88.6442 256.847C88.5321 256.056 87.87 255.378 86.7792 254.939L73.248 249.49C72.741 249.285 72.263 249.182 71.8258 249.182ZM73.9777 269.684C72.5323 269.684 71.4726 268.534 71.2103 266.686L69.1656 252.24C68.9935 251.026 69.2184 250.022 69.8149 249.334C70.6124 248.415 71.9922 248.224 73.5117 248.836L87.0429 254.285C88.377 254.822 89.1934 255.698 89.3429 256.748C89.4917 257.799 88.9509 258.866 87.8185 259.752L76.332 268.746C75.5508 269.359 74.7364 269.684 73.9777 269.684Z" fill="#F8A218"/>
<path d="M183.285 7.70711C182.751 7.70711 182.146 7.90314 181.535 8.27331L169.054 15.8283C168.049 16.4368 167.505 17.2117 167.522 18.0105C167.539 18.8094 168.115 19.561 169.144 20.1279L181.929 27.1568C183.132 27.8175 184.256 27.8055 184.923 27.1244C185.39 26.6471 185.627 25.8877 185.607 24.9281L185.302 10.3441C185.269 8.71749 184.496 7.70711 183.285 7.70711ZM183.604 28.3555C182.968 28.3555 182.29 28.1602 181.589 27.7745L168.805 20.7455C167.545 20.0531 166.839 19.0865 166.817 18.0253C166.794 16.9642 167.459 15.97 168.689 15.2254L181.17 7.66976C181.902 7.22697 182.613 7.00203 183.285 7.00203C184.897 7.00203 185.966 8.30784 186.007 10.3293L186.313 24.914C186.336 26.0668 186.03 27.0017 185.427 27.618C184.954 28.1002 184.324 28.3555 183.604 28.3555Z" fill="#FBC363"/>
<mask id="mask0_892_1862" style="mask-type:luminance" maskUnits="userSpaceOnUse" x="0" y="43" width="182" height="164">
<path d="M3.80983 110.144C0.259105 125.655 -4.34375 168.786 11.4748 185.371C27.2933 201.954 39.2854 204.251 66.3288 204.761C93.3737 205.27 106.896 206.799 126.796 205.524C146.697 204.251 177.822 203.548 181.14 158.58C187.131 77.3577 126.125 39.8818 77.1385 44.2188C28.1528 48.5558 10.5081 80.8831 3.80983 110.144Z" fill="white"/>
</mask>
<g mask="url(#mask0_892_1862)">
<path d="M95.2898 82.8059C96.6922 85.1016 97.8387 89.1848 98.4782 93.6493C98.9259 96.7736 99.7544 97.0937 102.815 98.4968C105.877 99.8999 106.58 102.578 104.921 104.109C102.559 106.289 102.561 105.098 102.243 107.554C102.029 109.191 102.473 110.499 100.27 109.794C99.4047 109.517 97.6159 108.452 97.3613 108.648C96.5984 109.237 96.8325 111.468 99.741 113.143C100.801 113.753 101.68 113.672 100.743 118.525C99.9264 122.751 94.811 123.404 89.7401 122.446C84.6691 121.49 85.7218 125.317 83.713 130.771C81.7036 136.224 81.4166 139.286 84.1904 141.582C86.9656 143.879 89.1662 154.881 88.8792 157.56C88.5922 160.239 79.0242 165.788 70.8918 156.794C66.4914 150.672 61.5156 138.903 61.5156 138.903C61.5156 138.903 66.6818 131.727 66.5866 124.743C66.4914 117.759 63.5251 91.4474 73.1883 83.9848C82.8514 76.5229 94.3323 80.9571 95.2898 82.8059Z" fill="white"/>
<path d="M61.9157 138.947C62.5615 140.449 67.1446 150.979 71.1769 156.59C74.7489 160.537 78.4231 161.371 80.8725 161.371C85.1277 161.371 88.3824 158.875 88.5276 157.523C88.8047 154.935 86.583 144.023 83.9643 141.855C80.9296 139.343 81.4176 135.979 83.3805 130.65C83.9157 129.2 84.2287 127.869 84.5065 126.695C85.1559 123.94 85.6262 121.949 88.3513 121.949C88.7836 121.949 89.2595 121.999 89.8045 122.102C91.1385 122.353 92.4105 122.481 93.5838 122.481C96.3371 122.481 99.754 121.783 100.396 118.459C101.197 114.31 100.666 114.033 99.8632 113.612C99.7659 113.561 99.6658 113.509 99.5636 113.449C97.8234 112.448 96.7306 111.061 96.641 109.742C96.6008 109.148 96.7841 108.649 97.1444 108.37C97.4504 108.133 97.9828 108.364 99.1102 108.904C99.5756 109.127 100.056 109.356 100.376 109.459C100.747 109.578 101.045 109.638 101.261 109.638C101.679 109.638 101.756 109.466 101.817 108.412C101.833 108.13 101.851 107.826 101.892 107.51C102.104 105.876 102.188 105.7 103.011 105.159C103.359 104.931 103.884 104.587 104.68 103.851C105.275 103.303 105.534 102.576 105.412 101.803C105.226 100.637 104.2 99.5205 102.667 98.8183L102.488 98.7365C99.5756 97.4024 98.5941 96.954 98.128 93.7001C97.4659 89.0775 96.3209 85.1742 94.9876 82.9906C94.5399 82.129 90.7797 80.1589 85.4662 80.1589C82.3885 80.1589 77.7977 80.8718 73.4022 84.2653C65.2289 90.578 66.2717 110.987 66.773 120.796C66.8541 122.387 66.9239 123.762 66.938 124.739C67.0268 131.26 62.704 137.809 61.9157 138.947ZM80.8725 162.076C78.2799 162.076 74.3992 161.201 70.6291 157.032C66.2315 150.916 61.2395 139.16 61.1901 139.042C61.1422 138.928 61.1563 138.799 61.2282 138.698C61.2797 138.628 66.3253 131.533 66.2329 124.749C66.2195 123.785 66.1497 122.416 66.0686 120.832C65.5609 110.903 64.5054 90.2452 72.9714 83.7076C77.5241 80.1921 82.2785 79.4539 85.4662 79.4539C90.645 79.4539 94.9277 81.3435 95.601 82.6451C96.971 84.8851 98.1506 88.8865 98.8261 93.6007C99.2378 96.4725 99.9175 96.7841 102.782 98.0948L102.961 98.1773C104.735 98.9903 105.882 100.271 106.107 101.692C106.269 102.705 105.932 103.656 105.159 104.369C104.32 105.144 103.765 105.507 103.399 105.749C102.79 106.148 102.779 106.155 102.59 107.601C102.552 107.9 102.535 108.187 102.521 108.452C102.457 109.564 102.354 110.834 100.161 110.131C99.7955 110.014 99.2921 109.773 98.8056 109.54C98.3812 109.337 97.7593 109.039 97.5146 108.986C97.387 109.133 97.3235 109.39 97.3447 109.694C97.4018 110.531 98.1069 111.797 99.9161 112.839C100.009 112.892 100.102 112.94 100.19 112.988C101.339 113.589 101.947 114.146 101.088 118.593C100.516 121.555 97.8509 123.186 93.5838 123.186C92.3668 123.186 91.0511 123.054 89.6741 122.795C89.1791 122.701 88.7342 122.654 88.3513 122.654C86.2714 122.654 85.88 123.942 85.1926 126.857C84.9105 128.05 84.5919 129.403 84.0426 130.894C81.9083 136.687 82.0021 139.315 84.4142 141.312C87.3071 143.706 89.5317 154.77 89.2285 157.6C89.0353 159.402 85.4415 162.076 80.8725 162.076Z" fill="#100F0D"/>
<path d="M66.3301 204.76C68.1161 205.526 84.9548 206.418 84.9548 206.418C84.9548 206.418 92.354 182.82 89.2932 155.775C83.1696 161.133 76.2802 159.856 69.3922 154.243C73.7285 167.511 71.6887 194.809 66.3301 204.76Z" fill="#100F0D"/>
<path d="M92.2392 100.059C92.6122 101.253 93.466 102.049 94.1457 101.837C94.8262 101.624 95.0751 100.484 94.7028 99.2896C94.3305 98.0966 93.4759 97.3006 92.7976 97.5142C92.1172 97.7264 91.8662 98.8651 92.2392 100.059Z" fill="#100F0D"/>
<path d="M93.3854 98.0898C93.353 98.0898 93.3191 98.0856 93.286 98.0757C93.0991 98.0207 92.9927 97.8247 93.0477 97.6379L93.6858 95.4691C93.7408 95.2829 93.9368 95.1743 94.1236 95.2307C94.3105 95.285 94.4169 95.4818 94.3619 95.6679L93.7238 97.8374C93.6787 97.9904 93.5384 98.0898 93.3854 98.0898Z" fill="#100F0D"/>
<path d="M76.4094 170.063C74.4401 155.538 67.9463 145.929 62.2027 137.025C61.3214 135.66 60.5063 135.854 60.1312 135.929C57.3849 136.474 54.3199 137.763 55.1053 139.446C55.2725 139.802 55.5277 140.168 55.8464 140.575C54.6548 140.815 53.2284 141.114 51.5341 141.487C45.1545 142.89 41.2075 145.413 37.2526 149.367C33.2978 153.321 13.0754 177.842 7.46289 184.093C14.862 198.381 27.5578 200.486 27.5578 200.486C27.5578 200.486 39.1599 188.815 46.4307 179.885C46.1748 181.67 45.2835 198.255 42.7318 204.761C47.238 207.375 59.7638 207.25 66.73 206.952C67.8737 208.001 72.3277 207.057 72.3277 207.057C72.3277 207.057 78.4499 185.116 76.4094 170.063Z" fill="#0F9D58"/>
<path d="M54.9157 86.7602C51.5673 88.0039 47.836 91.0654 45.8265 104.173C44.8549 110.512 42.5027 117.317 42.9455 123.781C43.3601 129.832 48.6003 131.481 53.942 132.55C58.6477 133.491 76.9376 137.852 78.0911 129.977C79.4364 120.79 64.9554 116.176 67.0326 107.649C67.4549 105.916 69.1958 103.762 70.9881 103.361C73.2754 102.849 73.9551 104.804 75.734 106.003C77.9007 107.464 79.1981 106.61 80.4997 104.418C81.73 102.345 81.2689 99.0251 81.0743 96.6983C80.8191 93.6495 80.4566 92.5482 83.1021 91.6753C86.6783 90.4964 89.7405 88.0737 86.2983 83.9857C90.8905 89.4388 93.1862 88.5779 96.9175 86.1862C100.649 83.7939 100.841 81.5933 99.405 77.4799C97.9695 73.3657 93.5691 67.051 85.8195 68.0078C78.0699 68.9646 78.8349 71.0692 69.5546 72.9828C60.2736 74.8964 54.3418 77.6709 54.9157 86.7602Z" fill="#100F0D"/>
<path d="M89.55 93.9062C89.5105 93.9062 89.471 93.8999 89.4315 93.8858C89.2482 93.8202 89.1523 93.6186 89.2179 93.4353C89.4682 92.7337 90.8833 89.1998 94.1662 88.5208C94.3565 88.4821 94.5434 88.604 94.5829 88.7944C94.6224 88.9848 94.4997 89.1716 94.3086 89.2111C91.3959 89.8133 90.1098 93.0327 89.8821 93.6722C89.8306 93.816 89.6945 93.9062 89.55 93.9062Z" fill="#100F0D"/>
<path d="M66.4588 206.643C66.4517 206.643 66.444 206.643 66.4369 206.642C66.2423 206.63 66.0949 206.463 66.1069 206.268C66.126 205.962 66.1908 205.127 66.2853 203.911C66.8374 196.819 68.3054 177.979 67.7667 173.676C67.2033 169.172 68.4238 168.044 70.2726 166.335C70.5031 166.122 70.7457 165.897 70.9981 165.655C70.0885 165.074 67.6997 163.557 65.8919 162.453C64.0037 161.299 63.5884 159.733 62.4779 155.546C62.1465 154.297 61.7707 152.88 61.2722 151.151C59.757 145.889 57.5987 143.268 56.1702 141.534C55.8198 141.109 55.5173 140.741 55.2649 140.389C55.1521 140.23 55.188 140.009 55.3467 139.897C55.506 139.783 55.726 139.82 55.8388 139.978C56.0771 140.311 56.3726 140.67 56.7145 141.085C58.1797 142.865 60.3944 145.554 61.9498 150.956C62.4504 152.692 62.8431 154.174 63.159 155.365C64.2166 159.353 64.6129 160.845 66.2599 161.851C68.5331 163.241 71.7194 165.278 71.7518 165.299C71.8414 165.356 71.9006 165.452 71.9119 165.558C71.9232 165.664 71.8865 165.77 71.8111 165.845C71.4374 166.218 71.0827 166.547 70.7506 166.853C68.9435 168.524 67.9479 169.444 68.4668 173.588C69.0133 177.963 67.5425 196.855 66.9883 203.966C66.8945 205.176 66.8296 206.007 66.8106 206.313C66.7986 206.499 66.6442 206.643 66.4588 206.643Z" fill="white"/>
<path d="M115.701 160.494L113.021 168.403C113.021 168.403 106.643 156.795 102.561 151.693C98.7454 146.923 93.2605 143.938 88.9151 142.318C85.9827 137.465 81.8403 136.765 81.8403 136.765C81.8403 136.765 81.5117 137.914 82.1188 139.367C82.7252 140.819 89.293 152.202 87.763 170.317C86.233 188.432 81.002 206.419 81.002 206.419H84.9568C84.9568 206.419 84.9871 206.319 85.0435 206.134C88.0189 206.517 94.077 207.127 94.2688 205.782C94.524 203.996 97.9691 189.708 100.01 185.243C106.133 196.595 111.814 198.912 120.034 195.459C125.91 192.991 130.753 173.252 131.391 165.47C131.518 165.342 115.701 160.494 115.701 160.494Z" fill="#0F9D58"/>
<path d="M84.9581 206.773C84.9242 206.773 84.8897 206.768 84.8551 206.759C84.669 206.702 84.5639 206.504 84.621 206.318C84.7 206.059 92.5391 180.378 93.6722 175.471C94.8363 170.424 94.7989 169.818 94.0402 168.334C93.0855 166.471 92.2662 164.834 92.2662 164.834C92.1852 164.671 92.2416 164.473 92.3967 164.376C93.2576 163.844 95.4109 162.149 95.045 160.711C94.2306 157.516 91.1282 146.93 88.86 142.906L88.7867 142.777C88.6901 142.608 88.7493 142.392 88.9178 142.296C89.087 142.198 89.3021 142.258 89.3994 142.427L89.4748 142.56C91.7769 146.645 94.9082 157.318 95.7282 160.538C96.2098 162.427 93.859 164.234 93.0376 164.798C93.3105 165.343 93.9507 166.614 94.667 168.014C95.554 169.745 95.5195 170.599 94.3589 175.629C93.2209 180.561 85.3748 206.264 85.2951 206.525C85.2493 206.675 85.1097 206.773 84.9581 206.773Z" fill="white"/>
<path d="M100.008 185.596C99.9594 185.596 99.9094 185.585 99.8621 185.564C99.6851 185.483 99.6076 185.273 99.688 185.096C105.423 172.544 103.285 168.026 102.008 165.326C101.786 164.856 101.594 164.45 101.461 164.05C101.4 163.866 101.499 163.666 101.684 163.604C101.87 163.543 102.069 163.644 102.13 163.828C102.25 164.187 102.433 164.575 102.646 165.024C103.975 167.835 106.201 172.538 100.329 185.39C100.27 185.519 100.142 185.596 100.008 185.596Z" fill="#100F0D"/>
<path d="M115.095 173.539C114.963 173.539 114.837 173.466 114.776 173.339C114.762 173.309 113.354 170.361 112.09 167.327C112.015 167.147 112.1 166.941 112.279 166.865C112.459 166.794 112.666 166.875 112.74 167.056C113.998 170.074 115.399 173.005 115.413 173.034C115.497 173.21 115.422 173.421 115.246 173.505C115.197 173.528 115.146 173.539 115.095 173.539Z" fill="#100F0D"/>
<path d="M116.721 157.464C118.156 152.968 120.261 140.817 120.739 136.32C121.217 131.823 118.538 125.509 121.696 121.49C124.853 117.472 126.863 115.463 127.724 113.453C128.584 111.444 130.594 111.158 131.646 113.166C132.699 115.176 131.072 118.716 128.68 121.204C134.516 117.472 134.994 118.811 136.812 115.941C138.63 113.07 142.171 105.704 144.467 105.895C146.38 103.312 148.581 104.747 148.963 108.287C150.111 108.192 151.164 110.871 150.399 114.889C153.173 116.515 152.886 122.447 148.963 126.944C145.04 131.441 137.578 134.119 135.951 137.755C134.325 141.391 131.646 162.727 131.646 162.727L116.721 157.464Z" fill="white"/>
<path d="M117.157 157.246L131.351 162.25C131.75 159.115 134.11 141.009 135.629 137.612C136.544 135.568 139.176 133.84 141.962 132.011C144.395 130.414 146.909 128.762 148.697 126.713C151.02 124.05 152.236 120.575 151.794 117.86C151.588 116.599 151.044 115.677 150.22 115.194C150.091 115.118 150.024 114.97 150.052 114.824C150.611 111.888 150.181 109.753 149.507 108.938C149.393 108.801 149.217 108.639 149.022 108.639C148.842 108.639 148.632 108.505 148.612 108.326C148.392 106.296 147.541 104.931 146.495 104.931C145.923 104.931 145.319 105.337 144.749 106.106C144.677 106.204 144.56 106.26 144.437 106.248C144.437 106.248 144.436 106.248 144.436 106.248C142.785 106.248 140.209 110.765 138.504 113.755C137.99 114.655 137.506 115.505 137.11 116.131C136.013 117.862 135.35 118.154 133.897 118.795C132.821 119.268 131.346 119.918 128.869 121.501C128.719 121.597 128.52 121.565 128.407 121.428C128.294 121.29 128.302 121.089 128.426 120.96C130.592 118.706 132.348 115.267 131.333 113.331C130.934 112.569 130.379 112.149 129.771 112.149C129.079 112.149 128.434 112.689 128.047 113.593C127.43 115.033 126.284 116.423 124.549 118.527C123.794 119.442 122.938 120.48 121.972 121.709C119.997 124.224 120.418 127.736 120.824 131.133C121.047 133.001 121.259 134.764 121.089 136.358C120.637 140.606 118.61 152.444 117.157 157.246ZM131.645 163.08C131.606 163.08 131.566 163.073 131.528 163.06L116.603 157.798C116.423 157.734 116.326 157.54 116.384 157.358C117.83 152.827 119.928 140.608 120.388 136.283C120.549 134.768 120.343 133.044 120.124 131.217C119.701 127.677 119.262 124.017 121.418 121.274C122.389 120.038 123.248 118.996 124.005 118.078C125.702 116.021 126.822 114.662 127.399 113.316C127.901 112.143 128.788 111.444 129.771 111.444C130.641 111.444 131.439 112.012 131.958 113.004C132.899 114.8 131.939 117.519 130.296 119.811C131.802 118.947 132.851 118.485 133.614 118.149C135.009 117.534 135.532 117.304 136.514 115.754C136.902 115.141 137.382 114.298 137.891 113.406C140.308 109.167 142.461 105.648 144.293 105.542C145.147 104.459 145.956 104.226 146.495 104.226C147.885 104.226 148.961 105.683 149.278 107.964C149.507 108.02 149.78 108.163 150.049 108.488C150.755 109.341 151.358 111.476 150.788 114.72C151.68 115.336 152.266 116.377 152.49 117.747C152.964 120.66 151.684 124.361 149.229 127.177C147.377 129.299 144.821 130.977 142.349 132.6C139.651 134.371 137.103 136.044 136.273 137.9C134.686 141.447 132.022 162.559 131.995 162.772C131.982 162.877 131.922 162.971 131.831 163.028C131.774 163.062 131.71 163.08 131.645 163.08Z" fill="#100F0D"/>
<path d="M132.122 127.773C131.963 127.773 131.818 127.665 131.78 127.503C131.296 125.471 129.478 122.159 128.483 121.495C128.321 121.387 128.277 121.168 128.385 121.006C128.493 120.844 128.712 120.8 128.874 120.909C130.113 121.734 131.978 125.289 132.466 127.339C132.511 127.529 132.394 127.718 132.204 127.764C132.177 127.771 132.15 127.773 132.122 127.773Z" fill="#100F0D"/>
<path d="M143.801 125.865C143.671 125.865 143.547 125.794 143.485 125.671C143.129 124.958 138.893 119.879 137.278 119.341C137.094 119.28 136.994 119.08 137.055 118.895C137.117 118.711 137.315 118.611 137.501 118.672C139.353 119.29 143.729 124.582 144.116 125.355C144.203 125.53 144.132 125.741 143.958 125.828C143.907 125.853 143.854 125.865 143.801 125.865Z" fill="#100F0D"/>
<path d="M142.937 126.342C142.804 126.342 142.676 126.266 142.617 126.137C142.535 125.96 142.612 125.75 142.789 125.669C143.896 125.158 146.333 122.034 146.991 118.462C147.328 116.632 147.891 115.495 148.712 114.986C149.472 114.515 150.312 114.677 150.879 114.838C151.066 114.892 151.174 115.087 151.121 115.274C151.067 115.461 150.873 115.567 150.685 115.517C149.98 115.314 149.486 115.336 149.084 115.586C148.451 115.979 147.98 116.99 147.685 118.591C147.007 122.267 144.467 125.671 143.084 126.309C143.036 126.331 142.986 126.342 142.937 126.342Z" fill="#100F0D"/>
<path d="M141.693 123.182C141.594 123.182 141.497 123.141 141.427 123.06C141.298 122.914 141.314 122.691 141.461 122.563C143.547 120.75 144.402 118.106 145.174 114.152C145.884 110.512 147.268 108.486 149.286 108.132C149.476 108.096 149.66 108.225 149.694 108.417C149.728 108.609 149.599 108.792 149.408 108.825C147.706 109.125 146.515 110.963 145.866 114.286C145.064 118.391 144.163 121.149 141.924 123.096C141.857 123.153 141.775 123.182 141.693 123.182Z" fill="#100F0D"/>
<path d="M139.491 120.697C139.421 120.697 139.35 120.677 139.288 120.633C139.129 120.521 139.091 120.301 139.203 120.142C140.241 118.667 141.545 114.45 142.591 111.061C143.374 108.527 144.05 106.338 144.54 105.441C144.633 105.27 144.847 105.207 145.018 105.301C145.189 105.394 145.252 105.608 145.159 105.779C144.703 106.614 144.005 108.875 143.265 111.269C142.148 114.884 140.882 118.981 139.78 120.548C139.711 120.645 139.602 120.697 139.491 120.697Z" fill="#100F0D"/>
<path d="M45.6666 181.004C45.5862 181.004 45.5051 180.976 45.4388 180.92C45.29 180.794 45.2724 180.572 45.3986 180.423C47.5484 177.894 51.8734 173.312 51.9171 173.266C52.0504 173.125 52.2732 173.118 52.4149 173.252C52.5566 173.385 52.563 173.609 52.429 173.751C52.386 173.797 48.0737 178.365 45.9359 180.88C45.8661 180.962 45.7667 181.004 45.6666 181.004Z" fill="#100F0D"/>
<path d="M116.1 156.328C114.69 158.972 113.874 163.26 114.161 163.643C114.448 164.026 124.913 164.877 132.052 169.989C133.679 170.754 134.198 163.217 133.945 162.345C133.275 160.048 116.961 155.371 116.1 156.328Z" fill="#100F0D"/>
<path d="M76.2812 169.779C76.1987 169.779 76.1162 169.751 76.0492 169.693C76.0168 169.665 72.8023 166.874 71.3076 165.878C71.1454 165.77 71.1017 165.551 71.2096 165.389C71.3174 165.227 71.5353 165.184 71.6982 165.291C73.231 166.312 76.3792 169.045 76.5125 169.161C76.6591 169.289 76.6747 169.511 76.547 169.658C76.4772 169.738 76.3792 169.779 76.2812 169.779Z" fill="white"/>
<path d="M87.9015 168.346C87.8113 168.346 87.721 168.311 87.6519 168.243C87.5145 168.105 87.5145 167.882 87.6519 167.744C88.9994 166.397 90.7212 165.364 91.8599 164.68C92.1433 164.511 92.3852 164.366 92.5699 164.246C92.7335 164.139 92.952 164.186 93.0578 164.349C93.1636 164.512 93.117 164.73 92.9542 164.837C92.7638 164.96 92.5142 165.109 92.223 165.284C91.1132 165.951 89.4365 166.957 88.1511 168.243C88.082 168.311 87.9918 168.346 87.9015 168.346Z" fill="white"/>
<path d="M77.654 118.234C77.2817 114.756 74.5396 111.19 71.2843 113.27C68.4534 115.078 67.5918 119.945 70.1829 122.252C71.2857 123.234 73.071 123.693 74.5629 123.401C77.0688 122.91 77.9064 120.592 77.654 118.234Z" fill="#F8A218"/>
</g>
<path d="M84.8338 44.233C82.2624 44.233 79.6832 44.3458 77.166 44.5686C37.8929 48.0461 13.3264 70.135 4.15011 110.221C0.116827 127.84 -3.33836 169.332 11.7266 185.126C27.8518 202.031 40.1273 203.913 66.3317 204.407C75.3801 204.578 82.978 204.864 89.6812 205.117C97.4745 205.411 104.205 205.666 111.071 205.666C111.071 205.666 111.072 205.666 111.073 205.666C116.515 205.666 121.502 205.509 126.77 205.171L128.398 205.069C147.983 203.849 177.579 202.005 180.785 158.553C183.277 124.772 174.258 95.7894 154.705 74.7399C136.959 55.637 110.839 44.233 84.8338 44.233ZM111.073 206.371C111.072 206.371 111.072 206.371 111.071 206.371C104.191 206.371 97.4548 206.117 89.6545 205.822C82.9548 205.569 75.3603 205.282 66.319 205.112C39.9052 204.614 27.5261 202.712 11.2168 185.612C-4.0462 169.611 -0.598125 127.804 3.46294 110.064C12.7151 69.6456 37.4917 47.3735 77.104 43.8664C79.6409 43.6422 82.2419 43.5279 84.8338 43.5279C111.032 43.5279 137.345 55.0166 155.221 74.2597C168.952 89.0411 184.655 115.673 181.488 158.605C178.237 202.671 148.271 204.537 128.442 205.772L126.815 205.875C121.533 206.213 116.529 206.371 111.073 206.371Z" fill="#100F0D"/>
<path d="M120.871 61.1831C125.649 59.9365 140.92 57.0273 148.92 55.3654C156.919 53.7021 165.646 52.5599 166.789 53.0795C167.931 53.5992 155.256 69.5975 149.335 75.9348C147.362 77.285 144.66 74.7919 144.66 74.7919C139.051 80.6095 132.713 82.791 131.675 82.999C130.636 83.2063 130.116 76.7661 130.012 72.9213C129.908 69.0779 130.59 68.3291 127.415 66.7927C117.546 62.0129 120.871 61.1831 120.871 61.1831Z" fill="#F4B400"/>
<path d="M131.676 83.3516C131.522 83.3516 131.379 83.2486 131.336 83.0921C131.286 82.9038 131.396 82.7099 131.584 82.6592C132.105 82.4695 134.001 79.3989 135.385 77.1567C136.873 74.7467 138.278 72.4707 139.116 71.6338C140.692 70.0565 155.224 60.1367 161.393 55.9619L131.184 67.9511C131.004 68.0224 130.798 67.9342 130.726 67.7537C130.655 67.5725 130.743 67.368 130.923 67.2961L164.167 54.1026C164.341 54.0321 164.542 54.1139 164.619 54.2859C164.696 54.4587 164.623 54.661 164.455 54.7456C163.428 55.29 141.263 70.4831 139.614 72.1323C138.835 72.9114 137.386 75.2579 135.985 77.5269C133.579 81.4253 132.452 83.1527 131.77 83.3389C131.738 83.3473 131.707 83.3516 131.676 83.3516Z" fill="#100F0D"/>
<path d="M145.283 75.5586C145.211 75.5586 145.139 75.5367 145.076 75.4909L144.923 75.3795C142.793 73.8227 140.142 71.8795 139.52 72.1968C139.346 72.2828 139.135 72.213 139.047 72.0388C138.96 71.8647 139.03 71.6531 139.205 71.5657C140.164 71.087 142.065 72.416 145.34 74.8105L145.491 74.9212C145.649 75.0368 145.683 75.2575 145.568 75.414C145.499 75.5085 145.392 75.5586 145.283 75.5586Z" fill="#100F0D"/>
<mask id="mask1_892_1862" style="mask-type:luminance" maskUnits="userSpaceOnUse" x="206" y="0" width="181" height="158">
<path d="M267.922 5.04387C243.291 10.2361 204.734 20.9569 206.508 67.9471C208.282 114.938 226.349 139.158 256.515 148.556C286.681 157.954 360.699 167.606 376.415 136.364C392.131 105.122 386.95 60.5177 378.839 41.9754C370.728 23.4324 351.067 -12.4817 267.922 5.04387Z" fill="white"/>
</mask>
<g mask="url(#mask1_892_1862)">
<path d="M334.557 43.3727C332.618 35.1465 314.756 24.5709 307.118 27.509C299.48 30.4464 309.233 33.854 309.233 33.854C297.482 31.7388 291.841 33.1483 290.666 36.0871C289.491 39.0244 294.426 40.1998 294.426 40.1998C286.436 40.4346 277.505 46.6633 278.797 51.0108C280.09 55.3591 285.378 53.7726 285.378 53.7726C277.857 59.8244 279.084 65.979 286.931 65.2521C278.68 71.4582 277.506 82.8573 280.678 86.9701C283.85 91.0835 286.93 84.8576 286.93 84.8576C283.615 94.0209 288.55 100.014 293.251 92.3759C292.194 102.834 301.477 104.245 304.415 99.0742C307.236 109.063 313.934 107.535 315.109 102.6C318.752 107.183 325.92 105.655 327.33 100.719C331.326 105.42 334.851 101.13 334.499 97.4878C338.612 102.306 345.075 102.893 346.368 94.1386C352.243 98.4869 355.181 98.3691 353.595 87.9692C363.407 91.5531 368.578 80.6243 357.296 71.2234C364.818 73.2209 363.995 65.465 353.242 60.8235C360.822 60.6472 361.762 55.4761 358.001 51.6574C354.241 47.838 347.896 40.4346 334.557 43.3727Z" fill="#100F0D"/>
<path d="M297.209 63.4445C296.061 70.3324 298.102 72.375 300.142 77.2225C302.184 82.0699 299.33 87.1783 304.768 93.2314C309.838 98.8763 317.492 98.5259 317.492 98.5259L319.66 107.328L338.414 102.48L334.332 84.812C334.332 84.812 338.158 82.708 337.01 75.1806C335.863 67.6538 335.735 49.0297 317.492 51.836C299.25 54.6415 298.868 57.9582 297.209 63.4445Z" fill="white"/>
<path d="M317.491 98.1723C317.652 98.1723 317.795 98.2823 317.833 98.4403L319.916 106.896L337.991 102.224L333.987 84.8907C333.952 84.737 334.023 84.5784 334.16 84.5022C334.195 84.4832 337.753 82.3933 336.66 75.2325C336.542 74.4604 336.435 73.5706 336.318 72.5997C335.386 64.8586 333.825 51.902 321.019 51.902C319.927 51.902 318.758 51.9965 317.545 52.1833C300.138 54.8605 299.225 57.9227 297.709 62.9958L297.545 63.545C296.65 68.9354 297.757 71.2678 299.288 74.495C299.67 75.2995 300.065 76.1308 300.466 77.0847C301.252 78.9504 301.333 80.8076 301.419 82.774C301.559 85.9786 301.704 89.2932 305.029 92.9949C309.459 97.9263 315.965 98.1759 317.225 98.1759C317.564 98.1759 317.481 98.1723 317.491 98.1723ZM319.659 107.68C319.596 107.68 319.534 107.663 319.479 107.63C319.398 107.582 319.34 107.503 319.317 107.412L317.215 98.881C315.884 98.8802 309.125 98.6088 304.504 93.4659C301.011 89.576 300.853 85.9786 300.715 82.8044C300.632 80.9035 300.553 79.1076 299.817 77.3583C299.421 76.4191 299.03 75.5949 298.651 74.7974C297.124 71.5794 295.918 69.0383 296.86 63.3857L297.034 62.7941C298.628 57.4545 299.59 54.2316 317.438 51.4867C318.686 51.2942 319.891 51.1969 321.019 51.1969C334.45 51.1969 336.058 64.542 337.018 72.5151C337.134 73.4782 337.241 74.3603 337.358 75.1267C338.379 81.8194 335.577 84.3668 334.729 84.9718L338.756 102.399C338.799 102.585 338.685 102.772 338.5 102.82L319.747 107.668C319.718 107.676 319.689 107.68 319.659 107.68Z" fill="#100F0D"/>
<path d="M341.341 68.7499C340.705 64.9058 339.923 61.2697 337.936 57.8444C336.711 55.7327 335.605 53.5589 333.533 52.1516C327.714 48.1968 319.878 48.4337 313.256 49.8072C307.996 50.8986 302.142 52.7622 298.067 56.3877C296.712 57.592 291.227 63.0599 294.78 64.6393C296.86 65.5651 299.152 63.6014 300.721 62.2766C300.791 62.4761 300.903 62.6904 301.066 62.9358C302.124 64.5222 304.768 64.6985 306.531 64.346C311.114 63.6409 315.52 60.6443 318.87 57.2951C318.164 58.3528 317.283 59.7629 317.636 61.1731C318.341 62.7595 319.927 62.9358 321.337 62.9358C324.334 62.7595 327.154 60.2917 329.27 58.3528C327.507 61.7019 325.568 65.0511 325.392 68.929C325.215 70.6917 325.392 72.6307 326.097 74.2171C326.978 76.3324 328.917 76.3324 330.68 75.0985C329.798 77.9188 329.27 80.5629 330.503 83.3832C331.239 85.0641 333.559 87.9077 336.791 87.3197C339.372 86.8508 339.85 80.7963 340.786 78.6824C342.532 74.7382 342.052 73.0439 341.341 68.7499Z" fill="#100F0D"/>
<path d="M293.675 65.9062C292.097 65.9062 290.57 65.345 290.145 63.7445C289.897 62.8145 290.044 61.6877 290.265 60.9425C290.692 59.4914 292.011 57.4375 293.204 56.3644C293.347 56.2339 293.57 56.2452 293.701 56.3905C293.831 56.535 293.82 56.7585 293.675 56.8882C292.583 57.8711 291.331 59.8193 290.941 61.1427C290.747 61.7956 290.616 62.7743 290.827 63.5633C291.356 65.5523 294.165 65.2061 294.724 65.1151C296.396 64.8458 297.635 64.4629 298.624 63.9095C298.794 63.8157 299.009 63.8756 299.104 64.0455C299.2 64.2155 299.139 64.4305 298.968 64.525C297.905 65.1201 296.592 65.5283 294.835 65.8111C294.456 65.8724 294.064 65.9062 293.675 65.9062Z" fill="white"/>
<path d="M312.282 86.6113C312.276 86.6113 312.269 86.6113 312.263 86.6106C309.943 86.4823 308.494 85.9464 307.831 84.9713C307.007 83.76 307.533 82.1792 308.043 80.6506C308.142 80.3523 308.241 80.0548 308.329 79.7636C309.11 77.1576 307.32 74.0122 305.327 72.1924C303.754 70.7561 301.748 70.4861 300.459 70.8548C299.727 71.0643 299.225 71.4767 299.081 71.9879C299.027 72.1748 298.836 72.284 298.645 72.2319C298.458 72.1783 298.35 71.9837 298.402 71.7961C298.614 71.0445 299.292 70.4543 300.265 70.1765C301.744 69.7535 304.029 70.0525 305.802 71.672C308.025 73.7013 309.877 77.0525 309.003 79.9659C308.915 80.2642 308.813 80.5681 308.711 80.8734C308.257 82.2391 307.786 83.6521 308.414 84.5744C308.937 85.345 310.246 85.7927 312.302 85.907C312.496 85.9175 312.645 86.0839 312.634 86.2785C312.624 86.4661 312.468 86.6113 312.282 86.6113Z" fill="#100F0D"/>
<path d="M311.2 71.0293C311.123 71.0293 311.046 71.0039 310.981 70.9531C310.829 70.8319 310.803 70.6098 310.924 70.4575C312.155 68.9028 315.72 65.6862 322.216 69.3843C322.385 69.4802 322.444 69.6953 322.348 69.8652C322.252 70.0337 322.036 70.093 321.867 69.9971C316.064 66.6938 312.867 69.1418 311.477 70.8953C311.407 70.9835 311.304 71.0293 311.2 71.0293Z" fill="#100F0D"/>
<path d="M319.484 76.4784C320.074 77.5805 320.046 78.7474 319.418 79.0837C318.791 79.4214 317.801 78.801 317.209 77.6982C316.618 76.5983 316.65 75.4314 317.275 75.0958C317.904 74.7587 318.892 75.3771 319.484 76.4784Z" fill="#100F0D"/>
<path d="M317.707 75.6211C317.65 75.6211 317.593 75.6077 317.54 75.5802L315.544 74.5169C315.373 74.4253 315.307 74.2116 315.399 74.0403C315.491 73.8675 315.706 73.8048 315.876 73.8943L317.872 74.9576C318.044 75.0493 318.109 75.2622 318.018 75.4342C317.954 75.5534 317.832 75.6211 317.707 75.6211Z" fill="#100F0D"/>
<path d="M306.19 77.6272C306.779 78.7285 306.751 79.8954 306.123 80.2325C305.496 80.5695 304.506 79.949 303.915 78.8463C303.323 77.7464 303.354 76.5794 303.981 76.2438C304.61 75.9068 305.598 76.5244 306.19 77.6272Z" fill="#100F0D"/>
<path d="M304.409 76.7676C304.353 76.7676 304.296 76.7542 304.243 76.7267L302.247 75.6634C302.076 75.5717 302.01 75.3581 302.102 75.1861C302.194 75.014 302.408 74.9506 302.579 75.0408L304.575 76.1041C304.747 76.1957 304.812 76.4087 304.721 76.5807C304.657 76.6999 304.535 76.7676 304.409 76.7676Z" fill="#100F0D"/>
<path d="M310.909 88.473C312.036 90.6651 313.382 91.9082 314.651 91.9082C316.469 91.9082 317.91 89.4221 318.402 85.5089C313.982 88.3214 312.503 88.5859 310.909 88.473ZM314.651 92.6133C312.968 92.6133 311.316 91.0515 309.998 88.215C309.944 88.1 309.956 87.9654 310.03 87.8617C310.103 87.7588 310.224 87.7031 310.353 87.7151C310.714 87.751 311.087 87.7884 311.453 87.7884C312.813 87.7884 314.425 87.2532 318.64 84.5175C318.754 84.4435 318.898 84.4421 319.015 84.5112C319.13 84.581 319.196 84.7107 319.183 84.8454C318.742 89.6371 317.006 92.6133 314.651 92.6133Z" fill="#100F0D"/>
<path d="M313.667 92.3398C313.637 92.3398 313.605 92.3363 313.574 92.3279C313.386 92.2764 313.276 92.0825 313.327 91.8942C313.948 89.6161 316.479 87.914 318.144 88.0121C318.338 88.0247 318.486 88.1919 318.474 88.3865C318.461 88.5804 318.311 88.7284 318.1 88.7164C316.683 88.6255 314.531 90.164 314.008 92.0804C313.964 92.2369 313.822 92.3398 313.667 92.3398Z" fill="#100F0D"/>
<path d="M271.281 152.261C274.63 149.009 290.608 127.865 296.826 120.306C303.045 112.748 310.221 112.557 319.98 112.461C317.577 102.832 318.215 102.619 318.694 102.714C319.172 102.81 328.289 104.799 337.379 98.4838C339.787 97.8379 339.689 107.486 341.986 108.729C344.281 109.974 359.589 106.816 367.149 114.375C374.706 121.933 379.968 139.824 379.968 139.824C375.854 146.426 347.917 167.186 312.804 157.62C312.134 154.654 307.35 150.061 305.916 144.225C299.984 151.975 295.774 157.715 295.774 157.715C295.774 157.715 276.926 156.471 271.281 152.261Z" fill="#EA4335"/>
<path d="M327.303 115.359C323.459 115.359 320.78 113.805 319.727 112.703C319.592 112.562 319.597 112.34 319.738 112.205C319.878 112.07 320.101 112.076 320.237 112.216C322.213 114.283 330.323 117.996 341.274 108.274C341.42 108.144 341.643 108.157 341.772 108.304C341.902 108.449 341.888 108.672 341.742 108.801C336.081 113.828 331.117 115.359 327.303 115.359Z" fill="#100F0D"/>
<path d="M325.273 115.271C325.122 115.271 324.982 115.173 324.936 115.021C324.809 114.602 321.802 104.723 321.486 103.324C321.442 103.134 321.561 102.945 321.751 102.902C321.942 102.859 322.129 102.978 322.173 103.168C322.485 104.542 325.579 114.714 325.611 114.816C325.667 115.002 325.562 115.2 325.376 115.256C325.342 115.267 325.307 115.271 325.273 115.271Z" fill="#100F0D"/>
<path d="M329.419 115.207C329.269 115.207 329.13 115.11 329.082 114.96L325.383 103.16C325.325 102.975 325.429 102.776 325.614 102.718C325.8 102.662 325.998 102.764 326.057 102.949L329.755 114.749C329.813 114.935 329.71 115.132 329.524 115.191C329.49 115.201 329.454 115.207 329.419 115.207Z" fill="#100F0D"/>
<path d="M333.755 113.93C333.607 113.93 333.469 113.835 333.42 113.687L329.721 102.397C329.66 102.213 329.761 102.013 329.946 101.952C330.128 101.892 330.33 101.993 330.391 102.178L334.091 113.467C334.151 113.653 334.05 113.851 333.865 113.912C333.829 113.924 333.792 113.93 333.755 113.93Z" fill="#100F0D"/>
<path d="M337.715 111.893C337.563 111.893 337.423 111.793 337.377 111.639L334.251 101.052C334.195 100.865 334.303 100.669 334.489 100.614C334.675 100.558 334.872 100.665 334.927 100.852L338.053 111.44C338.108 111.627 338.001 111.823 337.815 111.878C337.781 111.888 337.748 111.893 337.715 111.893Z" fill="#100F0D"/>
<path d="M317.595 98.9434C317.558 98.9434 317.521 98.9427 317.484 98.9419C317.29 98.9377 317.136 98.7755 317.141 98.5809C317.146 98.3863 317.287 98.2362 317.502 98.2369C320.001 98.3243 326.714 96.1308 330.997 90.8405C331.12 90.6889 331.342 90.6664 331.493 90.7884C331.644 90.911 331.668 91.1331 331.546 91.284C327.171 96.6864 320.283 98.9434 317.595 98.9434Z" fill="#100F0D"/>
<path d="M307.253 148.113C307.118 148.113 306.989 148.034 306.93 147.902C304.596 142.593 304.414 137.297 304.414 135.801C304.414 135.606 304.572 135.449 304.767 135.449C304.961 135.449 305.119 135.606 305.119 135.801C305.119 136.842 305.238 142.302 307.576 147.618C307.655 147.797 307.574 148.005 307.396 148.084C307.349 148.103 307.301 148.113 307.253 148.113Z" fill="#100F0D"/>
<path d="M358.629 154.812C358.476 154.812 358.336 154.712 358.291 154.559C358.259 154.451 355.119 143.706 353.797 139.644C353.737 139.459 353.838 139.26 354.022 139.2C354.211 139.141 354.406 139.241 354.467 139.426C355.793 143.497 358.936 154.253 358.967 154.361C359.022 154.548 358.915 154.743 358.728 154.798C358.695 154.808 358.661 154.812 358.629 154.812Z" fill="#100F0D"/>
<path d="M335.514 87.9414C334.421 87.9414 333.159 87.579 331.806 86.8704C331.634 86.7801 331.567 86.5672 331.658 86.3945C331.748 86.221 331.963 86.1561 332.133 86.2457C333.743 87.089 335.187 87.4041 336.3 87.1545C338.922 86.558 340.011 81.963 340.011 79.6355C340.011 79.4846 340.108 79.35 340.25 79.3013C340.393 79.2534 340.551 79.3013 340.644 79.4205C341.843 80.9801 343.254 81.7071 345.084 81.7071C346.87 81.5872 348.596 79.6109 348.818 78.0554C348.846 77.863 349.028 77.7262 349.216 77.7565C349.409 77.784 349.543 77.9624 349.516 78.1556C349.252 80.0057 347.269 82.2676 345.108 82.4114C345.107 82.4114 345.106 82.4114 345.105 82.4114C343.341 82.4114 341.89 81.798 340.678 80.5402C340.435 83.4261 339.076 87.2469 336.454 87.842C336.157 87.9083 335.844 87.9414 335.514 87.9414Z" fill="white"/>
</g>
<path d="M308.285 0.704762C296.29 0.704762 282.735 2.27993 268 5.38582C236.849 11.953 205.226 24.5189 206.865 67.9309C208.53 112.042 224.806 138.303 256.624 148.216C271.23 152.766 296.358 157.359 319.574 157.359C319.577 157.359 319.579 157.359 319.582 157.359C340.513 157.359 367.308 153.689 376.105 136.203C384.96 118.599 386.49 98.3221 386.214 84.4115C385.897 68.4463 382.949 52.2386 378.52 42.1136C373.565 30.7885 360.406 0.704762 308.285 0.704762ZM319.582 158.064C319.578 158.064 319.577 158.064 319.574 158.064C294.689 158.064 269.998 153.121 256.415 148.889C224.276 138.877 207.838 112.404 206.16 67.9577C205.381 47.3009 212.428 31.3455 227.109 20.5345C239.261 11.5849 254.525 7.50598 267.854 4.69623C282.637 1.58047 296.24 -0.000320901 308.285 -0.000320901C330.004 -0.000320901 347.391 5.12633 359.965 15.2358C370.311 23.5537 375.661 33.8183 379.166 41.8308C383.63 52.0355 386.6 68.3462 386.919 84.3974C387.196 98.3876 385.655 118.786 376.733 136.519C367.777 154.325 340.711 158.064 319.582 158.064Z" fill="#100F0D"/>
<path d="M237.694 36.5178H210.054C205.25 36.5178 201.579 40.6503 201.872 45.6458L202.617 58.3444C202.888 62.9725 206.765 66.6023 211.261 66.5339L231.259 66.2328C232.303 69.3359 233.068 72.3551 235.068 72.2077C236.499 72.0674 237.112 69.0398 237.519 66.1193C241.714 65.8592 245.168 62.2844 245.325 57.8769L245.775 45.4463C245.952 40.5579 242.344 36.5178 237.694 36.5178Z" fill="white"/>
<path d="M231.255 65.8769C231.407 65.8769 231.541 65.9728 231.59 66.1173C231.694 66.4269 231.796 66.7364 231.896 67.0417C232.766 69.6914 233.531 71.9695 235.037 71.8532C236.378 71.7213 236.95 67.6135 237.167 66.0666C237.19 65.9009 237.327 65.774 237.494 65.7641C241.536 65.5131 244.82 62.042 244.969 57.8608L245.419 45.4302C245.504 43.0809 244.658 40.8042 243.096 39.1853C241.654 37.6905 239.735 36.867 237.69 36.867H210.051C207.912 36.867 205.924 37.7251 204.454 39.2833C202.896 40.9367 202.081 43.2473 202.22 45.622L202.965 58.3205C203.219 62.6533 206.882 66.1787 211.132 66.1787L211.252 66.178L231.25 65.8769C231.252 65.8769 231.253 65.8769 231.255 65.8769ZM234.925 72.5625C232.966 72.5625 232.159 70.1053 231.226 67.2617C231.152 67.0375 231.078 66.8118 231.003 66.5855L211.132 66.8838C206.437 66.8838 202.542 63.1405 202.262 58.3621L201.516 45.6636C201.366 43.0957 202.25 40.5933 203.941 38.7996C205.545 37.0982 207.715 36.1619 210.051 36.1619H237.69C239.927 36.1619 242.028 37.0616 243.604 38.696C245.297 40.4516 246.216 42.9159 246.124 45.4556L245.674 57.8862C245.516 62.3261 242.093 66.0292 237.825 66.4445C237.377 69.5588 236.721 72.3961 235.098 72.5554C235.035 72.5604 234.979 72.5625 234.925 72.5625Z" fill="#100F0D"/>
<path d="M215.375 51.915C215.375 53.4471 214.162 54.6895 212.665 54.6895C211.169 54.6895 209.955 53.4471 209.955 51.915C209.955 50.3821 211.169 49.1405 212.665 49.1405C214.162 49.1405 215.375 50.3821 215.375 51.915Z" fill="#55C2E1"/>
<path d="M226.088 51.915C226.088 53.4471 224.875 54.6895 223.378 54.6895C221.881 54.6895 220.668 53.4471 220.668 51.915C220.668 50.3821 221.881 49.1405 223.378 49.1405C224.875 49.1405 226.088 50.3821 226.088 51.915Z" fill="#55C2E1"/>
<path d="M236.801 51.915C236.801 53.4471 235.588 54.6895 234.092 54.6895C232.594 54.6895 231.381 53.4471 231.381 51.915C231.381 50.3821 232.594 49.1405 234.092 49.1405C235.588 49.1405 236.801 50.3821 236.801 51.915Z" fill="#55C2E1"/>
<path d="M326.589 275.307H299.146C298.951 275.307 298.793 275.149 298.793 274.954C298.793 274.759 298.951 274.602 299.146 274.602H326.589C326.784 274.602 326.941 274.759 326.941 274.954C326.941 275.149 326.784 275.307 326.589 275.307Z" fill="#100F0D"/>
<path d="M245.48 175.414C237.348 171.492 235.817 162.69 247.681 159.341C239.357 149.104 247.776 143.172 253.422 142.024C259.067 140.876 270.261 143.746 281.072 153.026C291.883 162.307 296.571 162.785 299.824 170.057C303.077 177.328 301.547 182.973 298.293 190.34C295.04 197.707 294.657 200.003 300.972 205.935C307.287 211.868 312.453 217.8 308.052 228.993C303.651 240.187 251.029 236.073 248.542 228.419C246.054 220.765 251.986 192.732 251.986 192.732L245.48 175.414Z" fill="#100F0D"/>
<path d="M239.454 221.244C238.21 215.791 239.654 203.269 250.552 197.038C258.501 192.493 262.703 198.856 262.703 198.856L263.947 219.809C263.947 219.809 242.132 221.34 239.454 221.244Z" fill="#100F0D"/>
<path d="M178.22 189.771C177.264 188.432 175.832 186.599 174.492 187.556C173.153 188.513 175.285 196.281 181.283 195.32C179.751 193.024 178.22 189.771 178.22 189.771Z" fill="white"/>
<path d="M175.277 187.638C175.075 187.638 174.886 187.704 174.697 187.838C174.435 188.025 174.313 189.033 174.762 190.437C175.475 192.665 177.299 195.045 180.278 195.045H180.278C180.409 195.045 180.543 195.04 180.678 195.032C179.259 192.79 177.916 189.947 177.902 189.917C177.435 189.273 176.268 187.638 175.277 187.638ZM180.278 195.75H180.278C176.916 195.75 174.843 193.004 174.09 190.652C173.7 189.433 173.518 187.814 174.288 187.264C174.595 187.044 174.929 186.933 175.277 186.933C176.467 186.933 177.533 188.196 178.508 189.561C178.556 189.649 180.078 192.873 181.576 195.12C181.643 195.22 181.655 195.347 181.606 195.457C181.558 195.567 181.457 195.645 181.339 195.664C180.98 195.721 180.624 195.75 180.278 195.75Z" fill="#100F0D"/>
<path d="M195.156 190.626C191.904 189.573 189.798 186.991 190.852 184.885C191.904 182.781 195.348 185.555 197.74 187.469C200.132 189.382 202.429 189.765 202.429 189.765C202.429 189.765 198.888 191.583 195.156 190.626Z" fill="white"/>
<path d="M192.056 184.485C191.639 184.485 191.356 184.663 191.166 185.044C190.854 185.666 190.849 186.345 191.149 187.061C191.717 188.416 193.294 189.654 195.264 190.292C195.935 190.462 196.671 190.553 197.432 190.553C199.033 190.553 200.455 190.156 201.335 189.838C200.413 189.533 198.988 188.92 197.519 187.745C195.773 186.348 193.444 184.485 192.056 184.485ZM197.432 191.258C196.611 191.258 195.817 191.161 195.068 190.969C192.887 190.264 191.145 188.873 190.499 187.334C190.121 186.432 190.134 185.532 190.535 184.728C190.845 184.108 191.371 183.78 192.056 183.78C193.692 183.78 196.033 185.653 197.914 187.158C200.244 189.021 202.464 189.415 202.486 189.418C202.635 189.444 202.752 189.562 202.776 189.712C202.799 189.862 202.723 190.01 202.588 190.079C202.495 190.128 200.26 191.258 197.432 191.258Z" fill="#100F0D"/>
<path d="M198.569 220.003C198.314 214.389 197.676 203.163 196.784 199.591C195.89 196.019 190.276 197.038 189.894 196.912C189.511 196.784 182.527 199.431 179.083 192.447C175.638 185.462 178.413 182.878 180.326 183.548C180.996 181.253 182.91 181.922 183.962 183.07C184.919 181.061 187.693 183.167 188.363 185.75C189.033 188.333 189.703 190.629 195.06 189.959C200.418 189.289 207.019 187.758 209.603 195.508C212.186 203.258 214.292 215.313 214.292 215.313C214.292 215.313 213.271 222.969 198.569 220.003Z" fill="white"/>
<path d="M198.905 219.71C201.024 220.123 202.971 220.332 204.697 220.332C212.719 220.332 213.83 215.83 213.93 215.313C213.765 214.385 211.717 202.976 209.265 195.62C207.523 190.396 203.937 189.726 201.007 189.726C199.458 189.726 197.854 189.942 196.303 190.15C195.897 190.205 195.495 190.259 195.1 190.308C194.461 190.389 193.866 190.429 193.33 190.429C189.209 190.429 188.576 187.989 188.018 185.838C187.548 184.027 186.061 182.622 185.095 182.622C184.737 182.622 184.469 182.818 184.276 183.221C184.226 183.327 184.126 183.401 184.01 183.418C183.893 183.436 183.778 183.395 183.698 183.308C183.167 182.729 182.494 182.369 181.94 182.369C181.339 182.369 180.909 182.799 180.661 183.647C180.634 183.74 180.57 183.817 180.484 183.862C180.398 183.906 180.297 183.912 180.206 183.881C179.515 183.64 178.74 183.957 178.29 184.681C177.846 185.395 177.065 187.565 179.395 192.291C180.919 195.381 183.353 196.947 186.629 196.947C187.768 196.947 188.727 196.755 189.3 196.641C189.571 196.587 189.735 196.554 189.851 196.554C189.889 196.554 189.966 196.564 190.001 196.576C190.133 196.57 190.277 196.563 190.458 196.553C190.769 196.537 191.181 196.516 191.646 196.516C194.783 196.516 196.626 197.522 197.122 199.505C198.081 203.342 198.715 215.595 198.905 219.71ZM204.697 221.037C202.852 221.037 200.765 220.805 198.496 220.348C198.337 220.315 198.221 220.18 198.213 220.018C198.041 216.222 197.403 203.54 196.438 199.677C196.03 198.047 194.418 197.221 191.646 197.221C191.195 197.221 190.796 197.241 190.494 197.257C190.145 197.275 189.951 197.283 189.833 197.26C189.757 197.266 189.622 197.296 189.438 197.332C188.839 197.452 187.838 197.652 186.629 197.652C183.112 197.652 180.392 195.906 178.763 192.602C176.366 187.742 177.062 185.32 177.691 184.309C178.245 183.418 179.178 182.966 180.093 183.126C180.579 181.863 181.444 181.664 181.94 181.664C182.578 181.664 183.284 181.974 183.891 182.511C184.198 182.125 184.613 181.917 185.095 181.917C186.499 181.917 188.184 183.666 188.701 185.66C189.266 187.84 189.755 189.724 193.33 189.724C193.836 189.724 194.403 189.686 195.012 189.609C195.405 189.56 195.805 189.507 196.209 189.452C197.783 189.24 199.41 189.021 201.007 189.021C203.926 189.021 208.029 189.682 209.934 195.396C212.496 203.082 214.614 215.131 214.635 215.252C214.641 215.287 214.642 215.324 214.637 215.36C214.629 215.416 213.774 221.037 204.697 221.037Z" fill="#100F0D"/>
<path d="M181.807 196.189C181.732 196.189 181.656 196.165 181.592 196.116C179.425 194.442 177.988 191.941 177.32 188.681C177.28 188.49 177.403 188.304 177.594 188.264C177.787 188.226 177.971 188.348 178.01 188.539C178.644 191.628 179.994 193.99 182.023 195.558C182.177 195.678 182.205 195.898 182.086 196.053C182.017 196.143 181.913 196.189 181.807 196.189Z" fill="#100F0D"/>
<path d="M190.853 194.904C190.848 194.904 190.842 194.904 190.837 194.904C188.867 194.818 187.234 193.976 185.986 192.398C183.599 189.382 183.328 184.522 183.617 183.004C183.653 182.814 183.836 182.686 184.03 182.724C184.221 182.76 184.346 182.945 184.31 183.136C184.047 184.514 184.324 189.163 186.539 191.961C187.655 193.37 189.111 194.124 190.868 194.199C191.062 194.208 191.213 194.373 191.205 194.567C191.196 194.756 191.04 194.904 190.853 194.904Z" fill="#100F0D"/>
<path d="M187.117 197.484C187.107 197.484 187.097 197.484 187.087 197.483C185.246 197.329 183.709 196.471 182.519 194.931C179.704 191.287 179.721 184.953 179.976 183.486C180.01 183.293 180.191 183.162 180.384 183.199C180.576 183.232 180.704 183.414 180.671 183.606C180.427 185.007 180.407 191.043 183.078 194.5C184.141 195.877 185.509 196.645 187.146 196.781C187.34 196.796 187.484 196.968 187.468 197.161C187.453 197.345 187.298 197.484 187.117 197.484Z" fill="#100F0D"/>
<path d="M253.422 226.315C256.579 227.75 265.764 231.003 282.411 226.793C281.837 238.275 280.69 262.481 280.69 262.481C280.69 262.481 266.816 270.327 257.535 267.073C254.953 262.672 253.422 226.315 253.422 226.315Z" fill="#100F0D"/>
<path d="M256.264 217.231C259.039 216.848 262.033 215.792 261.746 211.199C261.459 206.607 260.694 200.579 260.694 200.579C253.518 200.484 246.438 196.752 243.185 189.385C239.932 182.018 244.237 178.191 246.629 170.537C249.022 162.883 253.518 156.568 263.564 157.238C273.61 157.907 278.967 162.691 278.967 162.691C277.245 171.685 275.523 184.41 279.254 185.176C282.986 185.941 283.943 179.34 283.943 179.34C289.588 176.565 295.501 179.941 293.223 184.888C290.449 190.916 283.847 187.854 283.847 187.854C282.508 191.299 276.863 195.125 276.863 195.125C277.724 202.206 278.581 213.918 283.939 214.587C281.738 225.781 280.595 229.856 280.595 229.856C280.595 229.856 261.363 234.544 254.379 227.656C254.666 225.264 256.264 217.231 256.264 217.231Z" fill="white"/>
<path d="M254.75 227.528C257.23 229.876 261.502 231.064 267.452 231.064C273.417 231.064 279.172 229.824 280.309 229.564C280.556 228.629 281.656 224.339 283.522 214.876C278.662 213.809 277.551 204.159 276.734 197.066C276.659 196.408 276.585 195.773 276.513 195.171C276.497 195.04 276.555 194.911 276.665 194.837C276.72 194.8 282.234 191.031 283.518 187.729C283.553 187.639 283.625 187.567 283.715 187.531C283.805 187.494 283.907 187.497 283.994 187.538C284.011 187.545 285.63 188.282 287.541 188.282C290.018 188.282 291.822 187.092 292.902 184.744C293.557 183.322 293.529 181.985 292.819 180.877C291.944 179.512 290.169 178.697 288.07 178.697C286.809 178.697 285.496 179.001 284.261 179.581C284.078 180.636 283.047 185.594 279.842 185.594C279.628 185.594 279.406 185.57 279.183 185.525C276.04 184.879 275.837 177.245 278.581 162.833C277.649 162.08 272.425 158.186 263.539 157.593C255.192 157.038 249.928 161.165 246.966 170.646C246.28 172.838 245.423 174.755 244.668 176.446C242.753 180.731 241.24 184.114 243.506 189.246C246.454 195.92 253.041 200.128 260.698 200.23C260.873 200.232 261.021 200.363 261.043 200.538C261.05 200.598 261.813 206.629 262.097 211.18C262.398 216.005 259.157 217.15 256.561 217.547C256.299 218.876 255.049 225.242 254.75 227.528ZM267.452 231.77C261.21 231.77 256.727 230.471 254.131 227.911C254.053 227.833 254.016 227.725 254.028 227.617C254.313 225.239 255.852 217.494 255.918 217.165C255.947 217.018 256.067 216.906 256.216 216.885C258.927 216.511 261.663 215.546 261.393 211.225C261.147 207.277 260.538 202.207 260.381 200.928C252.576 200.716 245.881 196.37 242.862 189.531C240.469 184.112 242.037 180.602 244.024 176.158C244.808 174.403 245.619 172.588 246.292 170.435C249.324 160.731 254.966 156.314 263.586 156.89C273.638 157.56 278.979 162.234 279.201 162.432C279.294 162.515 279.337 162.64 279.313 162.761C276.729 176.257 276.733 184.302 279.325 184.834C279.501 184.87 279.675 184.889 279.842 184.889C282.749 184.889 283.585 179.349 283.593 179.292C283.61 179.177 283.683 179.078 283.786 179.027C285.165 178.35 286.646 177.991 288.07 177.991C290.411 177.991 292.407 178.928 293.413 180.497C294.246 181.798 294.292 183.411 293.543 185.039C292.041 188.303 289.45 188.987 287.541 188.987C285.984 188.987 284.638 188.549 284.035 188.317C282.612 191.416 278.197 194.626 277.238 195.298C277.302 195.837 277.368 196.403 277.435 196.986C278.245 204.024 279.354 213.662 283.982 214.24C284.078 214.252 284.166 214.305 284.224 214.384C284.281 214.463 284.303 214.562 284.283 214.659C282.105 225.739 280.945 229.914 280.933 229.955C280.898 230.077 280.801 230.173 280.677 230.202C280.613 230.218 274.168 231.77 267.452 231.77Z" fill="#100F0D"/>
<path d="M253.996 185.148C253.937 185.148 253.877 185.134 253.822 185.103C251.803 183.953 250.745 182.825 250.586 181.657C250.39 180.206 251.566 179.027 252.704 177.886C252.927 177.663 253.148 177.441 253.357 177.219C255.219 175.236 255.021 171.623 254.05 169.104C253.634 168.024 252.93 167.385 251.961 167.203C250.68 166.969 249.299 167.602 248.645 168.322C248.514 168.466 248.291 168.477 248.147 168.346C248.002 168.215 247.992 167.992 248.123 167.848C248.925 166.965 250.544 166.226 252.09 166.51C252.933 166.668 254.072 167.201 254.708 168.85C255.791 171.658 255.953 175.485 253.87 177.702C253.658 177.928 253.431 178.155 253.203 178.384C252.187 179.403 251.136 180.458 251.285 181.562C251.411 182.485 252.381 183.47 254.17 184.49C254.34 184.586 254.399 184.802 254.303 184.97C254.237 185.084 254.119 185.148 253.996 185.148Z" fill="#100F0D"/>
<path d="M271.28 173.217C271.166 173.217 271.055 173.162 270.987 173.06C267.267 167.512 263.314 168.276 261.287 169.229C261.113 169.311 260.902 169.236 260.818 169.059C260.736 168.883 260.812 168.673 260.988 168.59C262.785 167.749 267.412 166.46 271.572 172.668C271.681 172.83 271.638 173.049 271.476 173.157C271.416 173.198 271.347 173.217 271.28 173.217Z" fill="#100F0D"/>
<path d="M265.603 178.233C265.23 179.426 264.376 180.222 263.696 180.011C263.016 179.798 262.767 178.658 263.14 177.464C263.511 176.27 264.366 175.474 265.045 175.688C265.725 175.9 265.975 177.038 265.603 178.233Z" fill="#100F0D"/>
<path d="M265.223 176.471C265.071 176.471 264.93 176.372 264.886 176.218L264.247 174.049C264.192 173.862 264.299 173.667 264.485 173.612C264.675 173.557 264.869 173.662 264.923 173.85L265.562 176.019C265.617 176.206 265.51 176.402 265.324 176.457C265.29 176.466 265.256 176.471 265.223 176.471Z" fill="#100F0D"/>
<path d="M251.666 175.62C251.293 176.813 250.439 177.609 249.759 177.398C249.079 177.185 248.83 176.045 249.202 174.852C249.575 173.657 250.429 172.862 251.108 173.075C251.787 173.288 252.039 174.426 251.666 175.62Z" fill="#100F0D"/>
<path d="M251.285 173.855C251.134 173.855 250.992 173.757 250.948 173.603L250.309 171.434C250.254 171.246 250.361 171.051 250.548 170.996C250.733 170.94 250.931 171.046 250.986 171.234L251.624 173.404C251.679 173.59 251.572 173.786 251.385 173.841C251.352 173.851 251.318 173.855 251.285 173.855Z" fill="#100F0D"/>
<path d="M251.559 187.196C251.551 189.008 251.878 190.306 252.515 190.971C253.857 192.371 256.843 190.94 260.036 187.574C256.621 188.243 253.188 188.048 251.559 187.196ZM253.855 192.221C253.112 192.221 252.49 191.965 252.005 191.459C251.149 190.564 250.766 188.905 250.87 186.53C250.876 186.393 250.961 186.272 251.087 186.22C251.213 186.167 251.359 186.192 251.46 186.285C251.965 186.747 253.448 187.286 255.963 187.286C257.532 187.286 259.261 187.066 260.961 186.649C261.113 186.612 261.267 186.677 261.346 186.808C261.426 186.94 261.411 187.108 261.31 187.224C258.519 190.399 255.802 192.221 253.855 192.221Z" fill="#100F0D"/>
<path d="M252.371 191.586C252.311 191.586 252.25 191.57 252.195 191.539C252.026 191.442 251.967 191.226 252.065 191.058C252.894 189.615 256.261 188.716 258.272 189.397C258.456 189.459 258.556 189.66 258.493 189.844C258.431 190.028 258.229 190.126 258.046 190.065C256.226 189.447 253.291 190.339 252.676 191.409C252.61 191.522 252.492 191.586 252.371 191.586Z" fill="#100F0D"/>
<path d="M260.545 200.963C260.338 200.961 260.152 200.818 260.152 200.609C260.153 200.414 260.31 200.258 260.505 200.258C260.52 200.256 260.533 200.258 260.546 200.258C264.119 200.258 269.877 198.198 273.733 196.154C273.906 196.062 274.119 196.127 274.21 196.299C274.301 196.472 274.236 196.685 274.064 196.776C270.129 198.861 264.233 200.963 260.545 200.963Z" fill="#100F0D"/>
<path d="M198.312 218.372C199.938 218.946 207.88 218.946 214.29 215.31C215.342 221.146 219.265 238.559 219.265 238.559C224.719 232.627 232.276 225.643 235.721 222.677C239.166 219.711 244.428 216.84 249.594 217.032C254.761 217.223 257.439 216.936 257.439 216.936C257.439 216.936 253.326 224.208 255.431 244.395C257.535 264.583 258.205 267.262 258.205 267.262L251.125 266.592C251.125 266.592 252.56 262.096 248.255 256.929C243.949 251.762 242.705 248.509 242.131 244.682C237.539 249.371 225.292 262.382 215.055 262.478C204.818 262.573 201.182 253.389 199.747 241.908C198.312 230.427 198.312 218.372 198.312 218.372Z" fill="#4285F4"/>
<path d="M277.154 262.352C274.284 263.213 261.939 266.879 256.294 266.496C250.649 266.113 244.813 263.338 240.22 264.487C235.628 265.635 227.751 271.423 228.309 273.719C228.74 275.489 230.844 274.533 230.844 274.533C231.61 276.159 233.141 275.298 233.141 275.298C233.906 276.925 237.447 275.968 239.551 274.15C241.656 272.332 244.239 271.375 247.493 272.524C250.745 273.672 255.815 275.298 261.747 275.585C267.68 275.872 281.649 275.22 281.649 275.22C281.649 275.22 283.755 266.945 277.154 262.352Z" fill="white"/>
<path d="M233.14 274.949C233.176 274.949 233.213 274.954 233.248 274.966C233.341 274.996 233.417 275.062 233.458 275.15C233.704 275.672 234.34 275.781 234.832 275.781C236.183 275.781 238.028 275.002 239.32 273.886C241.867 271.685 244.598 271.131 247.609 272.194C251.212 273.466 256.077 274.961 261.764 275.236C262.759 275.284 264.055 275.308 265.614 275.308C271.552 275.308 279.771 274.954 281.36 274.883C281.632 273.492 282.619 266.71 277.09 262.742C271.525 264.405 261.3 267.194 256.269 266.851C254.026 266.699 251.759 266.174 249.568 265.668C247.113 265.101 244.793 264.566 242.655 264.566C241.79 264.566 241.021 264.653 240.305 264.832C235.686 265.986 228.17 271.665 228.65 273.639C228.784 274.186 229.107 274.442 229.669 274.442C230.188 274.442 230.693 274.217 230.698 274.214C230.874 274.137 231.081 274.212 231.162 274.386C231.413 274.917 231.765 275.176 232.237 275.176C232.63 275.176 232.965 274.994 232.968 274.993C233.021 274.963 233.08 274.949 233.14 274.949ZM234.832 276.486C233.829 276.486 233.288 276.129 232.998 275.745C232.804 275.813 232.535 275.882 232.237 275.882C231.768 275.882 231.139 275.715 230.68 274.973C230.43 275.054 230.059 275.147 229.669 275.147C228.782 275.147 228.176 274.67 227.965 273.805C227.299 271.063 235.725 265.25 240.134 264.147C240.907 263.955 241.731 263.861 242.655 263.861C244.874 263.861 247.231 264.405 249.727 264.982C251.892 265.482 254.131 265.999 256.317 266.147C261.284 266.49 271.577 263.66 277.051 262.018C277.154 261.987 277.267 262.005 277.354 262.066C284.078 266.743 282.012 275.225 281.989 275.31C281.952 275.461 281.819 275.568 281.664 275.575C281.57 275.58 272.198 276.013 265.614 276.013C265.614 276.013 265.614 276.013 265.614 276.013C264.043 276.013 262.736 275.989 261.729 275.94C255.952 275.66 251.023 274.147 247.375 272.859C244.606 271.883 242.134 272.386 239.781 274.42C238.371 275.637 236.336 276.486 234.832 276.486Z" fill="#100F0D"/>
<path d="M293.508 259.128L294.178 251.092L296.379 258.555L293.508 259.128ZM320.489 255.588C316.279 244.299 312.643 232.053 309.199 226.503C305.755 220.954 301.641 215.788 293.987 215.022C288.438 214.639 283.462 214.448 283.462 214.448C281.644 219.232 275.809 242.386 278.87 261.808C277.53 261.808 276.574 262.573 276.574 262.573C279.635 265.061 281.357 269.557 280.592 275.585C293.891 276.637 307.955 274.532 312.548 273.384C317.14 272.237 324.699 266.879 320.489 255.588Z" fill="#4285F4"/>
<path d="M193.177 190.371C192.992 190.371 192.837 190.227 192.825 190.04C192.813 189.847 192.961 189.679 193.155 189.667C193.812 189.626 194.603 189.551 195.465 189.47C198.356 189.196 201.955 188.859 204.106 189.413C204.294 189.462 204.407 189.654 204.359 189.842C204.31 190.031 204.119 190.144 203.929 190.096C201.895 189.57 198.367 189.904 195.531 190.172C194.661 190.253 193.862 190.329 193.199 190.37C193.192 190.371 193.184 190.371 193.177 190.371Z" fill="#100F0D"/>
<path d="M242.414 246.662C242.25 246.662 242.103 246.546 242.069 246.379C241.43 243.178 242.145 239.073 243.138 236.427C243.206 236.245 243.41 236.149 243.592 236.221C243.774 236.289 243.867 236.492 243.797 236.675C243.084 238.58 242.06 242.738 242.76 246.24C242.798 246.432 242.675 246.618 242.484 246.655C242.461 246.66 242.437 246.662 242.414 246.662Z" fill="#100F0D"/>
<path d="M276.788 262.672C276.632 262.672 276.489 262.568 276.447 262.41C276.398 262.222 276.51 262.028 276.698 261.979C279.792 261.16 299.178 257.356 306.013 256.77C306.204 256.753 306.377 256.897 306.395 257.091C306.411 257.286 306.267 257.456 306.074 257.472C299.267 258.056 279.961 261.844 276.878 262.661C276.848 262.668 276.817 262.672 276.788 262.672Z" fill="#100F0D"/>
<path d="M294.658 252.691C294.509 252.691 294.37 252.595 294.322 252.446C293.63 250.282 291.928 243.455 291.11 240.175L290.872 239.221C290.825 239.032 290.939 238.841 291.128 238.793C291.315 238.746 291.508 238.861 291.556 239.05L291.795 240.004C292.61 243.277 294.309 250.09 294.994 252.231C295.054 252.416 294.951 252.616 294.765 252.675C294.73 252.686 294.694 252.691 294.658 252.691Z" fill="#100F0D"/>
<path d="M233.136 275.652C233.126 275.652 233.115 275.652 233.104 275.651C232.91 275.633 232.767 275.462 232.785 275.268C232.901 273.987 238.053 269.688 242.702 268.361C242.891 268.304 243.085 268.416 243.138 268.602C243.192 268.789 243.084 268.985 242.896 269.038C238.218 270.374 233.562 274.502 233.487 275.332C233.471 275.515 233.316 275.652 233.136 275.652Z" fill="#100F0D"/>
<path d="M230.841 274.889C230.646 274.889 230.488 274.731 230.488 274.536C230.488 272.697 234.349 268.819 240.399 266.928C240.589 266.869 240.782 266.974 240.841 267.159C240.899 267.345 240.795 267.542 240.61 267.601C234.397 269.542 231.193 273.342 231.193 274.536C231.193 274.731 231.036 274.889 230.841 274.889Z" fill="#100F0D"/>
<path d="M255.811 274.26H225.597L213.439 238.749C212.378 235.653 208.832 233.119 205.559 233.119H153.962C150.691 233.119 148.88 235.653 149.94 238.749L162.465 275.33C163.835 278.881 163.996 281.805 167.556 281.805H255.811C257.894 281.805 259.583 280.115 259.583 278.031C259.583 275.948 257.894 274.26 255.811 274.26Z" fill="#FC9290"/>
<path d="M222.934 275.266H162.925C162.73 275.266 162.572 275.108 162.572 274.913C162.572 274.718 162.73 274.561 162.925 274.561H222.934C223.128 274.561 223.286 274.718 223.286 274.913C223.286 275.108 223.128 275.266 222.934 275.266Z" fill="#100F0D"/>
<path d="M183.736 251.579C182.848 251.579 182.113 251.931 181.614 252.598C180.889 253.561 180.74 255.034 181.205 256.641C182.041 259.54 184.606 261.898 186.92 261.898C187.807 261.898 188.54 261.546 189.041 260.88C189.766 259.915 189.914 258.442 189.45 256.837C188.615 253.938 186.051 251.579 183.736 251.579ZM186.92 262.604C184.313 262.604 181.445 260.016 180.527 256.836C180 255.015 180.191 253.317 181.049 252.175C181.68 251.335 182.634 250.874 183.736 250.874C186.344 250.874 189.211 253.462 190.127 256.642C190.654 258.461 190.464 260.16 189.604 261.303C188.974 262.142 188.021 262.604 186.92 262.604Z" fill="#100F0D"/>
<path d="M172.397 132.412C168.402 132.778 166.133 135.26 166.534 142.322C166.934 149.386 165.334 156.676 168.133 159.408C170.932 162.144 177.994 162.145 184.525 162.258C191.055 162.371 199.513 162.179 202.017 162.144C207.914 162.058 210.012 161.034 210.812 156.419C211.283 153.703 210.153 138.381 210.113 136.77C210.012 132.754 207.414 132.241 201.717 131.985C196.254 131.739 176.129 132.07 172.397 132.412Z" fill="#9FC3FF"/>
<path d="M188.439 151.107C188.413 151.107 188.386 151.107 188.36 151.107C185.55 151.064 183.264 148.7 181.587 146.644C178.488 142.842 171.515 135.048 169.821 133.6C169.673 133.473 169.655 133.25 169.782 133.102C169.908 132.954 170.13 132.938 170.278 133.064C171.995 134.531 179.019 142.378 182.134 146.197C183.714 148.135 185.851 150.364 188.371 150.402C190.174 150.413 192.058 149.319 193.976 147.107C199.255 141.016 207.089 133.344 207.167 133.267C207.307 133.131 207.531 133.134 207.665 133.273C207.802 133.412 207.799 133.635 207.66 133.772C207.582 133.848 199.769 141.5 194.509 147.568C192.446 149.948 190.459 151.107 188.439 151.107Z" fill="#100F0D"/>
<path d="M168.134 159.762C168.004 159.762 167.88 159.691 167.818 159.566C167.731 159.392 167.803 159.181 167.977 159.094C168.893 158.637 173.568 154.225 176.981 151.004C179.808 148.335 181.426 146.814 181.81 146.579C181.976 146.477 182.193 146.53 182.294 146.697C182.396 146.862 182.344 147.079 182.177 147.181C181.839 147.388 179.714 149.393 177.464 151.517C172.84 155.882 169.228 159.259 168.291 159.724C168.241 159.75 168.187 159.762 168.134 159.762Z" fill="#100F0D"/>
<path d="M207.981 160.9C207.861 160.9 207.743 160.838 207.677 160.726C207.452 160.344 204.826 157.499 202.286 154.748C198.934 151.116 195.467 147.361 194.943 146.529C194.839 146.364 194.889 146.146 195.053 146.042C195.219 145.938 195.436 145.989 195.539 146.152C196.029 146.931 199.629 150.83 202.805 154.27C206.04 157.774 208.035 159.943 208.285 160.369C208.384 160.538 208.328 160.753 208.159 160.852C208.103 160.885 208.042 160.9 207.981 160.9Z" fill="#100F0D"/>
</svg>
