<svg width="210" height="100" viewBox="0 0 210 100" fill="none" xmlns="http://www.w3.org/2000/svg">
<mask id="mask0_917_1606" style="mask-type:alpha" maskUnits="userSpaceOnUse" x="1" y="27" width="71" height="55">
<path d="M67.0388 28.5108C70.3045 29.6829 71.9375 31.2456 71.9375 33.1991C71.9375 33.8338 71.645 35.0305 71.0601 36.7884L57.0221 77.444C56.9246 77.786 56.7542 78.2011 56.5104 78.6894C56.2668 79.1778 55.6087 79.8372 54.5363 80.6672C53.5128 81.4486 52.2698 81.8393 50.8075 81.8393C49.394 81.8393 48.151 81.4486 47.0786 80.6672C46.0552 79.8372 45.3727 79.0311 45.0314 78.2497L36.477 52.9775C31.0666 68.9954 28.3127 77.151 28.2152 77.444C28.1177 77.737 27.8984 78.1521 27.5572 78.6894C27.216 79.2265 26.826 79.7149 26.3874 80.1545C25.2663 81.2776 23.9258 81.8393 22.3661 81.8393C20.8063 81.8393 19.5146 81.473 18.491 80.7406C17.5162 80.0079 16.8581 79.2755 16.5169 78.5428L16.0051 77.444L1.8941 36.7884C1.35793 35.1769 1.08984 33.9805 1.08984 33.1991C1.08984 31.2456 2.72273 29.7073 5.98849 28.5841C7.40204 28.0957 8.66935 27.8516 9.79043 27.8516C10.9603 27.8516 11.8376 28.2423 12.4225 29.0236C13.0562 29.805 13.6167 31.0015 14.1042 32.613L22.1467 57.0795L30.1162 32.9794C30.7984 30.9282 32.0415 29.512 33.8449 28.7306C34.6248 28.3888 35.6242 28.2179 36.8427 28.2179C38.11 28.2179 39.2799 28.6329 40.3523 29.4631C41.4246 30.2445 42.107 31.0259 42.3992 31.8073L50.8075 57.2262L58.8501 32.613C59.24 31.4899 59.5568 30.6596 59.8007 30.1224C60.0442 29.5852 60.4828 29.0725 61.1166 28.5841C61.799 28.0469 62.6275 27.7783 63.6024 27.7783C64.5773 27.7783 65.7228 28.0225 67.0388 28.5108Z" fill="black"/>
</mask>
<g mask="url(#mask0_917_1606)">
<path d="M56.8361 85.7092C55.5654 89.5472 51.4296 91.6272 47.5986 90.3551C43.7675 89.083 41.692 84.9404 42.9627 81.1024L60.74 27.4077C62.0107 23.5697 66.1465 21.4897 69.9775 22.7618C73.8085 24.0339 75.8841 28.1765 74.6134 32.0145L56.8361 85.7092Z" fill="black"/>
<path d="M45.713 81.1771C46.7767 84.4037 50.25 86.1561 53.4708 85.0912C56.6915 84.0264 58.4402 80.5474 57.3765 77.3207L41.8163 30.1209C40.7526 26.8943 37.2793 25.1418 34.0586 26.2067C30.8378 27.2716 29.0891 30.7506 30.1528 33.9772L45.713 81.1771Z" fill="black"/>
<path d="M27.2298 80.7054C26.1721 83.9 22.7298 85.6313 19.541 84.5725C16.3523 83.5136 14.6247 80.0656 15.6824 76.8711L32.1077 27.26C33.1654 24.0654 36.6078 22.3341 39.7965 23.3929C42.9852 24.4517 44.7128 27.8998 43.6551 31.0943L27.2298 80.7054Z" fill="black"/>
<path d="M16.9944 88.0032C18.2592 91.8234 22.3758 93.8938 26.189 92.6276C30.0023 91.3614 32.0682 87.2381 30.8034 83.4179L13.0047 29.6587C11.7399 25.8385 7.62331 23.7681 3.81007 25.0343C-0.00316953 26.3005 -2.0691 30.4238 -0.8043 34.244L16.9944 88.0032Z" fill="black"/>
</g>
<mask id="mask1_917_1606" style="mask-type:alpha" maskUnits="userSpaceOnUse" x="137" y="27" width="71" height="55">
<path d="M141.961 28.5128C138.696 29.6848 137.062 31.2476 137.062 33.201C137.062 33.8358 137.355 35.0325 137.94 36.7903L151.978 77.446C152.075 77.788 152.246 78.203 152.49 78.6914C152.733 79.1797 153.391 79.8391 154.464 80.6692C155.487 81.4506 156.73 81.8413 158.193 81.8413C159.606 81.8413 160.849 81.4506 161.921 80.6692C162.945 79.8391 163.627 79.0331 163.969 78.2517L172.523 52.9795C177.933 68.9974 180.687 77.1529 180.785 77.446C180.882 77.739 181.102 78.154 181.443 78.6914C181.784 79.2284 182.174 79.7168 182.613 80.1565C183.734 81.2796 185.074 81.8413 186.634 81.8413C188.194 81.8413 189.485 81.4749 190.509 80.7425C191.484 80.0098 192.142 79.2774 192.483 78.5447L192.995 77.446L207.106 36.7903C207.642 35.1789 207.91 33.9824 207.91 33.201C207.91 31.2476 206.277 29.7093 203.012 28.5861C201.598 28.0977 200.331 27.8535 199.209 27.8535C198.04 27.8535 197.163 28.2442 196.578 29.0256C195.944 29.807 195.383 31.0034 194.896 32.615L186.853 57.0815L178.884 32.9813C178.202 30.9302 176.958 29.5139 175.155 28.7326C174.375 28.3907 173.376 28.2198 172.157 28.2198C170.89 28.2198 169.72 28.6349 168.648 29.4651C167.576 30.2465 166.893 31.0278 166.601 31.8093L158.193 57.2281L150.15 32.615C149.76 31.4919 149.443 30.6616 149.2 30.1244C148.956 29.5872 148.517 29.0744 147.883 28.5861C147.201 28.0489 146.372 27.7803 145.398 27.7803C144.423 27.7803 143.277 28.0245 141.961 28.5128Z" fill="black"/>
</mask>
<g mask="url(#mask1_917_1606)">
<path d="M152.16 85.7072C153.43 89.5452 157.566 91.6253 161.397 90.3532C165.228 89.0811 167.304 84.9385 166.033 81.1005L148.256 27.4058C146.985 23.5678 142.849 21.4877 139.018 22.7598C135.187 24.0319 133.111 28.1745 134.382 32.0125L152.16 85.7072Z" fill="black"/>
<path d="M163.283 81.1771C162.219 84.4037 158.746 86.1561 155.525 85.0912C152.304 84.0264 150.555 80.5474 151.619 77.3207L167.179 30.1209C168.243 26.8943 171.716 25.1418 174.937 26.2067C178.158 27.2716 179.906 30.7506 178.843 33.9772L163.283 81.1771Z" fill="black"/>
<path d="M181.762 80.7015C182.82 83.896 186.262 85.6274 189.451 84.5685C192.639 83.5097 194.367 80.0617 193.309 76.8672L176.884 27.256C175.826 24.0615 172.384 22.3302 169.195 23.389C166.006 24.4478 164.279 27.8959 165.337 31.0904L181.762 80.7015Z" fill="black"/>
<path d="M191.995 88.0013C190.731 91.8215 186.614 93.8919 182.801 92.6257C178.987 91.3595 176.922 87.2361 178.186 83.416L195.985 29.6567C197.25 25.8365 201.366 23.7661 205.18 25.0323C208.993 26.2985 211.059 30.4219 209.794 34.242L191.995 88.0013Z" fill="black"/>
</g>
<path fill-rule="evenodd" clip-rule="evenodd" d="M71.7281 52.4421C69.713 53.6075 69.713 56.5215 71.7281 57.6872L86.1843 66.0491C84.2673 62.8375 83.1658 59.0811 83.1658 55.0671C83.1658 51.0497 84.2691 47.2906 86.1888 44.0771L71.7281 52.4421ZM104.235 33.6385C104.342 33.637 104.449 33.6361 104.556 33.6361C112.615 33.6361 119.633 38.1017 123.28 44.6976V27.8668C123.28 25.5356 120.762 24.0786 118.746 25.2442L104.235 33.6385ZM123.28 65.4363C119.633 72.0325 112.615 76.4981 104.556 76.4981C104.452 76.4981 104.348 76.4972 104.244 76.4957L118.746 84.8849C120.762 86.0506 123.28 84.5934 123.28 82.2624V65.4363Z" fill="black"/>
<path fill-rule="evenodd" clip-rule="evenodd" d="M125.943 55.4729C125.946 55.3411 125.947 55.2094 125.947 55.0773C125.947 47.0221 121.511 40.0048 114.954 36.3438H131.731C134.058 36.3438 135.512 38.8671 134.349 40.886L125.943 55.4729ZM115.589 73.4418C112.368 75.3883 108.593 76.5083 104.557 76.5083C100.557 76.5083 96.8141 75.4083 93.6122 73.4944L101.968 87.9939C103.131 90.0128 106.04 90.0128 107.203 87.9939L115.589 73.4418ZM83.1685 55.3709L74.8216 40.886C73.6581 38.8671 75.1125 36.3438 77.4392 36.3438H94.1601C87.6022 40.0048 83.1664 47.0221 83.1664 55.0773C83.1664 55.1753 83.1673 55.2733 83.1685 55.3709Z" fill="black"/>
<path fill-rule="evenodd" clip-rule="evenodd" d="M137.441 57.6892C139.456 56.5235 139.456 53.6094 137.441 52.444L122.892 44.028C124.83 47.2527 125.945 51.0303 125.945 55.069C125.945 59.1044 124.832 62.8793 122.897 66.1022L137.441 57.6892ZM104.927 76.497C104.803 76.4991 104.679 76.5 104.555 76.5C96.5382 76.5 89.5516 72.0813 85.8887 65.542V82.2643C85.8887 84.5954 88.4076 86.0526 90.4226 84.8869L104.927 76.497ZM104.936 33.6417L90.4226 25.2462C88.4076 24.0806 85.8887 25.5376 85.8887 27.8688V44.5961C89.5516 38.0571 96.5382 33.6384 104.555 33.6384C104.683 33.6384 104.81 33.6393 104.936 33.6417Z" fill="black"/>
<path fill-rule="evenodd" clip-rule="evenodd" d="M107.203 22.1489C106.039 20.13 103.131 20.13 101.967 22.1489L93.6075 36.6566C96.8103 34.7408 100.555 33.64 104.557 33.64C108.595 33.64 112.371 34.7609 115.593 36.7092L107.203 22.1489ZM125.943 54.6699C125.946 54.8032 125.947 54.9371 125.947 55.071C125.947 63.1222 121.515 70.1368 114.963 73.7994H131.731C134.058 73.7994 135.512 71.2757 134.349 69.2568L125.943 54.6699ZM94.1505 73.7994C87.5979 70.1368 83.1666 63.1222 83.1666 55.071C83.1666 54.9712 83.1672 54.8714 83.1684 54.7722L74.8215 69.2568C73.6583 71.2757 75.1124 73.7994 77.4391 73.7994H94.1505Z" fill="black"/>
<path fill-rule="evenodd" clip-rule="evenodd" d="M116.771 40.6431C108.841 33.9033 96.9666 34.8673 90.2229 42.7889C91.5762 41.2328 93.9305 41.0512 95.5061 42.3906C97.0944 43.7407 97.2897 46.125 95.9422 47.7164L95.9425 47.7167C99.9747 42.9547 107.089 42.3586 111.854 46.3745C111.866 46.3852 111.878 46.3955 111.89 46.4062C113.479 47.7562 115.859 47.5606 117.206 45.9692C118.554 44.3778 118.359 41.9935 116.77 40.6431H116.771Z" fill="black"/>
<path fill-rule="evenodd" clip-rule="evenodd" d="M90.1914 42.8303C83.468 50.7699 84.4253 62.6581 92.3191 69.4168L92.3713 69.4612C90.783 68.1111 90.588 65.7265 91.9355 64.1351C93.2809 62.5461 95.6556 62.3487 97.2439 63.6917C92.4931 59.646 91.9049 52.5131 95.9253 47.7414C95.9316 47.7341 95.9377 47.7268 95.9438 47.7195C97.2916 46.1281 97.0963 43.7435 95.508 42.3934C93.9193 41.0433 91.5392 41.239 90.1917 42.8303H90.1914Z" fill="black"/>
<path fill-rule="evenodd" clip-rule="evenodd" d="M92.3725 69.4554V69.4557C100.298 76.1919 112.163 75.2325 118.909 67.3227L118.953 67.271C117.605 68.8627 115.225 69.058 113.637 67.7079C112.048 66.3579 111.853 63.9732 113.201 62.3818C109.162 67.1511 102.033 67.7417 97.2675 63.7051C97.2626 63.7009 97.2578 63.6966 97.2526 63.6924C95.6643 62.3423 93.2842 62.5379 91.9366 64.1293C90.5891 65.7207 90.7844 68.1053 92.3725 69.4554Z" fill="black"/>
<path fill-rule="evenodd" clip-rule="evenodd" d="M116.824 40.6876L116.787 40.6562C118.362 42.0088 118.551 44.3831 117.208 45.9693C115.865 47.5555 113.497 47.7551 111.908 46.4199C116.656 50.4708 117.238 57.6089 113.206 62.3778C113.204 62.38 113.202 62.3824 113.2 62.3848C111.852 63.9762 112.048 66.3608 113.636 67.7109C115.224 69.061 117.604 68.8654 118.952 67.274L118.952 67.2743L118.972 67.2503C125.673 59.3107 124.71 47.4395 116.824 40.6876Z" fill="black"/>
<mask id="mask2_917_1606" style="mask-type:alpha" maskUnits="userSpaceOnUse" x="1" y="27" width="71" height="55">
<path d="M67.0388 28.5108C70.3045 29.6829 71.9375 31.2456 71.9375 33.1991C71.9375 33.8338 71.645 35.0305 71.0601 36.7884L57.0221 77.444C56.9246 77.786 56.7542 78.2011 56.5104 78.6894C56.2668 79.1778 55.6087 79.8372 54.5363 80.6672C53.5128 81.4486 52.2698 81.8393 50.8075 81.8393C49.394 81.8393 48.151 81.4486 47.0786 80.6672C46.0552 79.8372 45.3727 79.0311 45.0314 78.2497L36.477 52.9775C31.0666 68.9954 28.3127 77.151 28.2152 77.444C28.1177 77.737 27.8984 78.1521 27.5572 78.6894C27.216 79.2265 26.826 79.7149 26.3874 80.1545C25.2663 81.2776 23.9258 81.8393 22.3661 81.8393C20.8063 81.8393 19.5146 81.473 18.491 80.7406C17.5162 80.0079 16.8581 79.2755 16.5169 78.5428L16.0051 77.444L1.8941 36.7884C1.35793 35.1769 1.08984 33.9805 1.08984 33.1991C1.08984 31.2456 2.72273 29.7073 5.98849 28.5841C7.40204 28.0957 8.66935 27.8516 9.79043 27.8516C10.9603 27.8516 11.8376 28.2423 12.4225 29.0236C13.0562 29.805 13.6167 31.0015 14.1042 32.613L22.1467 57.0795L30.1162 32.9794C30.7984 30.9282 32.0415 29.512 33.8449 28.7306C34.6248 28.3888 35.6242 28.2179 36.8427 28.2179C38.11 28.2179 39.2799 28.6329 40.3523 29.4631C41.4246 30.2445 42.107 31.0259 42.3992 31.8073L50.8075 57.2262L58.8501 32.613C59.24 31.4899 59.5568 30.6596 59.8007 30.1224C60.0442 29.5852 60.4828 29.0725 61.1166 28.5841C61.799 28.0469 62.6275 27.7783 63.6024 27.7783C64.5773 27.7783 65.7228 28.0225 67.0388 28.5108Z" fill="black"/>
</mask>
<g mask="url(#mask2_917_1606)">
<path d="M56.8361 85.7092C55.5654 89.5472 51.4296 91.6272 47.5986 90.3551C43.7675 89.083 41.692 84.9404 42.9627 81.1024L60.74 27.4077C62.0107 23.5697 66.1465 21.4897 69.9775 22.7618C73.8085 24.0339 75.8841 28.1765 74.6134 32.0145L56.8361 85.7092Z" fill="black"/>
<path d="M45.713 81.1771C46.7767 84.4037 50.25 86.1561 53.4708 85.0912C56.6915 84.0264 58.4402 80.5474 57.3765 77.3207L41.8163 30.1209C40.7526 26.8943 37.2793 25.1418 34.0586 26.2067C30.8378 27.2716 29.0891 30.7506 30.1528 33.9772L45.713 81.1771Z" fill="black"/>
<path d="M27.2298 80.7054C26.1721 83.9 22.7298 85.6313 19.541 84.5725C16.3523 83.5136 14.6247 80.0656 15.6824 76.8711L32.1077 27.26C33.1654 24.0654 36.6078 22.3341 39.7965 23.3929C42.9852 24.4517 44.7128 27.8998 43.6551 31.0943L27.2298 80.7054Z" fill="black"/>
<path d="M16.9944 88.0032C18.2592 91.8234 22.3758 93.8938 26.189 92.6276C30.0023 91.3614 32.0682 87.2381 30.8034 83.4179L13.0047 29.6587C11.7399 25.8385 7.62331 23.7681 3.81007 25.0343C-0.00316953 26.3005 -2.0691 30.4238 -0.8043 34.244L16.9944 88.0032Z" fill="black"/>
</g>
<mask id="mask3_917_1606" style="mask-type:alpha" maskUnits="userSpaceOnUse" x="137" y="27" width="71" height="55">
<path d="M141.961 28.5128C138.696 29.6848 137.062 31.2476 137.062 33.201C137.062 33.8358 137.355 35.0325 137.94 36.7903L151.978 77.446C152.075 77.788 152.246 78.203 152.49 78.6914C152.733 79.1797 153.391 79.8391 154.464 80.6692C155.487 81.4506 156.73 81.8413 158.193 81.8413C159.606 81.8413 160.849 81.4506 161.921 80.6692C162.945 79.8391 163.627 79.0331 163.969 78.2517L172.523 52.9795C177.933 68.9974 180.687 77.1529 180.785 77.446C180.882 77.739 181.102 78.154 181.443 78.6914C181.784 79.2284 182.174 79.7168 182.613 80.1565C183.734 81.2796 185.074 81.8413 186.634 81.8413C188.194 81.8413 189.485 81.4749 190.509 80.7425C191.484 80.0098 192.142 79.2774 192.483 78.5447L192.995 77.446L207.106 36.7903C207.642 35.1789 207.91 33.9824 207.91 33.201C207.91 31.2476 206.277 29.7093 203.012 28.5861C201.598 28.0977 200.331 27.8535 199.209 27.8535C198.04 27.8535 197.163 28.2442 196.578 29.0256C195.944 29.807 195.383 31.0034 194.896 32.615L186.853 57.0815L178.884 32.9813C178.202 30.9302 176.958 29.5139 175.155 28.7326C174.375 28.3907 173.376 28.2198 172.157 28.2198C170.89 28.2198 169.72 28.6349 168.648 29.4651C167.576 30.2465 166.893 31.0278 166.601 31.8093L158.193 57.2281L150.15 32.615C149.76 31.4919 149.443 30.6616 149.2 30.1244C148.956 29.5872 148.517 29.0744 147.883 28.5861C147.201 28.0489 146.372 27.7803 145.398 27.7803C144.423 27.7803 143.277 28.0245 141.961 28.5128Z" fill="black"/>
</mask>
<g mask="url(#mask3_917_1606)">
<path d="M152.16 85.7072C153.43 89.5452 157.566 91.6253 161.397 90.3532C165.228 89.0811 167.304 84.9385 166.033 81.1005L148.256 27.4058C146.985 23.5678 142.849 21.4877 139.018 22.7598C135.187 24.0319 133.111 28.1745 134.382 32.0125L152.16 85.7072Z" fill="black"/>
<path d="M163.283 81.1771C162.219 84.4037 158.746 86.1561 155.525 85.0912C152.304 84.0264 150.555 80.5474 151.619 77.3207L167.179 30.1209C168.243 26.8943 171.716 25.1418 174.937 26.2067C178.158 27.2716 179.906 30.7506 178.843 33.9772L163.283 81.1771Z" fill="black"/>
<path d="M181.762 80.7015C182.82 83.896 186.262 85.6274 189.451 84.5685C192.639 83.5097 194.367 80.0617 193.309 76.8672L176.884 27.256C175.826 24.0615 172.384 22.3302 169.195 23.389C166.006 24.4478 164.279 27.8959 165.337 31.0904L181.762 80.7015Z" fill="black"/>
<path d="M191.995 88.0013C190.731 91.8215 186.614 93.8919 182.801 92.6257C178.987 91.3595 176.922 87.2361 178.186 83.416L195.985 29.6567C197.25 25.8365 201.366 23.7661 205.18 25.0323C208.993 26.2985 211.059 30.4219 209.794 34.242L191.995 88.0013Z" fill="black"/>
</g>
<path fill-rule="evenodd" clip-rule="evenodd" d="M71.7281 52.4421C69.713 53.6075 69.713 56.5215 71.7281 57.6872L86.1843 66.0491C84.2673 62.8375 83.1658 59.0811 83.1658 55.0671C83.1658 51.0497 84.2691 47.2906 86.1888 44.0771L71.7281 52.4421ZM104.235 33.6385C104.342 33.637 104.449 33.6361 104.556 33.6361C112.615 33.6361 119.633 38.1017 123.28 44.6976V27.8668C123.28 25.5356 120.762 24.0786 118.746 25.2442L104.235 33.6385ZM123.28 65.4363C119.633 72.0325 112.615 76.4981 104.556 76.4981C104.452 76.4981 104.348 76.4972 104.244 76.4957L118.746 84.8849C120.762 86.0506 123.28 84.5934 123.28 82.2624V65.4363Z" fill="black"/>
<path fill-rule="evenodd" clip-rule="evenodd" d="M125.943 55.4729C125.946 55.3411 125.947 55.2094 125.947 55.0773C125.947 47.0221 121.511 40.0048 114.954 36.3438H131.731C134.058 36.3438 135.512 38.8671 134.349 40.886L125.943 55.4729ZM115.589 73.4418C112.368 75.3883 108.593 76.5083 104.557 76.5083C100.557 76.5083 96.8141 75.4083 93.6122 73.4944L101.968 87.9939C103.131 90.0128 106.04 90.0128 107.203 87.9939L115.589 73.4418ZM83.1685 55.3709L74.8216 40.886C73.6581 38.8671 75.1125 36.3438 77.4392 36.3438H94.1601C87.6022 40.0048 83.1664 47.0221 83.1664 55.0773C83.1664 55.1753 83.1673 55.2733 83.1685 55.3709Z" fill="black"/>
<path fill-rule="evenodd" clip-rule="evenodd" d="M137.441 57.6892C139.456 56.5235 139.456 53.6094 137.441 52.444L122.892 44.028C124.83 47.2527 125.945 51.0303 125.945 55.069C125.945 59.1044 124.832 62.8793 122.897 66.1022L137.441 57.6892ZM104.927 76.497C104.803 76.4991 104.679 76.5 104.555 76.5C96.5382 76.5 89.5516 72.0813 85.8887 65.542V82.2643C85.8887 84.5954 88.4076 86.0526 90.4226 84.8869L104.927 76.497ZM104.936 33.6417L90.4226 25.2462C88.4076 24.0806 85.8887 25.5376 85.8887 27.8688V44.5961C89.5516 38.0571 96.5382 33.6384 104.555 33.6384C104.683 33.6384 104.81 33.6393 104.936 33.6417Z" fill="black"/>
<path fill-rule="evenodd" clip-rule="evenodd" d="M107.203 22.1489C106.039 20.13 103.131 20.13 101.967 22.1489L93.6075 36.6566C96.8103 34.7408 100.555 33.64 104.557 33.64C108.595 33.64 112.371 34.7609 115.593 36.7092L107.203 22.1489ZM125.943 54.6699C125.946 54.8032 125.947 54.9371 125.947 55.071C125.947 63.1222 121.515 70.1368 114.963 73.7994H131.731C134.058 73.7994 135.512 71.2757 134.349 69.2568L125.943 54.6699ZM94.1505 73.7994C87.5979 70.1368 83.1666 63.1222 83.1666 55.071C83.1666 54.9712 83.1672 54.8714 83.1684 54.7722L74.8215 69.2568C73.6583 71.2757 75.1124 73.7994 77.4391 73.7994H94.1505Z" fill="black"/>
<path fill-rule="evenodd" clip-rule="evenodd" d="M116.771 40.6431C108.841 33.9033 96.9666 34.8673 90.2229 42.7889C91.5762 41.2328 93.9305 41.0512 95.5061 42.3906C97.0944 43.7407 97.2897 46.125 95.9422 47.7164L95.9425 47.7167C99.9747 42.9547 107.089 42.3586 111.854 46.3745C111.866 46.3852 111.878 46.3955 111.89 46.4062C113.479 47.7562 115.859 47.5606 117.206 45.9692C118.554 44.3778 118.359 41.9935 116.77 40.6431H116.771Z" fill="black"/>
<path fill-rule="evenodd" clip-rule="evenodd" d="M90.1914 42.8303C83.468 50.7699 84.4253 62.6581 92.3191 69.4168L92.3713 69.4612C90.783 68.1111 90.588 65.7265 91.9355 64.1351C93.2809 62.5461 95.6556 62.3487 97.2439 63.6917C92.4931 59.646 91.9049 52.5131 95.9253 47.7414C95.9316 47.7341 95.9377 47.7268 95.9438 47.7195C97.2916 46.1281 97.0963 43.7435 95.508 42.3934C93.9193 41.0433 91.5392 41.239 90.1917 42.8303H90.1914Z" fill="black"/>
<path fill-rule="evenodd" clip-rule="evenodd" d="M92.3725 69.4554V69.4557C100.298 76.1919 112.163 75.2325 118.909 67.3227L118.953 67.271C117.605 68.8627 115.225 69.058 113.637 67.7079C112.048 66.3579 111.853 63.9732 113.201 62.3818C109.162 67.1511 102.033 67.7417 97.2675 63.7051C97.2626 63.7009 97.2578 63.6966 97.2526 63.6924C95.6643 62.3423 93.2842 62.5379 91.9366 64.1293C90.5891 65.7207 90.7844 68.1053 92.3725 69.4554Z" fill="black"/>
<path fill-rule="evenodd" clip-rule="evenodd" d="M116.824 40.6876L116.787 40.6562C118.362 42.0088 118.551 44.3831 117.208 45.9693C115.865 47.5555 113.497 47.7551 111.908 46.4199C116.656 50.4708 117.238 57.6089 113.206 62.3778C113.204 62.38 113.202 62.3824 113.2 62.3848C111.852 63.9762 112.048 66.3608 113.636 67.7109C115.224 69.061 117.604 68.8654 118.952 67.274L118.952 67.2743L118.972 67.2503C125.673 59.3107 124.71 47.4395 116.824 40.6876Z" fill="black"/>
<path d="M20.7923 8.6456C20.7923 9.96913 20.3997 11.0235 19.6144 11.8088C18.732 12.7441 17.5718 13.2118 16.1335 13.2118C14.7571 13.2118 13.5924 12.7353 12.6394 11.7824C11.6865 10.8294 11.21 9.65589 11.21 8.26178C11.21 6.86766 11.6865 5.69414 12.6394 4.7412C13.5924 3.78826 14.7571 3.31179 16.1335 3.31179C16.8306 3.31179 17.4879 3.43532 18.1056 3.68238C18.7232 3.92944 19.2306 4.27797 19.6276 4.72796L18.7541 5.60149C18.4629 5.24855 18.0835 4.97502 17.6159 4.7809C17.1571 4.57796 16.6629 4.47649 16.1335 4.47649C15.1012 4.47649 14.2276 4.83385 13.5129 5.54855C12.8071 6.27208 12.4541 7.17649 12.4541 8.26178C12.4541 9.34707 12.8071 10.2515 13.5129 10.975C14.2276 11.6897 15.1012 12.0471 16.1335 12.0471C17.0776 12.0471 17.8629 11.7824 18.4894 11.2529C19.1159 10.7235 19.4776 9.9956 19.5747 9.06913H16.1335V7.9309H20.7262C20.7703 8.17795 20.7923 8.41619 20.7923 8.6456ZM21.6248 9.75736C21.6248 8.76031 21.938 7.93531 22.5645 7.28237C23.1998 6.62943 23.9983 6.30296 24.9601 6.30296C25.9219 6.30296 26.716 6.62943 27.3424 7.28237C27.9777 7.93531 28.2954 8.76031 28.2954 9.75736C28.2954 10.7632 27.9777 11.5882 27.3424 12.2324C26.716 12.8853 25.9219 13.2118 24.9601 13.2118C23.9983 13.2118 23.1998 12.8853 22.5645 12.2324C21.938 11.5794 21.6248 10.7544 21.6248 9.75736ZM22.8425 9.75736C22.8425 10.4544 23.0454 11.0191 23.4513 11.4515C23.8572 11.8838 24.3601 12.1 24.9601 12.1C25.5601 12.1 26.063 11.8838 26.4689 11.4515C26.8748 11.0191 27.0777 10.4544 27.0777 9.75736C27.0777 9.06913 26.8748 8.50884 26.4689 8.07648C26.0542 7.63531 25.5513 7.41472 24.9601 7.41472C24.3689 7.41472 23.866 7.63531 23.4513 8.07648C23.0454 8.50884 22.8425 9.06913 22.8425 9.75736ZM29.0309 9.75736C29.0309 8.76031 29.3441 7.93531 29.9706 7.28237C30.6059 6.62943 31.4044 6.30296 32.3662 6.30296C33.3279 6.30296 34.122 6.62943 34.7485 7.28237C35.3838 7.93531 35.7014 8.76031 35.7014 9.75736C35.7014 10.7632 35.3838 11.5882 34.7485 12.2324C34.122 12.8853 33.3279 13.2118 32.3662 13.2118C31.4044 13.2118 30.6059 12.8853 29.9706 12.2324C29.3441 11.5794 29.0309 10.7544 29.0309 9.75736ZM30.2485 9.75736C30.2485 10.4544 30.4515 11.0191 30.8573 11.4515C31.2632 11.8838 31.7662 12.1 32.3662 12.1C32.9662 12.1 33.4691 11.8838 33.875 11.4515C34.2809 11.0191 34.4838 10.4544 34.4838 9.75736C34.4838 9.06913 34.2809 8.50884 33.875 8.07648C33.4603 7.63531 32.9573 7.41472 32.3662 7.41472C31.775 7.41472 31.272 7.63531 30.8573 8.07648C30.4515 8.50884 30.2485 9.06913 30.2485 9.75736ZM39.7193 12.1C40.3193 12.1 40.809 11.8838 41.1884 11.4515C41.5854 11.0191 41.784 10.4544 41.784 9.75736C41.784 9.07795 41.5854 8.51766 41.1884 8.07648C40.8002 7.63531 40.3104 7.41472 39.7193 7.41472C39.1369 7.41472 38.6472 7.63531 38.2502 8.07648C37.8531 8.51766 37.6546 9.07795 37.6546 9.75736C37.6546 10.4456 37.8531 11.0059 38.2502 11.4382C38.6472 11.8794 39.1369 12.1 39.7193 12.1ZM39.6796 16.0706C39.3178 16.0706 38.9781 16.0221 38.6605 15.925C38.3428 15.8368 38.0516 15.7088 37.7869 15.5412C37.531 15.3735 37.3105 15.175 37.1252 14.9456C36.9399 14.7162 36.7987 14.4603 36.7016 14.1779L37.8531 13.7015C37.9855 14.0809 38.2149 14.3853 38.5413 14.6147C38.8678 14.8441 39.2472 14.9588 39.6796 14.9588C40.3413 14.9588 40.8575 14.7603 41.2281 14.3632C41.5987 13.9662 41.784 13.4191 41.784 12.7221V12.1H41.731C41.5016 12.4441 41.1884 12.7176 40.7913 12.9206C40.4031 13.1147 39.9796 13.2118 39.5207 13.2118C38.6737 13.2118 37.9457 12.8809 37.3369 12.2191C36.7369 11.5397 36.4369 10.7191 36.4369 9.75736C36.4369 8.7956 36.7369 7.97943 37.3369 7.30884C37.9457 6.63825 38.6737 6.30296 39.5207 6.30296C39.9796 6.30296 40.4031 6.40443 40.7913 6.60737C41.1884 6.80149 41.5016 7.0706 41.731 7.41472H41.784V6.51472H42.9487V12.7221C42.9487 13.7632 42.6531 14.5794 42.0619 15.1706C41.4619 15.7706 40.6678 16.0706 39.6796 16.0706ZM45.6509 3.52356V13H44.4333V3.52356H45.6509ZM49.9818 13.2118C49.0288 13.2118 48.2435 12.8853 47.6259 12.2324C47.0082 11.5794 46.6994 10.7544 46.6994 9.75736C46.6994 8.76913 46.9994 7.94854 47.5994 7.2956C48.1994 6.63384 48.9671 6.30296 49.9024 6.30296C50.8641 6.30296 51.6273 6.61619 52.1921 7.24266C52.7656 7.86031 53.0523 8.72942 53.0523 9.85001L53.0391 9.98236H47.9435C47.9612 10.6177 48.1729 11.1294 48.5788 11.5177C48.9847 11.9059 49.47 12.1 50.0347 12.1C50.8112 12.1 51.42 11.7118 51.8612 10.9353L52.9465 11.4647C52.6553 12.0118 52.2494 12.4397 51.7288 12.7485C51.2171 13.0574 50.6347 13.2118 49.9818 13.2118ZM48.0362 8.97648H51.7553C51.72 8.52648 51.5347 8.1559 51.1994 7.86472C50.8729 7.56472 50.4318 7.41472 49.8759 7.41472C49.4171 7.41472 49.02 7.5559 48.6847 7.83825C48.3582 8.1206 48.1421 8.50001 48.0362 8.97648ZM57.2858 13V3.52356H60.1843C61.6313 3.52356 62.7916 3.96032 63.6652 4.83385C64.5475 5.70737 64.9887 6.85002 64.9887 8.26178C64.9887 9.68236 64.5475 10.8294 63.6652 11.7029C62.7916 12.5676 61.6313 13 60.1843 13H57.2858ZM58.5034 4.68826V11.8353H60.1843C61.2872 11.8353 62.1563 11.5221 62.7916 10.8956C63.4269 10.2603 63.7446 9.38236 63.7446 8.26178C63.7446 7.15002 63.4269 6.27649 62.7916 5.6412C62.1563 5.0059 61.2872 4.68826 60.1843 4.68826H58.5034ZM68.9428 13.2118C67.9899 13.2118 67.2046 12.8853 66.5869 12.2324C65.9693 11.5794 65.6605 10.7544 65.6605 9.75736C65.6605 8.76913 65.9605 7.94854 66.5605 7.2956C67.1605 6.63384 67.9281 6.30296 68.8634 6.30296C69.8252 6.30296 70.5884 6.61619 71.1531 7.24266C71.7266 7.86031 72.0134 8.72942 72.0134 9.85001L72.0002 9.98236H66.9046C66.9222 10.6177 67.134 11.1294 67.5399 11.5177C67.9458 11.9059 68.4311 12.1 68.9958 12.1C69.7722 12.1 70.3811 11.7118 70.8222 10.9353L71.9075 11.4647C71.6163 12.0118 71.2105 12.4397 70.6899 12.7485C70.1781 13.0574 69.5958 13.2118 68.9428 13.2118ZM66.9972 8.97648H70.7163C70.6811 8.52648 70.4958 8.1559 70.1605 7.86472C69.834 7.56472 69.3928 7.41472 68.8369 7.41472C68.3781 7.41472 67.9811 7.5559 67.6458 7.83825C67.3193 8.1206 67.1031 8.50001 66.9972 8.97648ZM76.1477 13H74.93L72.3094 6.51472H73.633L75.5388 11.5441H75.5653L77.4977 6.51472H78.7947L76.1477 13ZM82.3073 13.2118C81.3544 13.2118 80.5691 12.8853 79.9515 12.2324C79.3338 11.5794 79.025 10.7544 79.025 9.75736C79.025 8.76913 79.325 7.94854 79.925 7.2956C80.525 6.63384 81.2926 6.30296 82.2279 6.30296C83.1897 6.30296 83.9529 6.61619 84.5176 7.24266C85.0911 7.86031 85.3779 8.72942 85.3779 9.85001L85.3647 9.98236H80.2691C80.2867 10.6177 80.4985 11.1294 80.9044 11.5177C81.3103 11.9059 81.7956 12.1 82.3603 12.1C83.1367 12.1 83.7456 11.7118 84.1867 10.9353L85.272 11.4647C84.9808 12.0118 84.575 12.4397 84.0544 12.7485C83.5426 13.0574 82.9603 13.2118 82.3073 13.2118ZM80.3617 8.97648H84.0809C84.0456 8.52648 83.8603 8.1559 83.525 7.86472C83.1985 7.56472 82.7573 7.41472 82.2014 7.41472C81.7426 7.41472 81.3456 7.5559 81.0103 7.83825C80.6838 8.1206 80.4676 8.50001 80.3617 8.97648ZM87.7091 3.52356V13H86.4914V3.52356H87.7091ZM88.7576 9.75736C88.7576 8.76031 89.0708 7.93531 89.6973 7.28237C90.3325 6.62943 91.1311 6.30296 92.0928 6.30296C93.0546 6.30296 93.8487 6.62943 94.4752 7.28237C95.1105 7.93531 95.4281 8.76031 95.4281 9.75736C95.4281 10.7632 95.1105 11.5882 94.4752 12.2324C93.8487 12.8853 93.0546 13.2118 92.0928 13.2118C91.1311 13.2118 90.3325 12.8853 89.6973 12.2324C89.0708 11.5794 88.7576 10.7544 88.7576 9.75736ZM89.9752 9.75736C89.9752 10.4544 90.1781 11.0191 90.584 11.4515C90.9899 11.8838 91.4928 12.1 92.0928 12.1C92.6928 12.1 93.1958 11.8838 93.6017 11.4515C94.0075 11.0191 94.2105 10.4544 94.2105 9.75736C94.2105 9.06913 94.0075 8.50884 93.6017 8.07648C93.1869 7.63531 92.684 7.41472 92.0928 7.41472C91.5017 7.41472 90.9987 7.63531 90.584 8.07648C90.1781 8.50884 89.9752 9.06913 89.9752 9.75736ZM99.646 12.1C100.228 12.1 100.718 11.8794 101.115 11.4382C101.512 11.0059 101.711 10.4456 101.711 9.75736C101.711 9.07795 101.512 8.51766 101.115 8.07648C100.718 7.63531 100.228 7.41472 99.646 7.41472C99.0549 7.41472 98.5607 7.63531 98.1637 8.07648C97.7755 8.51766 97.5813 9.07795 97.5813 9.75736C97.5813 10.4456 97.7755 11.0103 98.1637 11.4515C98.5607 11.8838 99.0549 12.1 99.646 12.1ZM99.8446 13.2118C99.3681 13.2118 98.9313 13.1103 98.5343 12.9074C98.146 12.7044 97.846 12.4353 97.6343 12.1H97.5813L97.6343 13V15.8588H96.4166V6.51472H97.5813V7.41472H97.6343C97.846 7.07943 98.146 6.81031 98.5343 6.60737C98.9313 6.40443 99.3681 6.30296 99.8446 6.30296C100.7 6.30296 101.424 6.63825 102.015 7.30884C102.624 7.98825 102.928 8.80442 102.928 9.75736C102.928 10.7191 102.624 11.5353 102.015 12.2059C101.424 12.8765 100.7 13.2118 99.8446 13.2118ZM106.955 13.2118C106.002 13.2118 105.217 12.8853 104.6 12.2324C103.982 11.5794 103.673 10.7544 103.673 9.75736C103.673 8.76913 103.973 7.94854 104.573 7.2956C105.173 6.63384 105.941 6.30296 106.876 6.30296C107.838 6.30296 108.601 6.61619 109.166 7.24266C109.739 7.86031 110.026 8.72942 110.026 9.85001L110.013 9.98236H104.917C104.935 10.6177 105.147 11.1294 105.552 11.5177C105.958 11.9059 106.444 12.1 107.008 12.1C107.785 12.1 108.394 11.7118 108.835 10.9353L109.92 11.4647C109.629 12.0118 109.223 12.4397 108.702 12.7485C108.191 13.0574 107.608 13.2118 106.955 13.2118ZM105.01 8.97648H108.729C108.694 8.52648 108.508 8.1559 108.173 7.86472C107.847 7.56472 107.405 7.41472 106.85 7.41472C106.391 7.41472 105.994 7.5559 105.658 7.83825C105.332 8.1206 105.116 8.50001 105.01 8.97648ZM112.357 13H111.14V6.51472H112.304V7.57354H112.357C112.481 7.22943 112.732 6.93825 113.112 6.70002C113.5 6.45296 113.879 6.32943 114.25 6.32943C114.603 6.32943 114.903 6.38237 115.15 6.48825L114.779 7.66619C114.629 7.60443 114.391 7.57354 114.065 7.57354C113.606 7.57354 113.204 7.75884 112.86 8.12942C112.525 8.50001 112.357 8.93236 112.357 9.42648V13ZM124.517 10.4721C124.517 11.3015 124.212 11.9676 123.604 12.4706C122.986 12.9647 122.236 13.2118 121.354 13.2118C120.568 13.2118 119.876 12.9824 119.276 12.5235C118.676 12.0647 118.261 11.4382 118.032 10.6441L119.196 10.1677C119.276 10.45 119.386 10.7059 119.527 10.9353C119.668 11.1647 119.832 11.3632 120.017 11.5309C120.211 11.6897 120.423 11.8177 120.652 11.9147C120.882 12.0029 121.124 12.0471 121.38 12.0471C121.936 12.0471 122.39 11.9059 122.743 11.6235C123.096 11.3324 123.273 10.9485 123.273 10.4721C123.273 10.075 123.127 9.7353 122.836 9.45295C122.562 9.17942 122.051 8.91472 121.301 8.65884C120.542 8.38531 120.07 8.20001 119.885 8.10295C118.879 7.59119 118.376 6.83678 118.376 5.83973C118.376 5.14267 118.654 4.54708 119.21 4.05297C119.774 3.55885 120.467 3.31179 121.287 3.31179C122.011 3.31179 122.637 3.49708 123.167 3.86767C123.696 4.22944 124.049 4.68385 124.226 5.2309L123.087 5.70737C122.982 5.35443 122.77 5.06326 122.452 4.83385C122.143 4.59561 121.764 4.47649 121.314 4.47649C120.837 4.47649 120.436 4.60885 120.11 4.87355C119.783 5.12061 119.62 5.44267 119.62 5.83973C119.62 6.1662 119.748 6.44855 120.004 6.68678C120.286 6.92502 120.899 7.20737 121.843 7.53384C122.805 7.86031 123.489 8.26178 123.895 8.73825C124.309 9.20589 124.517 9.78383 124.517 10.4721ZM128.002 13.1059C127.473 13.1059 127.032 12.9426 126.679 12.6162C126.335 12.2897 126.158 11.8353 126.149 11.2529V7.62649H125.011V6.51472H126.149V4.52943H127.367V6.51472H128.955V7.62649H127.367V10.8559C127.367 11.2882 127.451 11.5838 127.618 11.7427C127.786 11.8927 127.976 11.9676 128.188 11.9676C128.285 11.9676 128.377 11.9588 128.465 11.9412C128.563 11.9147 128.651 11.8838 128.73 11.8485L129.114 12.9338C128.796 13.0485 128.426 13.1059 128.002 13.1059ZM135.805 13H134.64V12.1H134.587C134.402 12.4176 134.115 12.6824 133.727 12.8941C133.347 13.1059 132.95 13.2118 132.536 13.2118C131.741 13.2118 131.128 12.9868 130.696 12.5368C130.272 12.0779 130.061 11.4294 130.061 10.5912V6.51472H131.278V10.5118C131.305 11.5706 131.838 12.1 132.88 12.1C133.365 12.1 133.771 11.9059 134.097 11.5177C134.424 11.1206 134.587 10.6485 134.587 10.1015V6.51472H135.805V13ZM140.134 12.1C140.734 12.1 141.224 11.8838 141.603 11.4515C142 11.0191 142.199 10.4544 142.199 9.75736C142.199 9.07795 142 8.51766 141.603 8.07648C141.215 7.63531 140.725 7.41472 140.134 7.41472C139.552 7.41472 139.062 7.63531 138.665 8.07648C138.268 8.51766 138.069 9.07795 138.069 9.75736C138.069 10.4456 138.268 11.0059 138.665 11.4382C139.062 11.8794 139.552 12.1 140.134 12.1ZM139.936 13.2118C139.088 13.2118 138.361 12.8765 137.752 12.2059C137.152 11.5265 136.852 10.7103 136.852 9.75736C136.852 8.80442 137.152 7.98825 137.752 7.30884C138.361 6.63825 139.088 6.30296 139.936 6.30296C140.412 6.30296 140.844 6.40443 141.233 6.60737C141.63 6.81031 141.934 7.07943 142.146 7.41472H142.199L142.146 6.51472V3.52356H143.363V13H142.199V12.1H142.146C141.934 12.4353 141.63 12.7044 141.233 12.9074C140.844 13.1103 140.412 13.2118 139.936 13.2118ZM147.695 13.2118C146.742 13.2118 145.957 12.8853 145.339 12.2324C144.722 11.5794 144.413 10.7544 144.413 9.75736C144.413 8.76913 144.713 7.94854 145.313 7.2956C145.913 6.63384 146.68 6.30296 147.616 6.30296C148.578 6.30296 149.341 6.61619 149.905 7.24266C150.479 7.86031 150.766 8.72942 150.766 9.85001L150.753 9.98236H145.657C145.675 10.6177 145.886 11.1294 146.292 11.5177C146.698 11.9059 147.183 12.1 147.748 12.1C148.525 12.1 149.133 11.7118 149.575 10.9353L150.66 11.4647C150.369 12.0118 149.963 12.4397 149.442 12.7485C148.93 13.0574 148.348 13.2118 147.695 13.2118ZM145.75 8.97648H149.469C149.433 8.52648 149.248 8.1559 148.913 7.86472C148.586 7.56472 148.145 7.41472 147.589 7.41472C147.13 7.41472 146.733 7.5559 146.398 7.83825C146.072 8.1206 145.855 8.50001 145.75 8.97648ZM151.879 6.51472H153.044V7.41472H153.097C153.282 7.09707 153.565 6.83237 153.944 6.62061C154.332 6.40884 154.734 6.30296 155.148 6.30296C155.943 6.30296 156.551 6.53237 156.975 6.99119C157.407 7.44119 157.623 8.08531 157.623 8.92354V13H156.406V9.00295C156.379 7.94413 155.845 7.41472 154.804 7.41472C154.319 7.41472 153.913 7.61325 153.587 8.01031C153.26 8.39854 153.097 8.86619 153.097 9.41324V13H151.879V6.51472ZM161.284 13.1059C160.755 13.1059 160.314 12.9426 159.961 12.6162C159.617 12.2897 159.44 11.8353 159.431 11.2529V7.62649H158.293V6.51472H159.431V4.52943H160.649V6.51472H162.237V7.62649H160.649V10.8559C160.649 11.2882 160.733 11.5838 160.9 11.7427C161.068 11.8927 161.258 11.9676 161.47 11.9676C161.567 11.9676 161.659 11.9588 161.748 11.9412C161.845 11.9147 161.933 11.8838 162.012 11.8485L162.396 12.9338C162.078 13.0485 161.708 13.1059 161.284 13.1059ZM170.717 13.2118C169.314 13.2118 168.141 12.7397 167.197 11.7956C166.261 10.8515 165.794 9.67354 165.794 8.26178C165.794 6.85002 166.261 5.67649 167.197 4.7412C168.132 3.78826 169.305 3.31179 170.717 3.31179C172.147 3.31179 173.307 3.82797 174.198 4.86032L173.325 5.70737C172.645 4.88679 171.776 4.47649 170.717 4.47649C169.667 4.47649 168.789 4.82943 168.083 5.53531C167.386 6.23237 167.038 7.14119 167.038 8.26178C167.038 9.38236 167.386 10.2912 168.083 10.9882C168.789 11.6941 169.667 12.0471 170.717 12.0471C171.82 12.0471 172.777 11.5838 173.589 10.6574L174.476 11.5177C174.026 12.0559 173.475 12.475 172.822 12.775C172.169 13.0662 171.467 13.2118 170.717 13.2118ZM176.776 3.52356V13H175.558V3.52356H176.776ZM183.95 13H182.786V12.1H182.733C182.548 12.4176 182.261 12.6824 181.873 12.8941C181.493 13.1059 181.096 13.2118 180.681 13.2118C179.887 13.2118 179.274 12.9868 178.842 12.5368C178.418 12.0779 178.206 11.4294 178.206 10.5912V6.51472H179.424V10.5118C179.451 11.5706 179.984 12.1 181.026 12.1C181.511 12.1 181.917 11.9059 182.243 11.5177C182.57 11.1206 182.733 10.6485 182.733 10.1015V6.51472H183.95V13ZM188.861 13.2118C188.384 13.2118 187.947 13.1103 187.55 12.9074C187.162 12.7044 186.862 12.4353 186.65 12.1H186.597V13H185.433V3.52356H186.65V6.51472L186.597 7.41472H186.65C186.862 7.07943 187.162 6.81031 187.55 6.60737C187.947 6.40443 188.384 6.30296 188.861 6.30296C189.717 6.30296 190.44 6.63825 191.031 7.30884C191.64 7.98825 191.944 8.80442 191.944 9.75736C191.944 10.7191 191.64 11.5353 191.031 12.2059C190.44 12.8765 189.717 13.2118 188.861 13.2118ZM188.662 12.1C189.244 12.1 189.734 11.8794 190.131 11.4382C190.528 11.0059 190.727 10.4456 190.727 9.75736C190.727 9.07795 190.528 8.51766 190.131 8.07648C189.734 7.63531 189.244 7.41472 188.662 7.41472C188.071 7.41472 187.577 7.63531 187.18 8.07648C186.792 8.51766 186.597 9.07795 186.597 9.75736C186.597 10.4456 186.792 11.0103 187.18 11.4515C187.577 11.8838 188.071 12.1 188.662 12.1ZM197.957 11.2C197.957 11.7647 197.71 12.2412 197.216 12.6294C196.722 13.0176 196.1 13.2118 195.35 13.2118C194.697 13.2118 194.123 13.0441 193.629 12.7088C193.135 12.3647 192.782 11.9147 192.57 11.3588L193.656 10.8956C193.814 11.2838 194.044 11.5882 194.344 11.8088C194.653 12.0206 194.988 12.1265 195.35 12.1265C195.738 12.1265 196.06 12.0426 196.316 11.875C196.581 11.7074 196.713 11.5088 196.713 11.2794C196.713 10.8647 196.395 10.5603 195.76 10.3662L194.648 10.0882C193.387 9.7706 192.756 9.16178 192.756 8.26178C192.756 7.6706 192.994 7.19855 193.47 6.8456C193.956 6.48384 194.573 6.30296 195.323 6.30296C195.897 6.30296 196.413 6.43972 196.872 6.71325C197.339 6.98678 197.666 7.35296 197.851 7.81178L196.766 8.26178C196.642 7.98825 196.439 7.77648 196.157 7.62649C195.884 7.46766 195.575 7.38825 195.231 7.38825C194.913 7.38825 194.626 7.46766 194.37 7.62649C194.123 7.78531 194 7.97943 194 8.20884C194 8.57942 194.348 8.84413 195.045 9.00295L196.025 9.25442C197.313 9.57207 197.957 10.2206 197.957 11.2Z" fill="black"/>
</svg>
