<svg width="48" height="48" viewBox="0 0 48 48" fill="none" xmlns="http://www.w3.org/2000/svg">
<path d="M44.8865 10.3281L44.8932 10.3351L44.9 10.3419C45.4351 10.8806 45.8575 11.862 46.1479 12.8462C46.2862 13.3152 46.3832 13.7441 46.4454 14.0557C46.4764 14.2109 46.4985 14.3356 46.5127 14.4198C46.5197 14.4619 46.5247 14.4938 46.5279 14.5142L46.5305 14.531L46.5307 14.5326L46.5342 14.5624C46.5376 14.5905 46.5426 14.6328 46.5489 14.6883C46.5617 14.7995 46.58 14.9635 46.6021 15.173C46.6462 15.5919 46.7052 16.1917 46.7643 16.9118C46.8826 18.3546 47 20.2681 47 22.1715V25.809C47 27.7171 46.8826 29.6306 46.7643 31.0721C46.7052 31.7915 46.6462 32.3905 46.6021 32.8087C46.58 33.0177 46.5617 33.1814 46.549 33.2923C46.5449 33.3273 46.5415 33.357 46.5386 33.3812C46.537 33.3953 46.5355 33.4076 46.5343 33.418L46.5307 33.4477L46.5305 33.4493L46.5279 33.4662C46.5247 33.4867 46.5197 33.5186 46.5127 33.5607C46.4985 33.6449 46.4764 33.7696 46.4454 33.9248C46.3832 34.2364 46.2862 34.6653 46.1479 35.1342C45.8575 36.1185 45.4351 37.0999 44.9 37.6385L44.8932 37.6454L44.8865 37.6524C43.5051 39.0975 42.0302 39.2466 41.0122 39.3494C40.9047 39.3603 40.8024 39.3706 40.7057 39.3819C37.3802 39.618 33.2129 39.7414 29.8636 39.8057C28.1874 39.8378 26.7202 39.855 25.6723 39.8643C25.1484 39.8689 24.7294 39.8714 24.4416 39.8729C24.2977 39.8736 24.1866 39.874 24.1116 39.8743L24.0265 39.8745L24.0051 39.8746L24.0002 39.8746L23.9735 39.8743L23.8688 39.8733L23.4672 39.8691C23.1192 39.8653 22.6175 39.8595 22.0035 39.8514C20.7752 39.8352 19.0979 39.8097 17.301 39.7729C13.7175 39.6994 9.71376 39.5814 7.81786 39.4052C7.56838 39.3592 7.29997 39.3247 7.01846 39.2886C5.80149 39.1325 4.33971 38.945 3.10412 37.6524L3.09857 37.6466L3.09293 37.6409C2.5612 37.1022 2.14063 36.1201 1.85123 35.1353C1.71336 34.6661 1.61662 34.2369 1.55449 33.9252C1.52354 33.7699 1.50146 33.6451 1.48735 33.5608C1.4803 33.5187 1.47526 33.4868 1.47211 33.4663L1.46932 33.4479L1.46576 33.4181C1.46241 33.39 1.45744 33.3477 1.45106 33.2921C1.43832 33.181 1.41998 33.0169 1.39791 32.8075C1.35377 32.3886 1.29476 31.7887 1.23572 31.0687C1.11742 29.6259 1 27.7124 1 25.809V22.1715C1 20.2688 1.11968 18.3559 1.24027 16.9134C1.30046 16.1935 1.36061 15.5938 1.40561 15.175C1.4281 14.9656 1.44679 14.8016 1.45978 14.6905C1.46628 14.635 1.47135 14.5927 1.47475 14.5646L1.47858 14.5333L1.47873 14.5321L1.48178 14.5115C1.48487 14.4911 1.48982 14.4592 1.49675 14.4172C1.51062 14.333 1.53238 14.2084 1.56296 14.0532C1.62435 13.7417 1.72019 13.313 1.85739 12.8442C2.14541 11.8601 2.56566 10.8798 3.10002 10.3419L3.10682 10.3351L3.1135 10.3281C4.49487 8.88296 5.96983 8.73392 6.98778 8.63106C7.09553 8.62018 7.19816 8.60981 7.29502 8.59847C10.6195 8.35785 14.7837 8.23673 18.1306 8.17601C19.8055 8.14562 21.2714 8.13042 22.3183 8.12283C22.8417 8.11903 23.2603 8.11713 23.5478 8.11618C23.6915 8.11571 23.8025 8.11547 23.8774 8.11535L23.9623 8.11525L23.9837 8.11524L23.989 8.11523L23.9903 8.11523H23.9906L23.9906 7.11523V8.11523H24.0094V7.11523L24.0094 8.11523H24.0097L24.011 8.11523L24.0163 8.11524L24.0377 8.11525L24.1226 8.11535C24.1975 8.11547 24.3085 8.11571 24.4522 8.11618C24.7397 8.11713 25.1583 8.11903 25.6817 8.12283C26.7286 8.13042 28.1945 8.14562 29.8694 8.17601C33.2163 8.23673 37.3805 8.35785 40.705 8.59847C40.8018 8.60981 40.9045 8.62018 41.0122 8.63106C42.0302 8.73392 43.5051 8.88296 44.8865 10.3281ZM18.0406 30.2246V31.8694L19.5009 31.1124L32.4665 24.3905L34.173 23.5058L32.469 22.6163L19.5034 15.8475L18.0406 15.0839V16.734V30.2246Z" stroke="black" stroke-width="2"/>
</svg>
