<svg width="1019" height="435" viewBox="0 0 1019 435" fill="none" xmlns="http://www.w3.org/2000/svg">
<path fill-rule="evenodd" clip-rule="evenodd" d="M217.378 0.0410156C337.432 0.0410156 434.756 97.3643 434.756 217.419C434.756 337.474 337.432 434.797 217.378 434.797C97.3234 434.797 0 337.474 0 217.419C0 97.3643 97.3234 0.0410156 217.378 0.0410156ZM265.623 175.807L295.153 226.957L295.603 227.737L309.443 219.747L257.413 129.626L242.383 217.327C241.973 219.677 241.773 222.057 241.783 224.447C241.793 226.797 242.003 229.187 242.433 231.557C242.853 233.896 243.463 236.207 244.283 238.457C245.083 240.657 246.083 242.807 247.283 244.887C250.073 249.717 253.693 253.777 257.873 256.977C262.203 260.307 267.133 262.707 272.323 264.097C277.513 265.487 282.983 265.867 288.403 265.157C293.623 264.467 298.793 262.767 303.623 259.977L311.603 255.367L325.823 279.997H273.433V295.937C277.702 295.937 285.301 295.939 293.978 295.942C315.626 295.949 343.977 295.958 344.013 295.937C345.023 295.937 345.943 295.677 346.723 295.227C347.563 294.737 348.243 294.047 348.713 293.227C349.183 292.407 349.443 291.467 349.443 290.507C349.443 289.597 349.213 288.677 348.713 287.807L317.403 233.577L295.683 246.117L295.633 246.146C289.583 249.637 282.703 250.347 276.453 248.677C273.263 247.817 270.243 246.347 267.593 244.316C265.043 242.356 262.813 239.867 261.103 236.896C260.343 235.577 259.713 234.237 259.213 232.887C258.703 231.487 258.323 230.097 258.073 228.707C257.813 227.277 257.683 225.827 257.683 224.367C257.673 222.896 257.803 221.437 258.043 220.007L265.623 175.807ZM187.223 144.527L186.783 145.297L157.263 196.437L199.333 180.896C200.693 180.396 202.013 179.767 203.293 179.027C204.553 178.287 205.743 177.457 206.853 176.517C207.933 175.606 208.953 174.577 209.903 173.437C210.823 172.336 211.673 171.117 212.433 169.797C214.153 166.827 215.193 163.657 215.613 160.467C216.053 157.157 215.813 153.807 214.963 150.617C213.283 144.367 209.223 138.757 203.183 135.267L203.133 135.237L181.413 122.697L212.723 68.4668C213.233 67.6064 213.913 66.9365 214.703 66.4868C215.533 65.9966 216.483 65.7568 217.423 65.7568C218.363 65.7466 219.303 65.9966 220.143 66.4766C220.923 66.9268 221.603 67.5864 222.113 68.4668C222.14 68.4873 235.029 90.8247 245.609 109.16C250.569 117.756 255.022 125.473 257.403 129.597L243.603 137.566L217.403 92.1968L203.183 116.827L211.163 121.437C215.993 124.227 220.053 127.847 223.253 132.027C226.583 136.367 228.983 141.297 230.373 146.487C231.763 151.677 232.143 157.146 231.433 162.566C230.743 167.787 229.043 172.957 226.253 177.787C225.053 179.856 223.693 181.797 222.183 183.597C220.653 185.427 218.953 187.117 217.133 188.657C215.283 190.217 213.333 191.586 211.293 192.777C209.233 193.977 207.063 194.997 204.823 195.827L121.353 226.657L173.383 136.537L187.223 144.527ZM169.363 279.977H170.253V279.987H229.293L194.803 251.327C193.683 250.396 192.483 249.557 191.203 248.827C189.943 248.106 188.623 247.487 187.253 246.997C185.923 246.517 184.523 246.146 183.063 245.896C181.643 245.657 180.173 245.527 178.643 245.527C175.213 245.527 171.943 246.207 168.973 247.437C165.893 248.717 163.103 250.597 160.773 252.927C156.203 257.497 153.373 263.816 153.373 270.797V270.856V295.937H90.7529C89.7429 295.937 88.8329 295.667 88.0429 295.217C87.2029 294.737 86.5229 294.047 86.0529 293.227C85.5829 292.417 85.3229 291.477 85.3229 290.507C85.3229 289.606 85.5529 288.687 86.0629 287.807C86.0629 287.762 101.31 261.371 112.258 242.42C116.101 235.769 119.415 230.034 121.353 226.677L135.153 234.646L108.953 280.017H137.393V270.797C137.393 265.217 138.513 259.887 140.523 255.027C142.623 249.967 145.683 245.427 149.483 241.626C153.283 237.827 157.833 234.757 162.883 232.667C167.743 230.646 173.073 229.537 178.653 229.537C181.053 229.537 183.413 229.747 185.723 230.157C188.083 230.577 190.393 231.197 192.633 232.007C194.903 232.827 197.063 233.836 199.113 235.007C201.183 236.197 203.143 237.557 204.983 239.086L273.423 295.957H169.363V279.977Z" fill="#000040"/>
<path fill-rule="evenodd" clip-rule="evenodd" d="M660.253 109.727H539.953L518.723 228.797H558.103C566.713 216.797 575.333 211.566 591.023 211.566C614.403 211.566 628.253 229.406 628.253 251.866C628.253 273.406 613.793 293.396 591.023 293.396C571.643 293.396 557.793 280.476 555.643 261.086H511.953C512.873 306.316 550.103 329.387 591.943 329.387C635.013 330.307 671.933 296.157 671.933 251.857C671.933 211.557 647.933 178.637 605.473 178.637C588.243 178.637 575.323 183.256 563.323 195.246L562.703 194.626L571.313 145.706H660.223V109.727H660.253ZM730.463 105.417H686.773V141.417H730.463V105.417ZM686.773 325.096H730.463V166.027H686.773V325.096ZM756.363 325.096H800.053V253.406C800.053 225.106 810.823 202.336 843.123 202.336C848.353 202.336 854.813 202.946 858.813 203.876V163.266C855.733 162.346 852.663 161.727 849.273 161.727C827.433 161.727 806.813 175.576 798.513 195.566H797.893V166.027H756.363V325.096ZM903.493 228.487C904.413 216.177 911.493 194.646 939.793 194.646C961.023 194.646 970.563 206.337 974.563 228.487H903.493ZM1018.25 256.177C1021.63 207.257 995.173 161.727 941.033 161.727C892.733 161.727 859.813 198.026 859.813 245.716C859.813 294.946 890.883 329.396 941.033 329.396C977.033 329.396 1003.18 313.706 1015.48 275.866H977.023C974.253 285.706 960.103 296.477 942.563 296.477C917.953 296.477 904.723 284.167 903.493 256.177H1018.25Z" fill="#000040"/>
</svg>
