<svg width="602" height="415" viewBox="0 0 602 415" fill="none" xmlns="http://www.w3.org/2000/svg">
<path d="M122.245 128.259H6.94376C4.48367 128.259 2.48804 126.263 2.48804 123.803C2.48804 121.343 4.48367 119.348 6.94376 119.348H122.245C124.706 119.348 126.701 121.343 126.701 123.803C126.701 126.263 124.706 128.259 122.245 128.259Z" fill="#FBBC04"/>
<path d="M334.711 9.12399H259.593C257.074 9.12399 255.031 7.08113 255.031 4.562C255.031 2.04286 257.074 0 259.593 0H334.711C337.23 0 339.273 2.04286 339.273 4.562C339.273 7.08113 337.23 9.12399 334.711 9.12399Z" fill="#F5B80D"/>
<path d="M58.2863 187.056H45.0333C41.5498 187.056 38.7275 184.229 38.7275 180.746V168.304C38.7275 164.82 41.5498 161.998 45.0333 161.998H58.2863C61.7698 161.998 64.5959 164.82 64.5959 168.304V180.746C64.5959 184.229 61.7698 187.056 58.2863 187.056Z" fill="#4285F4"/>
<path d="M486.97 414.071H479.74C477.838 414.071 476.299 412.532 476.299 410.63V403.841C476.299 401.939 477.838 400.4 479.74 400.4H486.97C488.871 400.4 490.414 401.939 490.414 403.841V410.63C490.414 412.532 488.871 414.071 486.97 414.071Z" fill="#FBBC04"/>
<path d="M573.557 118.1H566.326C564.425 118.1 562.886 116.561 562.886 114.66V107.87C562.886 105.969 564.425 104.43 566.326 104.43H573.557C575.458 104.43 576.997 105.969 576.997 107.87V114.66C576.997 116.561 575.458 118.1 573.557 118.1Z" fill="#4285F4"/>
<path d="M67.8871 327.854L31.3714 346.771L41.8927 351.868L28.8286 367.487L39.0232 375.831L51.6386 359.059L60.1013 368.128L67.8871 327.854Z" fill="#FBDC86"/>
<path d="M195.04 406.55H152.373C149.212 406.55 146.653 403.987 146.653 400.831C146.653 397.67 149.212 395.107 152.373 395.107H195.04C198.197 395.107 200.76 397.67 200.76 400.831C200.76 403.987 198.197 406.55 195.04 406.55Z" fill="#FBBC04"/>
<path d="M468.863 366.018H125.245C121.265 366.018 118.042 362.79 118.042 358.811V72.6133C118.042 68.6339 121.265 65.4062 125.245 65.4062H468.863C472.843 65.4062 476.07 68.6339 476.07 72.6133V358.811C476.07 362.79 472.843 366.018 468.863 366.018Z" fill="#34A853"/>
<path d="M118.042 101.594H476.07" stroke="#FCFBED" stroke-width="2.84696" stroke-miterlimit="10"/>
<path d="M468.863 366.025H125.245C121.265 366.025 118.042 362.798 118.042 358.818V72.621C118.042 68.6416 121.265 65.4139 125.245 65.4139H468.863C472.842 65.4139 476.07 68.6416 476.07 72.621V358.818C476.07 362.798 472.842 366.025 468.863 366.025Z" stroke="#FCFBED" stroke-width="2.84696" stroke-miterlimit="10"/>
<path d="M153.353 83.8738C153.353 86.6606 151.093 88.9199 148.306 88.9199C145.52 88.9199 143.26 86.6606 143.26 83.8738C143.26 81.0831 145.52 78.8237 148.306 78.8237C151.093 78.8237 153.353 81.0831 153.353 83.8738Z" stroke="#FCFBED" stroke-width="2.84696" stroke-miterlimit="10"/>
<path d="M172.97 83.8738C172.97 86.6606 170.711 88.9199 167.924 88.9199C165.133 88.9199 162.874 86.6606 162.874 83.8738C162.874 81.0831 165.133 78.8237 167.924 78.8237C170.711 78.8237 172.97 81.0831 172.97 83.8738Z" stroke="#FCFBED" stroke-width="2.84696" stroke-miterlimit="10"/>
<path d="M192.588 83.8738C192.588 86.6606 190.325 88.9199 187.538 88.9199C184.752 88.9199 182.492 86.6606 182.492 83.8738C182.492 81.0831 184.752 78.8237 187.538 78.8237C190.325 78.8237 192.588 81.0831 192.588 83.8738Z" stroke="#FCFBED" stroke-width="2.84696" stroke-miterlimit="10"/>
<path d="M192.368 311.852H10.435C4.67246 311.852 0.000244141 307.18 0.000244141 301.418V233.972C0.000244141 228.213 4.67246 223.541 10.435 223.541H192.368C198.13 223.541 202.803 228.213 202.803 233.972V301.418C202.803 307.18 198.13 311.852 192.368 311.852Z" fill="#DB4437"/>
<path d="M24.5979 239.93C24.5979 242.051 22.8778 243.768 20.7562 243.768C18.6346 243.768 16.9146 242.051 16.9146 239.93C16.9146 237.808 18.6346 236.088 20.7562 236.088C22.8778 236.088 24.5979 237.808 24.5979 239.93Z" stroke="#FCFBED" stroke-width="2.16594" stroke-miterlimit="10"/>
<path d="M39.519 239.93C39.519 242.051 37.7989 243.768 35.6773 243.768C33.5597 243.768 31.8396 242.051 31.8396 239.93C31.8396 237.808 33.5597 236.088 35.6773 236.088C37.7989 236.088 39.519 237.808 39.519 239.93Z" stroke="#FCFBED" stroke-width="2.16594" stroke-miterlimit="10"/>
<path d="M54.4448 239.93C54.4448 242.051 52.7247 243.768 50.6032 243.768C48.4816 243.768 46.7615 242.051 46.7615 239.93C46.7615 237.808 48.4816 236.088 50.6032 236.088C52.7247 236.088 54.4448 237.808 54.4448 239.93Z" stroke="#FCFBED" stroke-width="2.16594" stroke-miterlimit="10"/>
<path d="M0 254.477H202.802" stroke="#FCFBED" stroke-width="2.16594" stroke-miterlimit="10"/>
<path d="M519.34 111.434H437.72C430.907 111.434 425.388 105.911 425.388 99.0977V33.2617C425.388 26.4482 430.907 20.9258 437.72 20.9258H519.34C526.15 20.9258 531.672 26.4482 531.672 33.2617V99.0977C531.672 105.911 526.15 111.434 519.34 111.434Z" fill="#DB4437"/>
<path d="M471.823 43.9164C463.99 43.9164 457.618 50.2851 457.618 58.118C457.618 65.951 463.99 72.3236 471.823 72.3236C479.656 72.3236 486.025 65.951 486.025 58.118C486.025 50.2851 479.656 43.9164 471.823 43.9164ZM471.823 76.4841C461.695 76.4841 453.457 68.2457 453.457 58.118C453.457 47.9942 461.695 39.752 471.823 39.752C481.947 39.752 490.189 47.9942 490.189 58.118C490.189 68.2457 481.947 76.4841 471.823 76.4841Z" fill="white"/>
<path d="M487.269 76.5401L481.845 71.12L484.789 68.1758L490.209 73.5998L487.269 76.5401Z" fill="white"/>
<path d="M492.999 72.8258L503.729 83.5597C504.867 84.6972 504.867 86.5433 503.729 87.6808L501.344 90.0661C500.206 91.2037 498.36 91.2037 497.223 90.0661L486.489 79.3362C485.351 78.1987 485.351 76.3526 486.489 75.2151L488.878 72.8258C490.016 71.6883 491.862 71.6883 492.999 72.8258Z" fill="white"/>
<path d="M86.8862 83.0712H39.9751C32.1146 83.0712 25.738 76.6947 25.738 68.8303V29.0515C25.738 21.1871 32.1146 14.8105 39.9751 14.8105H86.8862C94.7506 14.8105 101.127 21.1871 101.127 29.0515V68.8303C101.127 76.6947 94.7506 83.0712 86.8862 83.0712Z" fill="#4285F4"/>
<path d="M63.4319 36.515C57.2718 36.515 52.2611 41.5257 52.2611 47.6858C52.2611 53.8459 57.2718 58.8566 63.4319 58.8566C69.5919 58.8566 74.6027 53.8459 74.6027 47.6858C74.6027 41.5257 69.5919 36.515 63.4319 36.515ZM63.4319 63.6547C54.6267 63.6547 47.4629 56.4909 47.4629 47.6858C47.4629 38.8806 54.6267 31.7129 63.4319 31.7129C72.241 31.7129 79.4008 38.8806 79.4008 47.6858C79.4008 56.4909 72.241 63.6547 63.4319 63.6547Z" fill="#FCFBED"/>
<path d="M72.8462 36.5061L54.5312 58.8477" stroke="#FCFBED" stroke-width="6.63233" stroke-miterlimit="10"/>
<path d="M588.553 323.223H418.622C411.359 323.223 405.475 317.335 405.475 310.077V183.274C405.475 176.011 411.359 170.127 418.622 170.127H588.553C595.815 170.127 601.7 176.011 601.7 183.274V310.077C601.7 317.335 595.815 323.223 588.553 323.223Z" fill="#4285F4"/>
<path d="M455.196 276.335H468.753V267.801H474.562V256.623H468.753V228.393H452.126L430.95 257.599L432.068 267.801H455.196V276.335ZM444.852 256.623L455.196 242.232V256.623H444.852Z" fill="white"/>
<path d="M501.469 277.163C514.741 277.163 524.11 266.897 524.11 252.286C524.11 237.754 514.741 227.473 501.469 227.473C488.18 227.473 478.812 237.754 478.812 252.286C478.812 266.897 488.18 277.163 501.469 277.163ZM501.469 264.866C496.368 264.866 492.793 259.623 492.793 252.286C492.793 244.949 496.368 239.769 501.469 239.769C506.57 239.769 510.128 244.949 510.128 252.286C510.128 259.623 506.57 264.866 501.469 264.866Z" fill="white"/>
<path d="M551.854 276.335H565.41V267.801H571.22V256.623H565.41V228.393H548.784L527.607 257.599L528.725 267.801H551.854V276.335ZM541.51 256.623L551.854 242.232V256.623H541.51Z" fill="white"/>
<path d="M429.502 184.573C429.502 186.628 427.837 188.293 425.782 188.293C423.727 188.293 422.062 186.628 422.062 184.573C422.062 182.519 423.727 180.854 425.782 180.854C427.837 180.854 429.502 182.519 429.502 184.573Z" stroke="#FCFBED" stroke-width="2.09796" stroke-miterlimit="10"/>
<path d="M443.959 184.573C443.959 186.628 442.294 188.293 440.239 188.293C438.184 188.293 436.519 186.628 436.519 184.573C436.519 182.519 438.184 180.854 440.239 180.854C442.294 180.854 443.959 182.519 443.959 184.573Z" stroke="#FCFBED" stroke-width="2.09796" stroke-miterlimit="10"/>
<path d="M458.412 184.573C458.412 186.628 456.747 188.293 454.693 188.293C452.638 188.293 450.973 186.628 450.973 184.573C450.973 182.519 452.638 180.854 454.693 180.854C456.747 180.854 458.412 182.519 458.412 184.573Z" stroke="#FCFBED" stroke-width="2.09796" stroke-miterlimit="10"/>
<path d="M405.475 200.072H601.7" stroke="#FCFBED" stroke-width="2.09796" stroke-miterlimit="10"/>
<path d="M324.168 260.622L323.42 250.641L260.395 253.698V263.33C260.395 263.33 246.22 276.641 240.627 365.206H354.075C354.075 365.206 366.521 286.824 324.168 260.622Z" fill="black" fill-opacity="0.25"/>
<path d="M191.496 241.319L208.906 184.586L247.205 198.756L228.831 253.091C225.064 264.312 212.071 269.607 201.384 264.273C192.862 260.022 188.686 250.329 191.496 241.319Z" fill="black" fill-opacity="0.25"/>
<path d="M218.356 154.293C221.804 143.232 233.833 137.179 244.925 140.92C255.71 144.553 261.516 156.092 257.934 166.773L247.204 198.76L208.905 184.591L218.356 154.293Z" fill="black" fill-opacity="0.25"/>
<path d="M221.064 237.057L177.322 155.191C177.322 155.191 178.322 140.399 153.425 139.514L153.433 139.537C153.095 139.521 152.756 139.49 152.418 139.49H144.097C142.55 139.49 141.145 140.566 140.932 142.078C140.688 143.826 141.928 145.33 143.593 145.536L151.989 146.705L140.57 149.716L138.437 150.493L122.889 140.353C121.653 139.479 119.917 139.883 119.205 141.208C118.642 142.245 118.894 143.531 119.811 144.285C120.767 145.077 122.314 146.383 123.995 147.82L120.566 145.792C119.26 145.019 117.563 145.555 116.957 146.934C116.481 148.015 116.839 149.273 117.811 149.957C118.65 150.54 119.732 151.29 120.877 152.086L119.685 151.628C118.378 151.123 116.827 151.488 116.032 152.626C114.946 154.177 115.595 156.282 117.319 156.993L134.308 164.014C137.244 165.226 140.046 165.984 143.495 165.176L158.641 161.652L192.531 255.283L221.064 237.057Z" fill="black" fill-opacity="0.25"/>
<path d="M252.404 140.006L236.144 141.207C236.144 141.207 212.602 172.728 260.395 253.686L323.42 250.628L328.171 163.403L320.389 138.643H292.151L252.404 140.006Z" fill="black" fill-opacity="0.25"/>
<path d="M380.25 229.937L354.075 176.58L318.488 196.484L345.234 247.315C350.729 257.821 364.399 261.05 374.114 254.134C381.856 248.617 384.446 238.399 380.25 229.937Z" fill="black" fill-opacity="0.25"/>
<path d="M339.948 148.113C334.792 137.72 321.952 133.594 311.588 138.998C301.508 144.251 297.599 156.54 302.83 166.541L318.488 196.485L354.075 176.58L339.948 148.113Z" fill="black" fill-opacity="0.25"/>
<path d="M434.884 138.643C434.085 137.505 432.538 137.144 431.228 137.645L423.627 140.574L430.767 134.61C431.952 133.624 432.282 131.879 431.389 130.628C430.362 129.198 428.397 128.981 427.091 130.018L420.446 135.298L426.111 127.99C427.051 126.774 427 124.998 425.855 123.969C424.544 122.788 422.576 122.99 421.525 124.279L410.342 135.733L398.924 132.726L407.319 131.553C408.984 131.351 410.228 129.843 409.98 128.095C409.768 126.583 408.362 125.511 406.816 125.511H398.495C393.582 125.511 388.784 127.205 385.147 130.426C385.084 130.473 385.029 130.504 384.966 130.554C379.861 134.529 381.719 142.672 381.719 142.672L350.367 230.278L381.435 243.88L399.349 149.802L410.787 149.825C411.496 149.887 412.208 149.887 412.921 149.829H413.003L412.999 149.825C414.227 149.713 415.444 149.429 416.605 148.951L433.593 143.014C435.317 142.299 435.967 140.194 434.884 138.643Z" fill="black" fill-opacity="0.25"/>
<path d="M251.14 67.7466C249.18 69.0714 236.041 72.4439 235.781 74.7983C235.781 74.7983 240.103 91.4778 235.675 94.5899C223.705 103.005 219.875 119.502 219.875 119.502C219.875 119.502 251.451 142.845 335.394 118.337C335.394 118.337 336.397 108.41 321.133 101.207C316.772 99.1513 312.903 96.0508 310.45 91.8392C308.557 88.5794 308.266 87.1963 307.766 84.2706C306.361 76.0883 283.492 45.8414 251.14 67.7466Z" fill="black" fill-opacity="0.25"/>
<path d="M252.38 92.75C252.766 98.2243 248.582 102.972 243.039 103.353C237.489 103.734 232.683 99.6036 232.298 94.1292C231.912 88.6549 236.092 83.911 241.638 83.5302C247.184 83.1495 251.994 87.2795 252.38 92.75Z" fill="black" fill-opacity="0.25"/>
<path d="M256.931 117.08L258.321 138.69C258.793 146.278 261.938 151.449 269.503 150.928C275.959 150.485 283.642 145.38 283.996 139.001L280.147 105.098L256.931 117.08Z" fill="black" fill-opacity="0.25"/>
<path d="M252.404 140.006L292.151 138.643C292.151 138.643 291.183 157.929 267.562 156.122C251.14 154.867 252.404 140.006 252.404 140.006Z" fill="black" fill-opacity="0.25"/>
<path d="M263.59 120.586C250.656 120.625 239.977 110.57 239.587 100.146L238.828 75.5402C238.344 62.4779 248.444 51.3854 261.661 50.4763C275.186 49.5477 289.289 59.459 290.23 72.8088L290.624 92.6043C290.931 107.912 279.067 119.522 263.59 120.586Z" fill="black" fill-opacity="0.25"/>
<path d="M269.664 46.2415C266.44 46.0706 263.189 46.4203 260.068 47.2401C252.321 49.2759 238.411 54.9407 236.026 69.627C235.231 73.5006 235.782 74.7983 235.782 74.7983C235.782 74.7983 261.764 75.8007 277.123 68.644C279.335 77.8832 281.378 83.5985 290.624 92.5968L298.831 80.4203L308.073 88.5988C308.132 88.9097 308.12 48.258 269.664 46.2415Z" fill="black" fill-opacity="0.25"/>
<path d="M304.105 92.8417C304.491 98.3161 300.307 103.064 294.761 103.441C289.215 103.825 284.405 99.6954 284.019 94.221C283.634 88.7467 287.818 83.9989 293.364 83.6181C298.91 83.2373 303.72 87.3674 304.105 92.8417Z" fill="black" fill-opacity="0.25"/>
<path d="M315.762 259.135L315.014 249.023L251.989 252.121V261.879C251.989 261.879 237.815 275.364 232.221 365.089H345.669C345.669 365.089 358.115 285.681 315.762 259.135Z" fill="#406DB5"/>
<path d="M251.989 261.883L315.763 259.139" stroke="#120E59" stroke-width="2.27564" stroke-miterlimit="10"/>
<path d="M265.021 303.243L278.085 308.561L285.076 365.084" stroke="#120E59" stroke-width="2.27564" stroke-miterlimit="10"/>
<path d="M183.09 239.587L200.5 182.111L238.799 196.466L220.425 251.514C216.658 262.881 203.664 268.246 192.978 262.842C184.456 258.536 180.28 248.715 183.09 239.587Z" fill="#FEC6A0"/>
<path d="M209.951 151.424C213.399 140.218 225.428 134.086 236.52 137.876C247.305 141.557 253.111 153.247 249.529 164.067L238.799 196.474L200.5 182.119L209.951 151.424Z" fill="#FCFBED"/>
<path d="M212.659 235.278L168.916 152.34C168.916 152.34 169.916 137.355 145.02 136.457L145.028 136.481C144.689 136.465 144.351 136.434 144.012 136.434H135.691C134.144 136.434 132.739 137.524 132.527 139.055C132.283 140.826 133.522 142.35 135.187 142.558L143.583 143.743L132.164 146.794L130.031 147.581L114.483 137.307C113.247 136.422 111.511 136.831 110.799 138.173C110.236 139.224 110.488 140.527 111.405 141.291C112.362 142.094 113.909 143.416 115.589 144.873L112.161 142.818C110.854 142.035 109.158 142.578 108.551 143.975C108.075 145.07 108.433 146.345 109.406 147.038C110.244 147.628 111.326 148.388 112.472 149.195L111.279 148.73C109.972 148.218 108.422 148.588 107.626 149.742C106.54 151.312 107.19 153.446 108.914 154.166L125.902 161.279C128.838 162.507 131.641 163.274 135.089 162.455L150.235 158.885L184.126 253.743L212.659 235.278Z" fill="#FEC6A0"/>
<path d="M194.706 201.237L202.802 216.584L194.706 201.237Z" fill="#EDAC81"/>
<path d="M194.706 201.237L202.802 216.584" stroke="#EDAC81" stroke-width="2.2" stroke-miterlimit="10"/>
<path d="M243.999 136.954L227.738 138.17C227.738 138.17 204.196 170.104 251.989 252.122L315.015 249.024L319.766 160.657L311.984 135.572H283.746L243.999 136.954Z" fill="#FCFBED"/>
<path d="M225.542 191.5C225.542 191.5 220.854 181.636 223.865 159.786" stroke="#FCDDD6" stroke-width="2.27564" stroke-miterlimit="10"/>
<path d="M371.845 228.059L345.67 174.004L310.083 194.169L336.829 245.665C342.324 256.309 355.994 259.58 365.708 252.573C373.451 246.984 376.041 236.632 371.845 228.059Z" fill="#FEC6A0"/>
<path d="M331.542 145.152C326.386 134.623 313.546 130.443 303.182 135.918C293.102 141.24 289.193 153.69 294.424 163.821L310.082 194.157L345.669 173.992L331.542 145.152Z" fill="#FCFBED"/>
<path d="M310.082 194.166L297.152 169.116" stroke="#FCDDD6" stroke-width="2.27564" stroke-miterlimit="10"/>
<path d="M426.478 135.576C425.679 134.423 424.132 134.057 422.822 134.565L415.221 137.532L422.361 131.49C423.546 130.491 423.876 128.723 422.983 127.456C421.956 126.007 419.991 125.787 418.685 126.838L412.04 132.187L417.705 124.783C418.645 123.551 418.594 121.752 417.449 120.709C416.138 119.513 414.17 119.717 413.119 121.024L401.936 132.628L390.518 129.581L398.913 128.393C400.578 128.188 401.822 126.661 401.574 124.89C401.362 123.358 399.956 122.272 398.41 122.272H390.089C385.176 122.272 380.378 123.988 376.741 127.251C376.678 127.298 376.623 127.33 376.56 127.381C371.455 131.408 373.313 139.658 373.313 139.658L341.961 228.41L373.029 242.191L390.943 146.881L402.381 146.904C403.09 146.967 403.802 146.967 404.515 146.908H404.597L404.593 146.904C405.821 146.79 407.038 146.503 408.199 146.019L425.187 140.004C426.911 139.28 427.561 137.147 426.478 135.576Z" fill="#FEC6A0"/>
<path d="M354.143 191.502L347.373 215.135L354.143 191.502Z" fill="#EDAC81"/>
<path d="M354.143 191.502L347.373 215.135" stroke="#EDAC81" stroke-width="2.2" stroke-miterlimit="10"/>
<path d="M242.735 63.7473C240.775 65.0896 227.636 68.5061 227.376 70.8914C227.376 70.8914 231.698 87.7893 227.27 90.9422C215.3 99.4679 211.47 116.181 211.47 116.181C211.47 116.181 243.046 139.829 326.988 115C326.988 115 327.992 104.943 312.728 97.6454C308.367 95.5632 304.497 92.4222 302.045 88.1554C300.152 84.853 299.86 83.4517 299.361 80.4878C297.955 72.1982 275.086 41.5553 242.735 63.7473Z" fill="#120E59"/>
<path d="M243.975 89.0663C244.36 94.6123 240.176 99.4223 234.634 99.8081C229.084 100.194 224.278 96.0097 223.892 90.4637C223.507 84.9176 227.687 80.1116 233.233 79.7258C238.779 79.3401 243.589 83.5242 243.975 89.0663Z" fill="#EDAC81"/>
<path d="M248.525 113.733L249.915 135.626C250.387 143.313 253.532 148.552 261.097 148.025C267.553 147.576 275.236 142.404 275.59 135.941L271.741 101.594L248.525 113.733Z" fill="#FEC6A0"/>
<path d="M243.998 136.954L283.745 135.572C283.745 135.572 282.777 155.111 259.156 153.281C242.735 152.01 243.998 136.954 243.998 136.954Z" fill="#FEC6A0"/>
<path d="M249.671 131.765L275.074 106.928L248.336 111.486L249.671 131.765Z" fill="#EDAC81"/>
<path d="M255.185 117.269C242.251 117.308 231.572 107.121 231.182 96.5604L230.422 71.6328C229.938 58.3995 240.038 47.1618 253.256 46.2407C266.781 45.3 280.884 55.3411 281.825 68.8657L282.218 88.9204C282.525 104.429 270.662 116.19 255.185 117.269Z" fill="#FEC6A0"/>
<path d="M244.75 87.7841L243.998 93.9718L247.198 94.0898" stroke="#FFB17D" stroke-width="1.81647" stroke-miterlimit="10" stroke-linecap="round" stroke-linejoin="round"/>
<path d="M257.527 72.6754C257.527 72.6754 250.379 72.0889 250.308 74.9977C250.308 74.9977 250.316 76.9658 256.547 77.3555C262.782 77.7451 264.403 77.2886 264.974 75.4386C265.541 73.5886 260.876 72.6911 257.527 72.6754Z" fill="#120E59"/>
<path d="M236.807 76.9258C236.807 76.9258 242.219 76.4889 242.731 79.1064C242.731 79.1064 243.034 80.8738 238.295 81.1454C233.552 81.417 232.084 80.8305 231.997 79.3308C231.891 77.5477 234.229 76.8983 236.807 76.9258Z" fill="#120E59"/>
<path d="M239.952 85.4203C239.991 86.6799 239.003 87.7387 237.74 87.782C236.476 87.8213 235.421 86.8294 235.378 85.5699C235.338 84.3064 236.326 83.2475 237.59 83.2082C238.853 83.1688 239.908 84.1568 239.952 85.4203Z" fill="#1D0228"/>
<path d="M259.153 84.7855C259.196 86.049 258.204 87.1039 256.944 87.1472C255.681 87.1866 254.622 86.1986 254.583 84.9351C254.539 83.6716 255.531 82.6167 256.791 82.5734C258.054 82.534 259.113 83.522 259.153 84.7855Z" fill="#1D0228"/>
<path d="M252.465 98.3853C252.465 98.3853 249.083 96.8463 245.002 100.369" stroke="black" stroke-width="1.81647" stroke-miterlimit="10" stroke-linecap="round" stroke-linejoin="round"/>
<path d="M261.258 41.955C258.034 41.7818 254.783 42.1361 251.662 42.9666C243.915 45.0291 230.005 50.768 227.62 65.6467C226.825 69.571 227.376 70.8857 227.376 70.8857C227.376 70.8857 253.358 71.9012 268.717 64.6508C270.929 74.011 272.972 79.801 282.218 88.9172L290.425 76.5813L299.667 84.8669C299.726 85.1818 299.714 43.9978 261.258 41.955Z" fill="#120E59"/>
<path d="M295.7 89.1581C296.085 94.7042 291.901 99.5142 286.355 99.896C280.809 100.286 275.999 96.1015 275.614 90.5555C275.228 85.0094 279.412 80.1995 284.958 79.8137C290.504 79.428 295.314 83.6121 295.7 89.1581Z" fill="#FEC6A0"/>
<path d="M281.813 92.7539C281.813 92.7539 281.305 85.476 288.347 86.1372" stroke="#FFB17D" stroke-width="1.81647" stroke-miterlimit="10" stroke-linecap="round" stroke-linejoin="round"/>
<path d="M429.852 405.915H310.448C306.666 405.915 303.6 402.831 303.6 399.027V354.501C303.6 350.7 306.666 347.615 310.448 347.615H429.852C433.633 347.615 436.7 350.7 436.7 354.501V399.027C436.7 402.831 433.633 405.915 429.852 405.915Z" fill="#DB4437"/>
<path d="M320.101 358.058C320.101 359.578 318.869 360.807 317.351 360.807C315.832 360.807 314.601 359.578 314.601 358.058C314.601 356.539 315.832 355.307 317.351 355.307C318.869 355.307 320.101 356.539 320.101 358.058Z" fill="#DB4437" stroke="#FCFBED" stroke-width="2.16594" stroke-miterlimit="10"/>
<path d="M330.001 358.058C330.001 359.578 328.769 360.807 327.25 360.807C325.733 360.807 324.501 359.578 324.501 358.058C324.501 356.539 325.733 355.307 327.25 355.307C328.769 355.307 330.001 356.539 330.001 358.058Z" fill="#DB4437" stroke="#FCFBED" stroke-width="2.16594" stroke-miterlimit="10"/>
<path d="M338.8 358.058C338.8 359.578 337.815 360.807 336.6 360.807C335.385 360.807 334.4 359.578 334.4 358.058C334.4 356.539 335.385 355.307 336.6 355.307C337.815 355.307 338.8 356.539 338.8 358.058Z" fill="#DB4437" stroke="#FCFBED" stroke-width="2.16594" stroke-miterlimit="10"/>
<path d="M303.6 367.412H436.7H303.6Z" fill="#DB4437"/>
<path d="M303.6 367.412H436.7" stroke="#FCFBED" stroke-width="2.16594" stroke-miterlimit="10"/>
<path d="M28.9216 275.277V276.915H22.853V281.141H28.3259V282.742H22.853V286.967H28.9216V288.605H21.1404V275.277H28.9216ZM30.7501 279.484H32.3883V280.75H32.4627C32.7233 280.303 33.1205 279.931 33.6541 279.633C34.2002 279.335 34.7648 279.186 35.3481 279.186C36.465 279.186 37.3213 279.509 37.917 280.154C38.5251 280.787 38.8292 281.693 38.8292 282.872V288.605H37.1166V282.984C37.0793 281.494 36.3285 280.75 34.8641 280.75C34.1815 280.75 33.6107 281.029 33.1515 281.587C32.6923 282.134 32.4627 282.791 32.4627 283.561V288.605H30.7501V279.484ZM41.9958 285.813C41.9958 286.26 42.182 286.632 42.5543 286.93C42.939 287.228 43.3858 287.377 43.8946 287.377C44.6144 287.377 45.2535 287.11 45.812 286.576C46.3829 286.043 46.6683 285.416 46.6683 284.696C46.1347 284.274 45.39 284.063 44.4345 284.063C43.7395 284.063 43.1562 284.231 42.6846 284.566C42.2254 284.901 41.9958 285.317 41.9958 285.813ZM44.2111 279.186C45.4769 279.186 46.4759 279.527 47.2081 280.21C47.9404 280.88 48.3065 281.805 48.3065 282.984V288.605H46.6683V287.34H46.5938C45.8865 288.382 44.9433 288.903 43.7643 288.903C42.7591 288.903 41.9152 288.605 41.2326 288.01C40.5625 287.414 40.2274 286.669 40.2274 285.776C40.2274 284.833 40.5811 284.082 41.2885 283.523C42.0082 282.965 42.9638 282.686 44.1552 282.686C45.1729 282.686 46.0106 282.872 46.6683 283.244V282.853C46.6683 282.258 46.4325 281.755 45.9609 281.345C45.4893 280.924 44.9371 280.713 44.3041 280.713C43.3486 280.713 42.5915 281.116 42.0331 281.923L40.5252 280.973C41.3567 279.782 42.5853 279.186 44.2111 279.186ZM55.0595 288.903C54.3893 288.903 53.775 288.761 53.2165 288.475C52.6705 288.19 52.2485 287.811 51.9507 287.34H51.8762V288.605H50.2381V275.277H51.9507V279.484L51.8762 280.75H51.9507C52.2485 280.278 52.6705 279.9 53.2165 279.614C53.775 279.329 54.3893 279.186 55.0595 279.186C56.2633 279.186 57.2809 279.658 58.1124 280.601C58.9687 281.556 59.3969 282.704 59.3969 284.045C59.3969 285.397 58.9687 286.545 58.1124 287.489C57.2809 288.432 56.2633 288.903 55.0595 288.903ZM54.7802 287.34C55.5993 287.34 56.2881 287.029 56.8465 286.409C57.405 285.801 57.6842 285.013 57.6842 284.045C57.6842 283.089 57.405 282.301 56.8465 281.681C56.2881 281.06 55.5993 280.75 54.7802 280.75C53.9488 280.75 53.2538 281.06 52.6953 281.681C52.1493 282.301 51.8762 283.089 51.8762 284.045C51.8762 285.013 52.1493 285.807 52.6953 286.427C53.2538 287.036 53.9488 287.34 54.7802 287.34ZM62.5855 275.277V288.605H60.8729V275.277H62.5855ZM68.6768 288.903C67.3365 288.903 66.232 288.444 65.3632 287.526C64.4945 286.607 64.0602 285.447 64.0602 284.045C64.0602 282.655 64.4821 281.501 65.326 280.582C66.1699 279.651 67.2496 279.186 68.5651 279.186C69.9178 279.186 70.9913 279.627 71.7855 280.508C72.5922 281.376 72.9955 282.599 72.9955 284.175L72.9769 284.361H65.81C65.8348 285.255 66.1327 285.974 66.7035 286.521C67.2744 287.067 67.957 287.34 68.7512 287.34C69.8433 287.34 70.6996 286.794 71.3202 285.701L72.8466 286.446C72.4371 287.216 71.8662 287.817 71.134 288.252C70.4142 288.686 69.5951 288.903 68.6768 288.903ZM65.9403 282.946H71.1712C71.1216 282.313 70.861 281.792 70.3894 281.383C69.9302 280.961 69.3097 280.75 68.5278 280.75C67.8825 280.75 67.3241 280.948 66.8525 281.345C66.3933 281.743 66.0892 282.276 65.9403 282.946ZM86.8055 279.484L81.0906 292.626H79.3222L81.4443 288.028L77.684 279.484H79.5455L82.2634 286.037H82.3006L84.944 279.484H86.8055ZM87.0385 284.045C87.0385 282.642 87.4791 281.482 88.3602 280.564C89.2537 279.645 90.3769 279.186 91.7296 279.186C93.0823 279.186 94.1992 279.645 95.0804 280.564C95.9739 281.482 96.4207 282.642 96.4207 284.045C96.4207 285.459 95.9739 286.62 95.0804 287.526C94.1992 288.444 93.0823 288.903 91.7296 288.903C90.3769 288.903 89.2537 288.444 88.3602 287.526C87.4791 286.607 87.0385 285.447 87.0385 284.045ZM88.7511 284.045C88.7511 285.025 89.0366 285.819 89.6074 286.427C90.1783 287.036 90.8857 287.34 91.7296 287.34C92.5735 287.34 93.2809 287.036 93.8517 286.427C94.4226 285.819 94.7081 285.025 94.7081 284.045C94.7081 283.077 94.4226 282.289 93.8517 281.681C93.2685 281.06 92.5611 280.75 91.7296 280.75C90.8981 280.75 90.1907 281.06 89.6074 281.681C89.0366 282.289 88.7511 283.077 88.7511 284.045ZM105.89 288.605H104.252V287.34H104.177C103.917 287.786 103.514 288.159 102.967 288.457C102.434 288.754 101.875 288.903 101.292 288.903C100.175 288.903 99.3126 288.587 98.7045 287.954C98.1088 287.309 97.811 286.396 97.811 285.217V279.484H99.5236V285.106C99.5608 286.595 100.312 287.34 101.776 287.34C102.459 287.34 103.03 287.067 103.489 286.521C103.948 285.962 104.177 285.298 104.177 284.529V279.484H105.89V288.605ZM109.687 288.605H107.975V279.484H109.613V280.973H109.687C109.861 280.489 110.215 280.08 110.749 279.745C111.295 279.397 111.828 279.223 112.349 279.223C112.846 279.223 113.268 279.298 113.615 279.447L113.094 281.103C112.883 281.017 112.548 280.973 112.089 280.973C111.444 280.973 110.879 281.234 110.395 281.755C109.923 282.276 109.687 282.884 109.687 283.579V288.605ZM120.54 275.277V288.605H118.828V275.277H120.54ZM122.015 284.045C122.015 282.642 122.456 281.482 123.337 280.564C124.23 279.645 125.353 279.186 126.706 279.186C128.059 279.186 129.176 279.645 130.057 280.564C130.95 281.482 131.397 282.642 131.397 284.045C131.397 285.459 130.95 286.62 130.057 287.526C129.176 288.444 128.059 288.903 126.706 288.903C125.353 288.903 124.23 288.444 123.337 287.526C122.456 286.607 122.015 285.447 122.015 284.045ZM123.728 284.045C123.728 285.025 124.013 285.819 124.584 286.427C125.155 287.036 125.862 287.34 126.706 287.34C127.55 287.34 128.257 287.036 128.828 286.427C129.399 285.819 129.685 285.025 129.685 284.045C129.685 283.077 129.399 282.289 128.828 281.681C128.245 281.06 127.538 280.75 126.706 280.75C125.875 280.75 125.167 281.06 124.584 281.681C124.013 282.289 123.728 283.077 123.728 284.045ZM137.123 288.903C135.77 288.903 134.647 288.444 133.753 287.526C132.872 286.583 132.432 285.422 132.432 284.045C132.432 282.642 132.872 281.482 133.753 280.564C134.647 279.645 135.77 279.186 137.123 279.186C138.054 279.186 138.866 279.422 139.561 279.893C140.256 280.353 140.778 280.992 141.125 281.811L139.561 282.462C139.077 281.321 138.227 280.75 137.011 280.75C136.229 280.75 135.553 281.066 134.982 281.699C134.424 282.332 134.144 283.114 134.144 284.045C134.144 284.975 134.424 285.757 134.982 286.39C135.553 287.023 136.229 287.34 137.011 287.34C138.265 287.34 139.146 286.769 139.654 285.627L141.181 286.279C140.846 287.098 140.318 287.743 139.599 288.215C138.891 288.674 138.066 288.903 137.123 288.903ZM143.835 285.813C143.835 286.26 144.021 286.632 144.394 286.93C144.778 287.228 145.225 287.377 145.734 287.377C146.454 287.377 147.093 287.11 147.651 286.576C148.222 286.043 148.508 285.416 148.508 284.696C147.974 284.274 147.229 284.063 146.274 284.063C145.579 284.063 144.995 284.231 144.524 284.566C144.065 284.901 143.835 285.317 143.835 285.813ZM146.05 279.186C147.316 279.186 148.315 279.527 149.047 280.21C149.78 280.88 150.146 281.805 150.146 282.984V288.605H148.508V287.34H148.433C147.726 288.382 146.782 288.903 145.604 288.903C144.598 288.903 143.754 288.605 143.072 288.01C142.402 287.414 142.067 286.669 142.067 285.776C142.067 284.833 142.42 284.082 143.128 283.523C143.847 282.965 144.803 282.686 145.994 282.686C147.012 282.686 147.85 282.872 148.508 283.244V282.853C148.508 282.258 148.272 281.755 147.8 281.345C147.329 280.924 146.776 280.713 146.143 280.713C145.188 280.713 144.431 281.116 143.872 281.923L142.364 280.973C143.196 279.782 144.425 279.186 146.05 279.186ZM155.507 288.754C154.762 288.754 154.142 288.525 153.645 288.066C153.161 287.606 152.913 286.967 152.901 286.148V281.048H151.3V279.484H152.901V276.692H154.613V279.484H156.847V281.048H154.613V285.59C154.613 286.198 154.731 286.614 154.967 286.837C155.203 287.048 155.47 287.153 155.768 287.153C155.904 287.153 156.034 287.141 156.158 287.116C156.295 287.079 156.419 287.036 156.531 286.986L157.071 288.512C156.624 288.674 156.103 288.754 155.507 288.754ZM160.782 276.338C160.782 276.673 160.665 276.958 160.429 277.194C160.193 277.43 159.908 277.548 159.572 277.548C159.237 277.548 158.952 277.43 158.716 277.194C158.48 276.958 158.362 276.673 158.362 276.338C158.362 276.003 158.48 275.717 158.716 275.482C158.952 275.246 159.237 275.128 159.572 275.128C159.908 275.128 160.193 275.246 160.429 275.482C160.665 275.717 160.782 276.003 160.782 276.338ZM160.429 279.484V288.605H158.716V279.484H160.429ZM162.045 284.045C162.045 282.642 162.486 281.482 163.367 280.564C164.261 279.645 165.384 279.186 166.736 279.186C168.089 279.186 169.206 279.645 170.087 280.564C170.981 281.482 171.428 282.642 171.428 284.045C171.428 285.459 170.981 286.62 170.087 287.526C169.206 288.444 168.089 288.903 166.736 288.903C165.384 288.903 164.261 288.444 163.367 287.526C162.486 286.607 162.045 285.447 162.045 284.045ZM163.758 284.045C163.758 285.025 164.043 285.819 164.614 286.427C165.185 287.036 165.893 287.34 166.736 287.34C167.58 287.34 168.288 287.036 168.859 286.427C169.43 285.819 169.715 285.025 169.715 284.045C169.715 283.077 169.43 282.289 168.859 281.681C168.275 281.06 167.568 280.75 166.736 280.75C165.905 280.75 165.198 281.06 164.614 281.681C164.043 282.289 163.758 283.077 163.758 284.045ZM172.801 279.484H174.44V280.75H174.514C174.775 280.303 175.172 279.931 175.705 279.633C176.252 279.335 176.816 279.186 177.399 279.186C178.516 279.186 179.373 279.509 179.968 280.154C180.576 280.787 180.881 281.693 180.881 282.872V288.605H179.168V282.984C179.131 281.494 178.38 280.75 176.915 280.75C176.233 280.75 175.662 281.029 175.203 281.587C174.744 282.134 174.514 282.791 174.514 283.561V288.605H172.801V279.484Z" fill="white"/>
<path d="M322.849 388.393C321.566 388.393 320.494 387.961 319.63 387.098C318.775 386.235 318.348 385.158 318.348 383.867C318.348 382.577 318.775 381.504 319.63 380.649C320.486 379.778 321.558 379.342 322.849 379.342C324.156 379.342 325.217 379.814 326.031 380.758L325.233 381.532C324.612 380.782 323.817 380.407 322.849 380.407C321.889 380.407 321.086 380.729 320.441 381.375C319.804 382.012 319.485 382.843 319.485 383.867C319.485 384.892 319.804 385.723 320.441 386.36C321.086 387.005 321.889 387.328 322.849 387.328C323.857 387.328 324.733 386.905 325.475 386.058L326.285 386.844C325.874 387.336 325.37 387.719 324.773 387.994C324.176 388.26 323.535 388.393 322.849 388.393ZM327.275 379.536H328.388V382.27L328.339 383.093H328.388C328.557 382.803 328.815 382.561 329.162 382.367C329.517 382.173 329.884 382.077 330.263 382.077C330.989 382.077 331.546 382.286 331.933 382.706C332.328 383.117 332.526 383.706 332.526 384.472V388.199H331.413V384.69C331.413 383.625 330.941 383.093 329.997 383.093C329.545 383.093 329.162 383.283 328.848 383.662C328.541 384.033 328.388 384.468 328.388 384.969V388.199H327.275V379.536ZM333.494 385.235C333.494 384.323 333.78 383.569 334.353 382.972C334.934 382.375 335.664 382.077 336.543 382.077C337.422 382.077 338.148 382.375 338.721 382.972C339.302 383.569 339.592 384.323 339.592 385.235C339.592 386.154 339.302 386.909 338.721 387.497C338.148 388.094 337.422 388.393 336.543 388.393C335.664 388.393 334.934 388.094 334.353 387.497C333.78 386.9 333.494 386.146 333.494 385.235ZM334.607 385.235C334.607 385.872 334.793 386.388 335.164 386.784C335.535 387.179 335.995 387.376 336.543 387.376C337.092 387.376 337.551 387.179 337.923 386.784C338.294 386.388 338.479 385.872 338.479 385.235C338.479 384.606 338.294 384.093 337.923 383.698C337.543 383.295 337.084 383.093 336.543 383.093C336.003 383.093 335.543 383.295 335.164 383.698C334.793 384.093 334.607 384.606 334.607 385.235ZM340.265 385.235C340.265 384.323 340.551 383.569 341.124 382.972C341.705 382.375 342.435 382.077 343.314 382.077C344.193 382.077 344.919 382.375 345.492 382.972C346.073 383.569 346.363 384.323 346.363 385.235C346.363 386.154 346.073 386.909 345.492 387.497C344.919 388.094 344.193 388.393 343.314 388.393C342.435 388.393 341.705 388.094 341.124 387.497C340.551 386.9 340.265 386.146 340.265 385.235ZM341.378 385.235C341.378 385.872 341.563 386.388 341.935 386.784C342.306 387.179 342.765 387.376 343.314 387.376C343.862 387.376 344.322 387.179 344.693 386.784C345.064 386.388 345.25 385.872 345.25 385.235C345.25 384.606 345.064 384.093 344.693 383.698C344.314 383.295 343.854 383.093 343.314 383.093C342.773 383.093 342.314 383.295 341.935 383.698C341.563 384.093 341.378 384.606 341.378 385.235ZM351.853 386.554C351.853 387.07 351.627 387.505 351.175 387.86C350.723 388.215 350.155 388.393 349.469 388.393C348.872 388.393 348.348 388.24 347.896 387.933C347.444 387.618 347.122 387.207 346.928 386.699L347.92 386.275C348.065 386.63 348.275 386.909 348.549 387.11C348.832 387.304 349.138 387.401 349.469 387.401C349.824 387.401 350.118 387.324 350.352 387.171C350.594 387.017 350.715 386.836 350.715 386.626C350.715 386.247 350.425 385.969 349.844 385.791L348.828 385.537C347.674 385.247 347.097 384.69 347.097 383.867C347.097 383.327 347.315 382.895 347.751 382.573C348.195 382.242 348.759 382.077 349.445 382.077C349.969 382.077 350.441 382.202 350.861 382.452C351.288 382.702 351.587 383.037 351.756 383.456L350.764 383.867C350.651 383.617 350.465 383.424 350.207 383.287C349.957 383.141 349.675 383.069 349.36 383.069C349.07 383.069 348.808 383.141 348.574 383.287C348.348 383.432 348.235 383.609 348.235 383.819C348.235 384.158 348.553 384.4 349.191 384.545L350.086 384.775C351.264 385.065 351.853 385.658 351.853 386.554ZM355.543 388.393C354.672 388.393 353.954 388.094 353.389 387.497C352.824 386.9 352.542 386.146 352.542 385.235C352.542 384.331 352.816 383.581 353.365 382.984C353.913 382.379 354.615 382.077 355.47 382.077C356.349 382.077 357.047 382.363 357.563 382.936C358.088 383.5 358.35 384.295 358.35 385.319L358.338 385.44H353.679C353.696 386.021 353.889 386.489 354.26 386.844C354.631 387.199 355.075 387.376 355.591 387.376C356.301 387.376 356.858 387.021 357.261 386.312L358.253 386.796C357.987 387.296 357.616 387.687 357.14 387.969C356.672 388.252 356.14 388.393 355.543 388.393ZM353.764 384.521H357.164C357.132 384.109 356.963 383.771 356.656 383.504C356.358 383.23 355.954 383.093 355.446 383.093C355.027 383.093 354.664 383.222 354.357 383.48C354.059 383.738 353.861 384.085 353.764 384.521ZM367.326 382.27L363.612 390.813H362.462L363.842 387.824L361.397 382.27H362.607L364.374 386.529H364.398L366.116 382.27H367.326ZM367.478 385.235C367.478 384.323 367.764 383.569 368.337 382.972C368.918 382.375 369.648 382.077 370.527 382.077C371.406 382.077 372.132 382.375 372.705 382.972C373.286 383.569 373.576 384.323 373.576 385.235C373.576 386.154 373.286 386.909 372.705 387.497C372.132 388.094 371.406 388.393 370.527 388.393C369.648 388.393 368.918 388.094 368.337 387.497C367.764 386.9 367.478 386.146 367.478 385.235ZM368.591 385.235C368.591 385.872 368.777 386.388 369.148 386.784C369.519 387.179 369.979 387.376 370.527 387.376C371.076 387.376 371.535 387.179 371.907 386.784C372.278 386.388 372.463 385.872 372.463 385.235C372.463 384.606 372.278 384.093 371.907 383.698C371.527 383.295 371.068 383.093 370.527 383.093C369.987 383.093 369.527 383.295 369.148 383.698C368.777 384.093 368.591 384.606 368.591 385.235ZM379.731 388.199H378.667V387.376H378.618C378.449 387.667 378.187 387.909 377.832 388.102C377.485 388.296 377.122 388.393 376.743 388.393C376.017 388.393 375.456 388.187 375.061 387.776C374.674 387.356 374.48 386.763 374.48 385.997V382.27H375.593V385.924C375.617 386.892 376.105 387.376 377.057 387.376C377.501 387.376 377.872 387.199 378.171 386.844C378.469 386.481 378.618 386.049 378.618 385.549V382.27H379.731V388.199ZM382.2 388.199H381.087V382.27H382.151V383.238H382.2C382.313 382.924 382.543 382.657 382.889 382.44C383.244 382.214 383.591 382.101 383.93 382.101C384.253 382.101 384.527 382.149 384.753 382.246L384.414 383.323C384.277 383.266 384.059 383.238 383.761 383.238C383.341 383.238 382.974 383.408 382.66 383.746C382.353 384.085 382.2 384.48 382.2 384.932V388.199ZM389.254 388.199H388.141V382.27H389.206V383.238H389.254C389.367 382.924 389.597 382.657 389.944 382.44C390.299 382.214 390.646 382.101 390.984 382.101C391.307 382.101 391.581 382.149 391.807 382.246L391.468 383.323C391.331 383.266 391.114 383.238 390.815 383.238C390.396 383.238 390.029 383.408 389.714 383.746C389.407 384.085 389.254 384.48 389.254 384.932V388.199ZM394.832 388.393C393.961 388.393 393.243 388.094 392.679 387.497C392.114 386.9 391.832 386.146 391.832 385.235C391.832 384.331 392.106 383.581 392.654 382.984C393.203 382.379 393.905 382.077 394.76 382.077C395.639 382.077 396.337 382.363 396.853 382.936C397.377 383.5 397.64 384.295 397.64 385.319L397.627 385.44H392.969C392.985 386.021 393.179 386.489 393.55 386.844C393.921 387.199 394.364 387.376 394.881 387.376C395.591 387.376 396.147 387.021 396.551 386.312L397.543 386.796C397.277 387.296 396.905 387.687 396.43 387.969C395.962 388.252 395.429 388.393 394.832 388.393ZM393.054 384.521H396.454C396.421 384.109 396.252 383.771 395.946 383.504C395.647 383.23 395.244 383.093 394.736 383.093C394.316 383.093 393.953 383.222 393.647 383.48C393.348 383.738 393.15 384.085 393.054 384.521ZM401.379 387.376C401.927 387.376 402.375 387.179 402.722 386.784C403.085 386.388 403.266 385.872 403.266 385.235C403.266 384.614 403.085 384.101 402.722 383.698C402.367 383.295 401.919 383.093 401.379 383.093C400.846 383.093 400.399 383.295 400.036 383.698C399.673 384.101 399.491 384.614 399.491 385.235C399.491 385.864 399.673 386.376 400.036 386.771C400.399 387.175 400.846 387.376 401.379 387.376ZM401.342 391.006C401.012 391.006 400.701 390.962 400.411 390.873C400.12 390.793 399.854 390.676 399.612 390.522C399.378 390.369 399.176 390.188 399.007 389.978C398.838 389.768 398.709 389.534 398.62 389.276L399.673 388.841C399.794 389.187 400.003 389.466 400.302 389.675C400.6 389.885 400.947 389.99 401.342 389.99C401.947 389.99 402.419 389.809 402.758 389.446C403.097 389.083 403.266 388.582 403.266 387.945V387.376H403.218C403.008 387.691 402.722 387.941 402.359 388.127C402.004 388.304 401.617 388.393 401.197 388.393C400.423 388.393 399.757 388.09 399.201 387.485C398.652 386.864 398.378 386.114 398.378 385.235C398.378 384.355 398.652 383.609 399.201 382.996C399.757 382.383 400.423 382.077 401.197 382.077C401.617 382.077 402.004 382.169 402.359 382.355C402.722 382.532 403.008 382.778 403.218 383.093H403.266V382.27H404.331V387.945C404.331 388.897 404.061 389.643 403.52 390.184C402.972 390.732 402.246 391.006 401.342 391.006ZM407.128 380.225C407.128 380.443 407.052 380.629 406.898 380.782C406.745 380.935 406.559 381.012 406.342 381.012C406.124 381.012 405.938 380.935 405.785 380.782C405.632 380.629 405.555 380.443 405.555 380.225C405.555 380.008 405.632 379.822 405.785 379.669C405.938 379.515 406.124 379.439 406.342 379.439C406.559 379.439 406.745 379.515 406.898 379.669C407.052 379.822 407.128 380.008 407.128 380.225ZM406.898 382.27V388.199H405.785V382.27H406.898ZM407.949 385.235C407.949 384.323 408.235 383.569 408.808 382.972C409.389 382.375 410.119 382.077 410.998 382.077C411.878 382.077 412.604 382.375 413.176 382.972C413.757 383.569 414.048 384.323 414.048 385.235C414.048 386.154 413.757 386.909 413.176 387.497C412.604 388.094 411.878 388.393 410.998 388.393C410.119 388.393 409.389 388.094 408.808 387.497C408.235 386.9 407.949 386.146 407.949 385.235ZM409.062 385.235C409.062 385.872 409.248 386.388 409.619 386.784C409.99 387.179 410.45 387.376 410.998 387.376C411.547 387.376 412.007 387.179 412.378 386.784C412.749 386.388 412.934 385.872 412.934 385.235C412.934 384.606 412.749 384.093 412.378 383.698C411.999 383.295 411.539 383.093 410.998 383.093C410.458 383.093 409.998 383.295 409.619 383.698C409.248 384.093 409.062 384.606 409.062 385.235ZM414.941 382.27H416.005V383.093H416.054C416.223 382.803 416.481 382.561 416.828 382.367C417.183 382.173 417.55 382.077 417.929 382.077C418.655 382.077 419.212 382.286 419.599 382.706C419.994 383.117 420.192 383.706 420.192 384.472V388.199H419.079V384.545C419.055 383.577 418.567 383.093 417.615 383.093C417.171 383.093 416.8 383.275 416.501 383.638C416.203 383.992 416.054 384.42 416.054 384.92V388.199H414.941V382.27Z" fill="white"/>
<path d="M446.925 290.227V294.108H449.204C449.779 294.108 450.267 293.923 450.667 293.554C451.068 293.174 451.268 292.707 451.268 292.152C451.268 291.639 451.078 291.192 450.698 290.812C450.329 290.422 449.862 290.227 449.297 290.227H446.925ZM446.925 299.898H445.508V288.872H449.266C450.221 288.872 451.032 289.19 451.699 289.827C452.377 290.453 452.716 291.228 452.716 292.152C452.716 292.912 452.464 293.59 451.961 294.185C451.468 294.77 450.842 295.145 450.082 295.309L450.051 295.355L453.147 299.837V299.898H451.468L448.496 295.432H446.925V299.898ZM457.403 300.145C456.294 300.145 455.38 299.765 454.662 299.005C453.943 298.246 453.584 297.286 453.584 296.125C453.584 294.976 453.933 294.021 454.631 293.261C455.329 292.491 456.222 292.106 457.31 292.106C458.429 292.106 459.318 292.471 459.975 293.199C460.642 293.918 460.976 294.929 460.976 296.233L460.96 296.387H455.031C455.052 297.126 455.298 297.722 455.77 298.174C456.243 298.625 456.807 298.851 457.464 298.851C458.368 298.851 459.076 298.4 459.59 297.496L460.852 298.112C460.514 298.749 460.041 299.247 459.436 299.606C458.84 299.965 458.163 300.145 457.403 300.145ZM455.139 295.217H459.466C459.425 294.693 459.21 294.262 458.82 293.923C458.44 293.574 457.926 293.4 457.28 293.4C456.746 293.4 456.284 293.564 455.894 293.892C455.514 294.221 455.262 294.662 455.139 295.217ZM465.734 298.851C466.433 298.851 467.002 298.6 467.444 298.097C467.906 297.594 468.137 296.937 468.137 296.125C468.137 295.335 467.906 294.683 467.444 294.17C466.992 293.656 466.422 293.4 465.734 293.4C465.057 293.4 464.487 293.656 464.025 294.17C463.563 294.683 463.332 295.335 463.332 296.125C463.332 296.926 463.563 297.578 464.025 298.081C464.487 298.595 465.057 298.851 465.734 298.851ZM465.688 303.471C465.267 303.471 464.872 303.415 464.502 303.302C464.133 303.199 463.794 303.05 463.486 302.855C463.188 302.66 462.932 302.429 462.716 302.162C462.5 301.895 462.336 301.598 462.223 301.269L463.563 300.715C463.717 301.156 463.984 301.51 464.364 301.777C464.744 302.044 465.185 302.178 465.688 302.178C466.458 302.178 467.059 301.947 467.49 301.485C467.921 301.023 468.137 300.386 468.137 299.575V298.851H468.075C467.808 299.252 467.444 299.57 466.982 299.806C466.53 300.032 466.037 300.145 465.503 300.145C464.518 300.145 463.671 299.76 462.962 298.99C462.264 298.199 461.915 297.245 461.915 296.125C461.915 295.006 462.264 294.057 462.962 293.276C463.671 292.496 464.518 292.106 465.503 292.106C466.037 292.106 466.53 292.224 466.982 292.46C467.444 292.686 467.808 292.999 468.075 293.4H468.137V292.352H469.492V299.575C469.492 300.787 469.148 301.736 468.46 302.424C467.762 303.122 466.838 303.471 465.688 303.471ZM473.052 289.75C473.052 290.027 472.955 290.263 472.759 290.458C472.564 290.653 472.328 290.751 472.051 290.751C471.774 290.751 471.538 290.653 471.343 290.458C471.148 290.263 471.05 290.027 471.05 289.75C471.05 289.473 471.148 289.237 471.343 289.041C471.538 288.846 471.774 288.749 472.051 288.749C472.328 288.749 472.564 288.846 472.759 289.041C472.955 289.237 473.052 289.473 473.052 289.75ZM472.759 292.352V299.898H471.343V292.352H472.759ZM474.097 296.125C474.097 294.965 474.461 294.005 475.19 293.246C475.929 292.486 476.859 292.106 477.978 292.106C479.097 292.106 480.021 292.486 480.75 293.246C481.489 294.005 481.858 294.965 481.858 296.125C481.858 297.296 481.489 298.256 480.75 299.005C480.021 299.765 479.097 300.145 477.978 300.145C476.859 300.145 475.929 299.765 475.19 299.005C474.461 298.246 474.097 297.286 474.097 296.125ZM475.514 296.125C475.514 296.937 475.75 297.594 476.222 298.097C476.694 298.6 477.28 298.851 477.978 298.851C478.676 298.851 479.261 298.6 479.733 298.097C480.206 297.594 480.442 296.937 480.442 296.125C480.442 295.325 480.206 294.673 479.733 294.17C479.251 293.656 478.666 293.4 477.978 293.4C477.29 293.4 476.705 293.656 476.222 294.17C475.75 294.673 475.514 295.325 475.514 296.125ZM482.995 292.352H484.35V293.4H484.412C484.627 293.03 484.956 292.722 485.397 292.476C485.849 292.229 486.316 292.106 486.799 292.106C487.723 292.106 488.431 292.373 488.924 292.907C489.427 293.43 489.679 294.18 489.679 295.155V299.898H488.262V295.248C488.231 294.016 487.61 293.4 486.398 293.4C485.834 293.4 485.362 293.631 484.982 294.093C484.602 294.544 484.412 295.089 484.412 295.725V299.898H482.995V292.352ZM496.389 299.898H494.972V288.872H496.697L502.056 297.45H502.118L502.056 295.325V288.872H503.473V299.898H501.994L496.389 290.905H496.327L496.389 293.03V299.898ZM505.017 296.125C505.017 294.965 505.382 294.005 506.111 293.246C506.85 292.486 507.779 292.106 508.898 292.106C510.017 292.106 510.941 292.486 511.67 293.246C512.409 294.005 512.779 294.965 512.779 296.125C512.779 297.296 512.409 298.256 511.67 299.005C510.941 299.765 510.017 300.145 508.898 300.145C507.779 300.145 506.85 299.765 506.111 299.005C505.382 298.246 505.017 297.286 505.017 296.125ZM506.434 296.125C506.434 296.937 506.67 297.594 507.142 298.097C507.615 298.6 508.2 298.851 508.898 298.851C509.596 298.851 510.181 298.6 510.654 298.097C511.126 297.594 511.362 296.937 511.362 296.125C511.362 295.325 511.126 294.673 510.654 294.17C510.171 293.656 509.586 293.4 508.898 293.4C508.21 293.4 507.625 293.656 507.142 294.17C506.67 294.673 506.434 295.325 506.434 296.125ZM516.828 300.022C516.212 300.022 515.698 299.832 515.288 299.452C514.887 299.072 514.682 298.543 514.672 297.866V293.646H513.347V292.352H514.672V290.042H516.089V292.352H517.937V293.646H516.089V297.404C516.089 297.907 516.186 298.251 516.381 298.435C516.576 298.61 516.797 298.697 517.043 298.697C517.156 298.697 517.264 298.687 517.367 298.666C517.48 298.636 517.582 298.6 517.675 298.559L518.121 299.821C517.752 299.955 517.321 300.022 516.828 300.022ZM524.331 295.171V299.898H522.915V288.872H529.352V290.227H524.331V293.846H528.859V295.171H524.331ZM529.817 296.125C529.817 294.965 530.181 294.005 530.91 293.246C531.649 292.486 532.578 292.106 533.697 292.106C534.816 292.106 535.74 292.486 536.469 293.246C537.209 294.005 537.578 294.965 537.578 296.125C537.578 297.296 537.209 298.256 536.469 299.005C535.74 299.765 534.816 300.145 533.697 300.145C532.578 300.145 531.649 299.765 530.91 299.005C530.181 298.246 529.817 297.286 529.817 296.125ZM531.233 296.125C531.233 296.937 531.47 297.594 531.942 298.097C532.414 298.6 532.999 298.851 533.697 298.851C534.396 298.851 534.981 298.6 535.453 298.097C535.925 297.594 536.161 296.937 536.161 296.125C536.161 295.325 535.925 294.673 535.453 294.17C534.97 293.656 534.385 293.4 533.697 293.4C533.01 293.4 532.424 293.656 531.942 294.17C531.47 294.673 531.233 295.325 531.233 296.125ZM545.412 299.898H544.057V298.851H543.995C543.78 299.221 543.446 299.529 542.994 299.775C542.553 300.022 542.091 300.145 541.608 300.145C540.684 300.145 539.971 299.883 539.468 299.359C538.975 298.826 538.728 298.071 538.728 297.096V292.352H540.145V297.003C540.176 298.235 540.797 298.851 542.009 298.851C542.573 298.851 543.046 298.625 543.425 298.174C543.805 297.712 543.995 297.162 543.995 296.526V292.352H545.412V299.898ZM547.137 292.352H548.492V293.4H548.553C548.769 293.03 549.098 292.722 549.539 292.476C549.991 292.229 550.458 292.106 550.94 292.106C551.864 292.106 552.573 292.373 553.066 292.907C553.569 293.43 553.82 294.18 553.82 295.155V299.898H552.403V295.248C552.373 294.016 551.752 293.4 550.54 293.4C549.975 293.4 549.503 293.631 549.123 294.093C548.743 294.544 548.553 295.089 548.553 295.725V299.898H547.137V292.352ZM558.871 298.851C559.569 298.851 560.139 298.6 560.581 298.097C561.043 297.594 561.274 296.937 561.274 296.125C561.274 295.335 561.043 294.683 560.581 294.17C560.129 293.656 559.559 293.4 558.871 293.4C558.194 293.4 557.624 293.656 557.162 294.17C556.7 294.683 556.469 295.335 556.469 296.125C556.469 296.926 556.7 297.578 557.162 298.081C557.624 298.595 558.194 298.851 558.871 298.851ZM558.64 300.145C557.655 300.145 556.808 299.755 556.099 298.974C555.401 298.184 555.052 297.234 555.052 296.125C555.052 295.017 555.401 294.067 556.099 293.276C556.808 292.496 557.655 292.106 558.64 292.106C559.195 292.106 559.698 292.224 560.15 292.46C560.612 292.696 560.966 293.01 561.212 293.4H561.274L561.212 292.352V288.872H562.629V299.898H561.274V298.851H561.212C560.966 299.241 560.612 299.555 560.15 299.791C559.698 300.027 559.195 300.145 558.64 300.145ZM569.219 296.48H568.11L567.956 292.352V288.872H569.373V292.352L569.219 296.48ZM569.711 298.944C569.711 299.231 569.609 299.478 569.403 299.683C569.208 299.888 568.962 299.991 568.664 299.991C568.377 299.991 568.13 299.888 567.925 299.683C567.72 299.478 567.617 299.231 567.617 298.944C567.617 298.646 567.72 298.4 567.925 298.204C568.13 297.999 568.377 297.896 568.664 297.896C568.962 297.896 569.208 297.999 569.403 298.204C569.609 298.4 569.711 298.646 569.711 298.944Z" fill="white"/>
</svg>
