<svg width="1453" height="35" viewBox="0 0 1453 35" fill="none" xmlns="http://www.w3.org/2000/svg">
<rect width="1452" height="35" fill="url(#paint0_linear_884_1610)"/>
<path d="M314.5 0H322.5L297.5 35H289L314.5 0Z" fill="white"/>
<path d="M702.5 0H710.5L685.5 35H677L702.5 0Z" fill="white"/>
<path d="M964.5 0H972.5L947.5 35H939L964.5 0Z" fill="white"/>
<path d="M1190.5 0H1198.5L1173.5 35H1165L1190.5 0Z" fill="white"/>
<path d="M1444.5 0H1452.5L1427.5 35H1419L1444.5 0Z" fill="white"/>
<path d="M67.9861 22H65.8869L61.1338 14.8178V22H59.0346V11.5191H61.1338L65.8869 18.7163V11.5191H67.9861V22ZM77.7825 17.6667C77.7825 17.9666 77.7625 18.2365 77.7225 18.4764H71.6499C71.6999 19.0762 71.9098 19.546 72.2796 19.8858C72.6495 20.2257 73.1043 20.3956 73.6441 20.3956C74.4238 20.3956 74.9786 20.0608 75.3084 19.391H77.5726C77.3326 20.1907 76.8728 20.8505 76.1931 21.3702C75.5134 21.88 74.6787 22.1349 73.6891 22.1349C72.8894 22.1349 72.1697 21.96 71.5299 21.6102C70.9002 21.2503 70.4054 20.7455 70.0455 20.0958C69.6957 19.446 69.5207 18.6963 69.5207 17.8466C69.5207 16.987 69.6957 16.2323 70.0455 15.5825C70.3954 14.9328 70.8852 14.433 71.5149 14.0831C72.1447 13.7333 72.8694 13.5583 73.6891 13.5583C74.4788 13.5583 75.1835 13.7283 75.8032 14.0681C76.433 14.408 76.9178 14.8928 77.2577 15.5226C77.6075 16.1423 77.7825 16.857 77.7825 17.6667ZM75.6083 17.0669C75.5983 16.5272 75.4034 16.0973 75.0236 15.7775C74.6437 15.4476 74.1789 15.2827 73.6291 15.2827C73.1093 15.2827 72.6695 15.4426 72.3096 15.7625C71.9598 16.0723 71.7449 16.5072 71.6649 17.0669H75.6083ZM83.9029 22L82.1935 19.421L80.6791 22H78.43L81.144 17.8316L78.4 13.6933H80.7691L82.4634 16.2573L83.9928 13.6933H86.2419L83.513 17.8316L86.2719 22H83.9029ZM89.8561 15.4176V19.436C89.8561 19.7159 89.9211 19.9208 90.051 20.0508C90.191 20.1707 90.4209 20.2307 90.7408 20.2307H91.7154V22H90.3959C88.6266 22 87.7419 21.1403 87.7419 19.421V15.4176H86.7523V13.6933H87.7419V11.6391H89.8561V13.6933H91.7154V15.4176H89.8561ZM110.787 11.5341L107.864 22H105.39L103.425 14.5479L101.371 22L98.9122 22.015L96.0933 11.5341H98.3424L100.187 19.6609L102.316 11.5341H104.655L106.664 19.6159L108.523 11.5341H110.787ZM115.847 22.1349C115.047 22.1349 114.327 21.96 113.688 21.6102C113.048 21.2503 112.543 20.7455 112.173 20.0958C111.813 19.446 111.633 18.6963 111.633 17.8466C111.633 16.997 111.818 16.2473 112.188 15.5975C112.568 14.9478 113.083 14.448 113.733 14.0981C114.382 13.7383 115.107 13.5583 115.907 13.5583C116.706 13.5583 117.431 13.7383 118.081 14.0981C118.731 14.448 119.24 14.9478 119.61 15.5975C119.99 16.2473 120.18 16.997 120.18 17.8466C120.18 18.6963 119.985 19.446 119.595 20.0958C119.215 20.7455 118.696 21.2503 118.036 21.6102C117.386 21.96 116.656 22.1349 115.847 22.1349ZM115.847 20.3057C116.227 20.3057 116.581 20.2157 116.911 20.0358C117.251 19.8458 117.521 19.566 117.721 19.1961C117.921 18.8263 118.021 18.3764 118.021 17.8466C118.021 17.057 117.811 16.4522 117.391 16.0324C116.981 15.6025 116.476 15.3876 115.877 15.3876C115.277 15.3876 114.772 15.6025 114.362 16.0324C113.962 16.4522 113.763 17.057 113.763 17.8466C113.763 18.6363 113.957 19.2461 114.347 19.6759C114.747 20.0958 115.247 20.3057 115.847 20.3057ZM135.709 11.5341L132.785 22H130.311L128.347 14.5479L126.293 22L123.834 22.015L121.015 11.5341H123.264L125.108 19.6609L127.238 11.5341H129.577L131.586 19.6159L133.445 11.5341H135.709ZM141.717 12.7037C141.348 12.7037 141.038 12.5887 140.788 12.3588C140.548 12.1189 140.428 11.824 140.428 11.4742C140.428 11.1243 140.548 10.8344 140.788 10.6045C141.038 10.3646 141.348 10.2446 141.717 10.2446C142.087 10.2446 142.392 10.3646 142.632 10.6045C142.882 10.8344 143.007 11.1243 143.007 11.4742C143.007 11.824 142.882 12.1189 142.632 12.3588C142.392 12.5887 142.087 12.7037 141.717 12.7037ZM142.752 13.6933V22H140.653V13.6933H142.752ZM148.005 22.1349C147.325 22.1349 146.715 22.015 146.175 21.7751C145.636 21.5252 145.206 21.1903 144.886 20.7705C144.576 20.3507 144.406 19.8858 144.376 19.376H146.49C146.53 19.6959 146.685 19.9608 146.955 20.1707C147.235 20.3806 147.58 20.4856 147.99 20.4856C148.39 20.4856 148.699 20.4056 148.919 20.2457C149.149 20.0858 149.264 19.8808 149.264 19.6309C149.264 19.361 149.124 19.1611 148.844 19.0312C148.574 18.8912 148.14 18.7413 147.54 18.5813C146.92 18.4314 146.41 18.2765 146.01 18.1165C145.621 17.9566 145.281 17.7117 144.991 17.3818C144.711 17.052 144.571 16.6071 144.571 16.0473C144.571 15.5875 144.701 15.1677 144.961 14.7878C145.231 14.408 145.611 14.1081 146.1 13.8882C146.6 13.6683 147.185 13.5583 147.855 13.5583C148.844 13.5583 149.634 13.8082 150.224 14.308C150.814 14.7978 151.138 15.4626 151.198 16.3022H149.189C149.159 15.9724 149.019 15.7125 148.769 15.5226C148.529 15.3226 148.205 15.2227 147.795 15.2227C147.415 15.2227 147.12 15.2926 146.91 15.4326C146.71 15.5725 146.61 15.7675 146.61 16.0174C146.61 16.2972 146.75 16.5122 147.03 16.6621C147.31 16.8021 147.745 16.947 148.335 17.0969C148.934 17.2469 149.429 17.4018 149.819 17.5618C150.209 17.7217 150.544 17.9716 150.824 18.3115C151.113 18.6413 151.263 19.0812 151.273 19.6309C151.273 20.1107 151.138 20.5406 150.869 20.9204C150.609 21.3003 150.229 21.6002 149.729 21.8201C149.239 22.03 148.664 22.1349 148.005 22.1349ZM156.06 16.7521C156.06 15.7225 156.289 14.8028 156.749 13.9932C157.219 13.1735 157.854 12.5387 158.654 12.0889C159.463 11.6291 160.368 11.3992 161.367 11.3992C162.537 11.3992 163.562 11.6991 164.441 12.2988C165.321 12.8986 165.936 13.7283 166.286 14.7878H163.871C163.632 14.288 163.292 13.9132 162.852 13.6633C162.422 13.4134 161.922 13.2884 161.352 13.2884C160.743 13.2884 160.198 13.4334 159.718 13.7233C159.248 14.0032 158.878 14.403 158.609 14.9228C158.349 15.4426 158.219 16.0523 158.219 16.7521C158.219 17.4418 158.349 18.0516 158.609 18.5813C158.878 19.1011 159.248 19.506 159.718 19.7959C160.198 20.0758 160.743 20.2157 161.352 20.2157C161.922 20.2157 162.422 20.0908 162.852 19.8409C163.292 19.581 163.632 19.2011 163.871 18.7013H166.286C165.936 19.7709 165.321 20.6056 164.441 21.2053C163.572 21.7951 162.547 22.09 161.367 22.09C160.368 22.09 159.463 21.8651 158.654 21.4152C157.854 20.9554 157.219 20.3207 156.749 19.511C156.289 18.7013 156.06 17.7817 156.06 16.7521ZM171.767 22.1349C170.967 22.1349 170.248 21.96 169.608 21.6102C168.968 21.2503 168.463 20.7455 168.093 20.0958C167.734 19.446 167.554 18.6963 167.554 17.8466C167.554 16.997 167.739 16.2473 168.108 15.5975C168.488 14.9478 169.003 14.448 169.653 14.0981C170.303 13.7383 171.027 13.5583 171.827 13.5583C172.627 13.5583 173.351 13.7383 174.001 14.0981C174.651 14.448 175.161 14.9478 175.531 15.5975C175.91 16.2473 176.1 16.997 176.1 17.8466C176.1 18.6963 175.905 19.446 175.516 20.0958C175.136 20.7455 174.616 21.2503 173.956 21.6102C173.306 21.96 172.577 22.1349 171.767 22.1349ZM171.767 20.3057C172.147 20.3057 172.502 20.2157 172.832 20.0358C173.171 19.8458 173.441 19.566 173.641 19.1961C173.841 18.8263 173.941 18.3764 173.941 17.8466C173.941 17.057 173.731 16.4522 173.311 16.0324C172.902 15.6025 172.397 15.3876 171.797 15.3876C171.197 15.3876 170.692 15.6025 170.283 16.0324C169.883 16.4522 169.683 17.057 169.683 17.8466C169.683 18.6363 169.878 19.2461 170.268 19.6759C170.667 20.0958 171.167 20.3057 171.767 20.3057ZM187.956 13.5733C188.976 13.5733 189.795 13.8882 190.415 14.518C191.045 15.1377 191.36 16.0074 191.36 17.1269V22H189.261V17.4118C189.261 16.7621 189.096 16.2673 188.766 15.9274C188.436 15.5775 187.986 15.4026 187.416 15.4026C186.847 15.4026 186.392 15.5775 186.052 15.9274C185.722 16.2673 185.557 16.7621 185.557 17.4118V22H183.458V17.4118C183.458 16.7621 183.293 16.2673 182.963 15.9274C182.633 15.5775 182.183 15.4026 181.614 15.4026C181.034 15.4026 180.574 15.5775 180.234 15.9274C179.904 16.2673 179.739 16.7621 179.739 17.4118V22H177.64V13.6933H179.739V14.6979C180.009 14.348 180.354 14.0731 180.774 13.8732C181.204 13.6733 181.674 13.5733 182.183 13.5733C182.833 13.5733 183.413 13.7133 183.923 13.9932C184.432 14.2631 184.827 14.6529 185.107 15.1627C185.377 14.6829 185.767 14.298 186.277 14.0082C186.797 13.7183 187.356 13.5733 187.956 13.5733ZM194.416 12.7037C194.046 12.7037 193.737 12.5887 193.487 12.3588C193.247 12.1189 193.127 11.824 193.127 11.4742C193.127 11.1243 193.247 10.8344 193.487 10.6045C193.737 10.3646 194.046 10.2446 194.416 10.2446C194.786 10.2446 195.091 10.3646 195.331 10.6045C195.581 10.8344 195.706 11.1243 195.706 11.4742C195.706 11.824 195.581 12.1189 195.331 12.3588C195.091 12.5887 194.786 12.7037 194.416 12.7037ZM195.451 13.6933V22H193.352V13.6933H195.451ZM202.128 13.5733C203.118 13.5733 203.917 13.8882 204.527 14.518C205.137 15.1377 205.442 16.0074 205.442 17.1269V22H203.343V17.4118C203.343 16.7521 203.178 16.2473 202.848 15.8974C202.518 15.5375 202.068 15.3576 201.498 15.3576C200.919 15.3576 200.459 15.5375 200.119 15.8974C199.789 16.2473 199.624 16.7521 199.624 17.4118V22H197.525V13.6933H199.624V14.7279C199.904 14.368 200.259 14.0881 200.689 13.8882C201.128 13.6783 201.608 13.5733 202.128 13.5733ZM210.692 13.5583C211.311 13.5583 211.856 13.6833 212.326 13.9332C212.796 14.1731 213.166 14.488 213.436 14.8778V13.6933H215.55V22.06C215.55 22.8297 215.395 23.5144 215.085 24.1142C214.775 24.7239 214.31 25.2037 213.69 25.5536C213.071 25.9135 212.321 26.0934 211.441 26.0934C210.262 26.0934 209.292 25.8185 208.533 25.2687C207.783 24.7189 207.358 23.9692 207.258 23.0196H209.342C209.452 23.3994 209.687 23.6993 210.047 23.9192C210.417 24.1492 210.862 24.2641 211.381 24.2641C211.991 24.2641 212.486 24.0792 212.866 23.7093C213.246 23.3495 213.436 22.7997 213.436 22.06V20.7705C213.166 21.1603 212.791 21.4852 212.311 21.7451C211.841 22.005 211.301 22.1349 210.692 22.1349C209.992 22.1349 209.352 21.955 208.772 21.5952C208.193 21.2353 207.733 20.7305 207.393 20.0808C207.063 19.421 206.898 18.6663 206.898 17.8167C206.898 16.977 207.063 16.2323 207.393 15.5825C207.733 14.9328 208.188 14.433 208.757 14.0831C209.337 13.7333 209.982 13.5583 210.692 13.5583ZM213.436 17.8466C213.436 17.3368 213.336 16.902 213.136 16.5422C212.936 16.1723 212.666 15.8924 212.326 15.7025C211.986 15.5026 211.621 15.4026 211.231 15.4026C210.842 15.4026 210.482 15.4976 210.152 15.6875C209.822 15.8774 209.552 16.1573 209.342 16.5272C209.142 16.887 209.042 17.3168 209.042 17.8167C209.042 18.3165 209.142 18.7563 209.342 19.1361C209.552 19.506 209.822 19.7909 210.152 19.9908C210.492 20.1907 210.852 20.2907 211.231 20.2907C211.621 20.2907 211.986 20.1957 212.326 20.0058C212.666 19.8059 212.936 19.526 213.136 19.1661C213.336 18.7963 213.436 18.3564 213.436 17.8466ZM228.295 11.5341V13.2285H225.506V22H223.407V13.2285H220.618V11.5341H228.295ZM233.515 22.1349C232.715 22.1349 231.996 21.96 231.356 21.6102C230.716 21.2503 230.211 20.7455 229.842 20.0958C229.482 19.446 229.302 18.6963 229.302 17.8466C229.302 16.997 229.487 16.2473 229.857 15.5975C230.236 14.9478 230.751 14.448 231.401 14.0981C232.051 13.7383 232.775 13.5583 233.575 13.5583C234.375 13.5583 235.099 13.7383 235.749 14.0981C236.399 14.448 236.909 14.9478 237.279 15.5975C237.658 16.2473 237.848 16.997 237.848 17.8466C237.848 18.6963 237.653 19.446 237.264 20.0958C236.884 20.7455 236.364 21.2503 235.704 21.6102C235.055 21.96 234.325 22.1349 233.515 22.1349ZM233.515 20.3057C233.895 20.3057 234.25 20.2157 234.58 20.0358C234.92 19.8458 235.189 19.566 235.389 19.1961C235.589 18.8263 235.689 18.3764 235.689 17.8466C235.689 17.057 235.479 16.4522 235.06 16.0324C234.65 15.6025 234.145 15.3876 233.545 15.3876C232.945 15.3876 232.441 15.6025 232.031 16.0324C231.631 16.4522 231.431 17.057 231.431 17.8466C231.431 18.6363 231.626 19.2461 232.016 19.6759C232.416 20.0958 232.915 20.3057 233.515 20.3057Z" fill="white"/>
<path d="M411.452 21.0058H407.284L406.594 23H404.39L408.153 12.5191H410.597L414.361 23H412.142L411.452 21.0058ZM410.882 19.3264L409.368 14.9482L407.853 19.3264H410.882ZM420.371 14.5733C421.36 14.5733 422.16 14.8882 422.77 15.518C423.38 16.1377 423.685 17.0074 423.685 18.1269V23H421.585V18.4118C421.585 17.7521 421.42 17.2473 421.091 16.8974C420.761 16.5375 420.311 16.3576 419.741 16.3576C419.161 16.3576 418.702 16.5375 418.362 16.8974C418.032 17.2473 417.867 17.7521 417.867 18.4118V23H415.768V14.6933H417.867V15.7279C418.147 15.368 418.502 15.0881 418.931 14.8882C419.371 14.6783 419.851 14.5733 420.371 14.5733ZM429.369 23.1349C428.57 23.1349 427.85 22.96 427.21 22.6102C426.57 22.2503 426.066 21.7455 425.696 21.0958C425.336 20.446 425.156 19.6963 425.156 18.8466C425.156 17.997 425.341 17.2473 425.711 16.5975C426.091 15.9478 426.605 15.448 427.255 15.0981C427.905 14.7383 428.63 14.5583 429.429 14.5583C430.229 14.5583 430.954 14.7383 431.603 15.0981C432.253 15.448 432.763 15.9478 433.133 16.5975C433.513 17.2473 433.703 17.997 433.703 18.8466C433.703 19.6963 433.508 20.446 433.118 21.0958C432.738 21.7455 432.218 22.2503 431.558 22.6102C430.909 22.96 430.179 23.1349 429.369 23.1349ZM429.369 21.3057C429.749 21.3057 430.104 21.2157 430.434 21.0358C430.774 20.8458 431.044 20.566 431.244 20.1961C431.443 19.8263 431.543 19.3764 431.543 18.8466C431.543 18.057 431.334 17.4522 430.914 17.0324C430.504 16.6025 429.999 16.3876 429.399 16.3876C428.8 16.3876 428.295 16.6025 427.885 17.0324C427.485 17.4522 427.285 18.057 427.285 18.8466C427.285 19.6363 427.48 20.2461 427.87 20.6759C428.27 21.0958 428.77 21.3057 429.369 21.3057ZM437.686 16.4176V20.436C437.686 20.7159 437.751 20.9208 437.881 21.0508C438.021 21.1707 438.251 21.2307 438.571 21.2307H439.546V23H438.226C436.457 23 435.572 22.1403 435.572 20.421V16.4176H434.583V14.6933H435.572V12.6391H437.686V14.6933H439.546V16.4176H437.686ZM445.734 14.5733C446.363 14.5733 446.923 14.7133 447.413 14.9932C447.903 15.2631 448.283 15.6679 448.553 16.2077C448.832 16.7375 448.972 17.3772 448.972 18.1269V23H446.873V18.4118C446.873 17.7521 446.708 17.2473 446.378 16.8974C446.049 16.5375 445.599 16.3576 445.029 16.3576C444.449 16.3576 443.989 16.5375 443.65 16.8974C443.32 17.2473 443.155 17.7521 443.155 18.4118V23H441.056V11.9044H443.155V15.7279C443.425 15.368 443.784 15.0881 444.234 14.8882C444.684 14.6783 445.184 14.5733 445.734 14.5733ZM458.691 18.6667C458.691 18.9666 458.671 19.2365 458.631 19.4764H452.558C452.608 20.0762 452.818 20.546 453.188 20.8858C453.558 21.2257 454.012 21.3956 454.552 21.3956C455.332 21.3956 455.887 21.0608 456.217 20.391H458.481C458.241 21.1907 457.781 21.8505 457.101 22.3702C456.421 22.88 455.587 23.1349 454.597 23.1349C453.797 23.1349 453.078 22.96 452.438 22.6102C451.808 22.2503 451.313 21.7455 450.954 21.0958C450.604 20.446 450.429 19.6963 450.429 18.8466C450.429 17.987 450.604 17.2323 450.954 16.5825C451.303 15.9328 451.793 15.433 452.423 15.0831C453.053 14.7333 453.778 14.5583 454.597 14.5583C455.387 14.5583 456.092 14.7283 456.711 15.0681C457.341 15.408 457.826 15.8928 458.166 16.5226C458.516 17.1423 458.691 17.857 458.691 18.6667ZM456.516 18.0669C456.506 17.5272 456.312 17.0973 455.932 16.7775C455.552 16.4476 455.087 16.2827 454.537 16.2827C454.017 16.2827 453.578 16.4426 453.218 16.7625C452.868 17.0723 452.653 17.5072 452.573 18.0669H456.516ZM462.322 15.9828C462.592 15.5429 462.942 15.1981 463.372 14.9482C463.811 14.6983 464.311 14.5733 464.871 14.5733V16.7775H464.316C463.656 16.7775 463.157 16.9324 462.817 17.2423C462.487 17.5521 462.322 18.0919 462.322 18.8616V23H460.223V14.6933H462.322V15.9828ZM471.957 12.5341V23H469.858V12.5341H471.957ZM478.634 14.5733C479.624 14.5733 480.423 14.8882 481.033 15.518C481.643 16.1377 481.948 17.0074 481.948 18.1269V23H479.849V18.4118C479.849 17.7521 479.684 17.2473 479.354 16.8974C479.024 16.5375 478.574 16.3576 478.004 16.3576C477.424 16.3576 476.965 16.5375 476.625 16.8974C476.295 17.2473 476.13 17.7521 476.13 18.4118V23H474.031V14.6933H476.13V15.7279C476.41 15.368 476.765 15.0881 477.195 14.8882C477.634 14.6783 478.114 14.5733 478.634 14.5733ZM486.388 16.4176V20.436C486.388 20.7159 486.453 20.9208 486.583 21.0508C486.723 21.1707 486.953 21.2307 487.273 21.2307H488.247V23H486.928C485.158 23 484.274 22.1403 484.274 20.421V16.4176H483.284V14.6933H484.274V12.6391H486.388V14.6933H488.247V16.4176H486.388ZM497.479 18.6667C497.479 18.9666 497.459 19.2365 497.419 19.4764H491.346C491.396 20.0762 491.606 20.546 491.976 20.8858C492.346 21.2257 492.801 21.3956 493.341 21.3956C494.12 21.3956 494.675 21.0608 495.005 20.391H497.269C497.029 21.1907 496.569 21.8505 495.89 22.3702C495.21 22.88 494.375 23.1349 493.386 23.1349C492.586 23.1349 491.866 22.96 491.226 22.6102C490.597 22.2503 490.102 21.7455 489.742 21.0958C489.392 20.446 489.217 19.6963 489.217 18.8466C489.217 17.987 489.392 17.2323 489.742 16.5825C490.092 15.9328 490.582 15.433 491.211 15.0831C491.841 14.7333 492.566 14.5583 493.386 14.5583C494.175 14.5583 494.88 14.7283 495.5 15.0681C496.13 15.408 496.614 15.8928 496.954 16.5226C497.304 17.1423 497.479 17.857 497.479 18.6667ZM495.305 18.0669C495.295 17.5272 495.1 17.0973 494.72 16.7775C494.34 16.4476 493.875 16.2827 493.326 16.2827C492.806 16.2827 492.366 16.4426 492.006 16.7625C491.656 17.0723 491.441 17.5072 491.361 18.0669H495.305ZM501.11 15.9828C501.38 15.5429 501.73 15.1981 502.16 14.9482C502.6 14.6983 503.1 14.5733 503.659 14.5733V16.7775H503.105C502.445 16.7775 501.945 16.9324 501.605 17.2423C501.275 17.5521 501.11 18.0919 501.11 18.8616V23H499.011V14.6933H501.11V15.9828ZM512.795 18.6667C512.795 18.9666 512.775 19.2365 512.735 19.4764H506.663C506.713 20.0762 506.923 20.546 507.292 20.8858C507.662 21.2257 508.117 21.3956 508.657 21.3956C509.437 21.3956 509.991 21.0608 510.321 20.391H512.585C512.345 21.1907 511.886 21.8505 511.206 22.3702C510.526 22.88 509.691 23.1349 508.702 23.1349C507.902 23.1349 507.182 22.96 506.543 22.6102C505.913 22.2503 505.418 21.7455 505.058 21.0958C504.708 20.446 504.533 19.6963 504.533 18.8466C504.533 17.987 504.708 17.2323 505.058 16.5825C505.408 15.9328 505.898 15.433 506.528 15.0831C507.157 14.7333 507.882 14.5583 508.702 14.5583C509.491 14.5583 510.196 14.7283 510.816 15.0681C511.446 15.408 511.931 15.8928 512.27 16.5226C512.62 17.1423 512.795 17.857 512.795 18.6667ZM510.621 18.0669C510.611 17.5272 510.416 17.0973 510.036 16.7775C509.656 16.4476 509.192 16.2827 508.642 16.2827C508.122 16.2827 507.682 16.4426 507.322 16.7625C506.972 17.0723 506.758 17.5072 506.678 18.0669H510.621ZM517.506 23.1349C516.826 23.1349 516.217 23.015 515.677 22.7751C515.137 22.5252 514.707 22.1903 514.387 21.7705C514.077 21.3507 513.908 20.8858 513.878 20.376H515.992C516.032 20.6959 516.187 20.9608 516.457 21.1707C516.736 21.3806 517.081 21.4856 517.491 21.4856C517.891 21.4856 518.201 21.4056 518.421 21.2457C518.651 21.0858 518.766 20.8808 518.766 20.6309C518.766 20.361 518.626 20.1611 518.346 20.0312C518.076 19.8912 517.641 19.7413 517.041 19.5813C516.422 19.4314 515.912 19.2765 515.512 19.1165C515.122 18.9566 514.782 18.7117 514.492 18.3818C514.212 18.052 514.073 17.6071 514.073 17.0473C514.073 16.5875 514.202 16.1677 514.462 15.7878C514.732 15.408 515.112 15.1081 515.602 14.8882C516.102 14.6683 516.686 14.5583 517.356 14.5583C518.346 14.5583 519.136 14.8082 519.725 15.308C520.315 15.7978 520.64 16.4626 520.7 17.3022H518.691C518.661 16.9724 518.521 16.7125 518.271 16.5226C518.031 16.3226 517.706 16.2227 517.296 16.2227C516.916 16.2227 516.621 16.2926 516.412 16.4326C516.212 16.5725 516.112 16.7675 516.112 17.0174C516.112 17.2972 516.252 17.5122 516.532 17.6621C516.811 17.8021 517.246 17.947 517.836 18.0969C518.436 18.2469 518.931 18.4018 519.32 18.5618C519.71 18.7217 520.045 18.9716 520.325 19.3115C520.615 19.6413 520.765 20.0812 520.775 20.6309C520.775 21.1107 520.64 21.5406 520.37 21.9204C520.11 22.3003 519.73 22.6002 519.23 22.8201C518.741 23.03 518.166 23.1349 517.506 23.1349ZM524.942 16.4176V20.436C524.942 20.7159 525.007 20.9208 525.137 21.0508C525.277 21.1707 525.507 21.2307 525.827 21.2307H526.801V23H525.482C523.713 23 522.828 22.1403 522.828 20.421V16.4176H521.838V14.6933H522.828V12.6391H524.942V14.6933H526.801V16.4176H524.942ZM529.376 13.7037C529.006 13.7037 528.696 13.5887 528.446 13.3588C528.206 13.1189 528.086 12.824 528.086 12.4742C528.086 12.1243 528.206 11.8344 528.446 11.6045C528.696 11.3646 529.006 11.2446 529.376 11.2446C529.746 11.2446 530.05 11.3646 530.29 11.6045C530.54 11.8344 530.665 12.1243 530.665 12.4742C530.665 12.824 530.54 13.1189 530.29 13.3588C530.05 13.5887 529.746 13.7037 529.376 13.7037ZM530.41 14.6933V23H528.311V14.6933H530.41ZM537.087 14.5733C538.077 14.5733 538.877 14.8882 539.487 15.518C540.096 16.1377 540.401 17.0074 540.401 18.1269V23H538.302V18.4118C538.302 17.7521 538.137 17.2473 537.807 16.8974C537.477 16.5375 537.028 16.3576 536.458 16.3576C535.878 16.3576 535.418 16.5375 535.078 16.8974C534.748 17.2473 534.583 17.7521 534.583 18.4118V23H532.484V14.6933H534.583V15.7279C534.863 15.368 535.218 15.0881 535.648 14.8882C536.088 14.6783 536.568 14.5733 537.087 14.5733ZM545.651 14.5583C546.271 14.5583 546.816 14.6833 547.285 14.9332C547.755 15.1731 548.125 15.488 548.395 15.8778V14.6933H550.509V23.06C550.509 23.8297 550.354 24.5144 550.044 25.1142C549.734 25.7239 549.27 26.2037 548.65 26.5536C548.03 26.9135 547.28 27.0934 546.401 27.0934C545.221 27.0934 544.252 26.8185 543.492 26.2687C542.742 25.7189 542.317 24.9692 542.217 24.0196H544.302C544.412 24.3994 544.646 24.6993 545.006 24.9192C545.376 25.1492 545.821 25.2641 546.341 25.2641C546.951 25.2641 547.445 25.0792 547.825 24.7093C548.205 24.3495 548.395 23.7997 548.395 23.06V21.7705C548.125 22.1603 547.75 22.4852 547.27 22.7451C546.801 23.005 546.261 23.1349 545.651 23.1349C544.951 23.1349 544.312 22.955 543.732 22.5952C543.152 22.2353 542.692 21.7305 542.352 21.0808C542.023 20.421 541.858 19.6663 541.858 18.8167C541.858 17.977 542.023 17.2323 542.352 16.5825C542.692 15.9328 543.147 15.433 543.717 15.0831C544.297 14.7333 544.941 14.5583 545.651 14.5583ZM548.395 18.8466C548.395 18.3368 548.295 17.902 548.095 17.5422C547.895 17.1723 547.625 16.8924 547.285 16.7025C546.946 16.5026 546.581 16.4026 546.191 16.4026C545.801 16.4026 545.441 16.4976 545.111 16.6875C544.781 16.8774 544.512 17.1573 544.302 17.5272C544.102 17.887 544.002 18.3168 544.002 18.8167C544.002 19.3165 544.102 19.7563 544.302 20.1361C544.512 20.506 544.781 20.7909 545.111 20.9908C545.451 21.1907 545.811 21.2907 546.191 21.2907C546.581 21.2907 546.946 21.1957 547.285 21.0058C547.625 20.8059 547.895 20.526 548.095 20.1661C548.295 19.7963 548.395 19.3564 548.395 18.8466ZM558.231 14.2285V16.8524H561.755V18.5168H558.231V21.2907H562.205V23H556.132V12.5191H562.205V14.2285H558.231ZM567.576 21.0658L569.675 14.6933H571.909L568.836 23H566.287L563.228 14.6933H565.477L567.576 21.0658ZM580.81 18.6667C580.81 18.9666 580.79 19.2365 580.75 19.4764H574.678C574.728 20.0762 574.938 20.546 575.308 20.8858C575.677 21.2257 576.132 21.3956 576.672 21.3956C577.452 21.3956 578.006 21.0608 578.336 20.391H580.6C580.361 21.1907 579.901 21.8505 579.221 22.3702C578.541 22.88 577.707 23.1349 576.717 23.1349C575.917 23.1349 575.198 22.96 574.558 22.6102C573.928 22.2503 573.433 21.7455 573.073 21.0958C572.724 20.446 572.549 19.6963 572.549 18.8466C572.549 17.987 572.724 17.2323 573.073 16.5825C573.423 15.9328 573.913 15.433 574.543 15.0831C575.173 14.7333 575.897 14.5583 576.717 14.5583C577.507 14.5583 578.211 14.7283 578.831 15.0681C579.461 15.408 579.946 15.8928 580.286 16.5226C580.635 17.1423 580.81 17.857 580.81 18.6667ZM578.636 18.0669C578.626 17.5272 578.431 17.0973 578.051 16.7775C577.672 16.4476 577.207 16.2827 576.657 16.2827C576.137 16.2827 575.697 16.4426 575.338 16.7625C574.988 17.0723 574.773 17.5072 574.693 18.0669H578.636ZM586.946 14.5733C587.935 14.5733 588.735 14.8882 589.345 15.518C589.955 16.1377 590.259 17.0074 590.259 18.1269V23H588.16V18.4118C588.16 17.7521 587.995 17.2473 587.665 16.8974C587.336 16.5375 586.886 16.3576 586.316 16.3576C585.736 16.3576 585.276 16.5375 584.937 16.8974C584.607 17.2473 584.442 17.7521 584.442 18.4118V23H582.343V14.6933H584.442V15.7279C584.722 15.368 585.076 15.0881 585.506 14.8882C585.946 14.6783 586.426 14.5733 586.946 14.5733ZM594.7 16.4176V20.436C594.7 20.7159 594.765 20.9208 594.895 21.0508C595.035 21.1707 595.264 21.2307 595.584 21.2307H596.559V23H595.239C593.47 23 592.586 22.1403 592.586 20.421V16.4176H591.596V14.6933H592.586V12.6391H594.7V14.6933H596.559V16.4176H594.7ZM604.356 12.3542L604.116 19.5963H602.346L602.091 12.3542H604.356ZM603.276 23.105C602.896 23.105 602.581 22.99 602.331 22.7601C602.091 22.5202 601.971 22.2253 601.971 21.8754C601.971 21.5256 602.091 21.2357 602.331 21.0058C602.581 20.7659 602.896 20.6459 603.276 20.6459C603.646 20.6459 603.951 20.7659 604.191 21.0058C604.43 21.2357 604.55 21.5256 604.55 21.8754C604.55 22.2253 604.43 22.5202 604.191 22.7601C603.951 22.99 603.646 23.105 603.276 23.105Z" fill="white"/>
<path d="M785.253 18.2695L784.758 20.5779H786.662V22.4517H784.354L783.814 25H781.82L782.36 22.4517H779.632L779.092 25H777.114L777.653 22.4517H775.39V20.5779H778.058L778.553 18.2695H776.304V16.3957H778.957L779.482 13.9074H781.461L780.936 16.3957H783.664L784.189 13.9074H786.183L785.658 16.3957H787.577V18.2695H785.253ZM783.259 18.2695H780.531L780.037 20.5779H782.765L783.259 18.2695ZM803.312 14.537L800.389 25H797.915L795.952 17.55L793.898 25L791.44 25.015L788.622 14.537H790.87L792.714 22.6616L794.843 14.537H797.181L799.19 22.6166L801.048 14.537H803.312ZM809.539 25.1049C808.56 25.1049 807.66 24.8751 806.841 24.4154C806.021 23.9557 805.372 23.3211 804.892 22.5117C804.412 21.6922 804.173 20.7678 804.173 19.7385C804.173 18.7192 804.412 17.8048 804.892 16.9953C805.372 16.1759 806.021 15.5363 806.841 15.0766C807.66 14.6169 808.56 14.3871 809.539 14.3871C810.528 14.3871 811.428 14.6169 812.237 15.0766C813.057 15.5363 813.701 16.1759 814.171 16.9953C814.651 17.8048 814.89 18.7192 814.89 19.7385C814.89 20.7678 814.651 21.6922 814.171 22.5117C813.701 23.3211 813.057 23.9557 812.237 24.4154C811.418 24.8751 810.518 25.1049 809.539 25.1049ZM809.539 23.2312C810.169 23.2312 810.723 23.0913 811.203 22.8115C811.683 22.5217 812.057 22.1119 812.327 21.5823C812.597 21.0526 812.732 20.438 812.732 19.7385C812.732 19.039 812.597 18.4294 812.327 17.9097C812.057 17.3801 811.683 16.9754 811.203 16.6955C810.723 16.4157 810.169 16.2758 809.539 16.2758C808.909 16.2758 808.35 16.4157 807.86 16.6955C807.38 16.9754 807.006 17.3801 806.736 17.9097C806.466 18.4294 806.331 19.039 806.331 19.7385C806.331 20.438 806.466 21.0526 806.736 21.5823C807.006 22.1119 807.38 22.5217 807.86 22.8115C808.35 23.0913 808.909 23.2312 809.539 23.2312ZM830.437 14.537L827.514 25H825.041L823.077 17.55L821.024 25L818.565 25.015L815.747 14.537H817.996L819.839 22.6616L821.968 14.537H824.306L826.315 22.6166L828.174 14.537H830.437ZM832.227 22.6316C833.187 21.8321 833.951 21.1676 834.521 20.6379C835.09 20.0983 835.565 19.5386 835.945 18.959C836.325 18.3794 836.515 17.8098 836.515 17.2502C836.515 16.7405 836.395 16.3408 836.155 16.051C835.915 15.7612 835.545 15.6163 835.045 15.6163C834.546 15.6163 834.161 15.7861 833.891 16.1259C833.621 16.4557 833.482 16.9104 833.472 17.49H831.433C831.473 16.2908 831.828 15.3814 832.497 14.7618C833.177 14.1422 834.036 13.8324 835.075 13.8324C836.215 13.8324 837.089 14.1372 837.699 14.7468C838.308 15.3464 838.613 16.1409 838.613 17.1302C838.613 17.9097 838.403 18.6542 837.984 19.3638C837.564 20.0733 837.084 20.6929 836.544 21.2225C836.005 21.7422 835.3 22.3718 834.431 23.1113H838.853V24.8501H831.448V23.2911L832.227 22.6316ZM840.175 19.3937C840.175 17.6649 840.485 16.3108 841.105 15.3314C841.734 14.3521 842.774 13.8624 844.223 13.8624C845.672 13.8624 846.706 14.3521 847.326 15.3314C847.955 16.3108 848.27 17.6649 848.27 19.3937C848.27 21.1326 847.955 22.4967 847.326 23.486C846.706 24.4753 845.672 24.97 844.223 24.97C842.774 24.97 841.734 24.4753 841.105 23.486C840.485 22.4967 840.175 21.1326 840.175 19.3937ZM846.201 19.3937C846.201 18.6542 846.151 18.0346 846.051 17.535C845.961 17.0253 845.772 16.6106 845.482 16.2908C845.202 15.971 844.782 15.8111 844.223 15.8111C843.663 15.8111 843.238 15.971 842.948 16.2908C842.669 16.6106 842.479 17.0253 842.379 17.535C842.289 18.0346 842.244 18.6542 842.244 19.3937C842.244 20.1532 842.289 20.7928 842.379 21.3125C842.469 21.8221 842.659 22.2368 842.948 22.5566C843.238 22.8664 843.663 23.0213 844.223 23.0213C844.782 23.0213 845.207 22.8664 845.497 22.5566C845.787 22.2368 845.976 21.8221 846.066 21.3125C846.156 20.7928 846.201 20.1532 846.201 19.3937ZM850.526 22.6316C851.485 21.8321 852.25 21.1676 852.819 20.6379C853.389 20.0983 853.863 19.5386 854.243 18.959C854.623 18.3794 854.813 17.8098 854.813 17.2502C854.813 16.7405 854.693 16.3408 854.453 16.051C854.213 15.7612 853.843 15.6163 853.344 15.6163C852.844 15.6163 852.459 15.7861 852.19 16.1259C851.92 16.4557 851.78 16.9104 851.77 17.49H849.731C849.771 16.2908 850.126 15.3814 850.796 14.7618C851.475 14.1422 852.335 13.8324 853.374 13.8324C854.513 13.8324 855.387 14.1372 855.997 14.7468C856.607 15.3464 856.911 16.1409 856.911 17.1302C856.911 17.9097 856.702 18.6542 856.282 19.3638C855.862 20.0733 855.382 20.6929 854.843 21.2225C854.303 21.7422 853.599 22.3718 852.729 23.1113H857.151V24.8501H849.746V23.2911L850.526 22.6316ZM858.504 16.9504C858.554 15.951 858.903 15.1815 859.553 14.6419C860.213 14.0923 861.077 13.8175 862.146 13.8175C862.876 13.8175 863.5 13.9474 864.02 14.2072C864.54 14.457 864.929 14.8018 865.189 15.2415C865.459 15.6712 865.594 16.1609 865.594 16.7105C865.594 17.3401 865.429 17.8748 865.099 18.3145C864.779 18.7442 864.395 19.034 863.945 19.1839V19.2438C864.525 19.4237 864.974 19.7435 865.294 20.2032C865.624 20.6629 865.789 21.2525 865.789 21.972C865.789 22.5716 865.649 23.1063 865.369 23.5759C865.099 24.0456 864.695 24.4154 864.155 24.6852C863.625 24.945 862.986 25.075 862.236 25.075C861.107 25.075 860.188 24.7901 859.478 24.2205C858.768 23.6509 858.394 22.8115 858.354 21.7022H860.392C860.412 22.1919 860.577 22.5866 860.887 22.8864C861.207 23.1762 861.642 23.3211 862.191 23.3211C862.701 23.3211 863.091 23.1812 863.36 22.9014C863.64 22.6116 863.78 22.2418 863.78 21.7921C863.78 21.1925 863.59 20.7628 863.211 20.503C862.831 20.2432 862.241 20.1133 861.442 20.1133H861.007V18.3894H861.442C862.861 18.3894 863.57 17.9147 863.57 16.9654C863.57 16.5356 863.44 16.2009 863.181 15.961C862.931 15.7212 862.566 15.6013 862.086 15.6013C861.617 15.6013 861.252 15.7312 860.992 15.991C860.742 16.2408 860.597 16.5606 860.557 16.9504H858.504Z" fill="white"/>
<path d="M1033.25 18.2695L1032.76 20.5779H1034.66V22.4517H1032.35L1031.81 25H1029.82L1030.36 22.4517H1027.63L1027.09 25H1025.11L1025.65 22.4517H1023.39V20.5779H1026.06L1026.55 18.2695H1024.3V16.3957H1026.96L1027.48 13.9074H1029.46L1028.94 16.3957H1031.66L1032.19 13.9074H1034.18L1033.66 16.3957H1035.58V18.2695H1033.25ZM1031.26 18.2695H1028.53L1028.04 20.5779H1030.76L1031.26 18.2695ZM1039.42 23.3361H1042.87V25H1037.33V14.537H1039.42V23.3361ZM1051.93 20.6679C1051.93 20.9677 1051.91 21.2375 1051.87 21.4773H1045.8C1045.85 22.0769 1046.06 22.5466 1046.42 22.8864C1046.79 23.2262 1047.25 23.3961 1047.79 23.3961C1048.57 23.3961 1049.12 23.0613 1049.45 22.3917H1051.72C1051.48 23.1912 1051.02 23.8508 1050.34 24.3704C1049.66 24.8801 1048.82 25.1349 1047.83 25.1349C1047.03 25.1349 1046.31 24.96 1045.68 24.6103C1045.05 24.2505 1044.55 23.7458 1044.19 23.0963C1043.84 22.4467 1043.67 21.6972 1043.67 20.8478C1043.67 19.9883 1043.84 19.2338 1044.19 18.5843C1044.54 17.9347 1045.03 17.435 1045.66 17.0853C1046.29 16.7355 1047.01 16.5606 1047.83 16.5606C1048.62 16.5606 1049.33 16.7305 1049.95 17.0703C1050.58 17.4101 1051.06 17.8947 1051.4 18.5243C1051.75 19.1439 1051.93 19.8584 1051.93 20.6679ZM1049.75 20.0683C1049.74 19.5286 1049.55 19.0989 1049.17 18.7791C1048.79 18.4494 1048.32 18.2845 1047.77 18.2845C1047.25 18.2845 1046.81 18.4444 1046.45 18.7642C1046.11 19.074 1045.89 19.5087 1045.81 20.0683H1049.75ZM1055.9 18.4194V22.4367C1055.9 22.7165 1055.97 22.9214 1056.1 23.0513C1056.24 23.1712 1056.47 23.2312 1056.79 23.2312H1057.76V25H1056.44C1054.67 25 1053.79 24.1406 1053.79 22.4217V18.4194H1052.8V16.6955H1053.79V14.6419H1055.9V16.6955H1057.76V18.4194H1055.9ZM1062.45 25.1349C1061.77 25.1349 1061.16 25.015 1060.62 24.7751C1060.08 24.5253 1059.65 24.1905 1059.33 23.7708C1059.02 23.3511 1058.85 22.8864 1058.82 22.3767H1060.93C1060.97 22.6965 1061.13 22.9614 1061.4 23.1712C1061.68 23.3811 1062.02 23.486 1062.43 23.486C1062.83 23.486 1063.14 23.4061 1063.36 23.2462C1063.59 23.0863 1063.71 22.8814 1063.71 22.6316C1063.71 22.3618 1063.57 22.1619 1063.29 22.032C1063.02 21.8921 1062.58 21.7422 1061.98 21.5823C1061.36 21.4324 1060.85 21.2775 1060.45 21.1176C1060.06 20.9577 1059.72 20.7129 1059.43 20.3831C1059.15 20.0533 1059.01 19.6086 1059.01 19.049C1059.01 18.5893 1059.14 18.1696 1059.4 17.7898C1059.67 17.4101 1060.05 17.1103 1060.54 16.8904C1061.04 16.6706 1061.63 16.5606 1062.3 16.5606C1063.29 16.5606 1064.08 16.8105 1064.67 17.3101C1065.26 17.7998 1065.58 18.4644 1065.64 19.3038H1063.63C1063.6 18.974 1063.46 18.7142 1063.21 18.5243C1062.97 18.3245 1062.65 18.2245 1062.24 18.2245C1061.86 18.2245 1061.56 18.2945 1061.35 18.4344C1061.15 18.5743 1061.05 18.7692 1061.05 19.019C1061.05 19.2988 1061.19 19.5137 1061.47 19.6636C1061.75 19.8035 1062.19 19.9484 1062.78 20.0983C1063.38 20.2482 1063.87 20.4031 1064.26 20.563C1064.65 20.7229 1064.99 20.9727 1065.27 21.3125C1065.56 21.6422 1065.71 22.0819 1065.72 22.6316C1065.72 23.1113 1065.58 23.541 1065.31 23.9207C1065.05 24.3005 1064.67 24.6003 1064.17 24.8201C1063.68 25.03 1063.11 25.1349 1062.45 25.1349ZM1081.42 14.537L1078.5 25H1076.03L1074.06 17.55L1072.01 25L1069.55 25.015L1066.73 14.537H1068.98L1070.83 22.6616L1072.95 14.537H1075.29L1077.3 22.6166L1079.16 14.537H1081.42ZM1087.65 25.1049C1086.67 25.1049 1085.77 24.8751 1084.95 24.4154C1084.13 23.9557 1083.48 23.3211 1083 22.5117C1082.52 21.6922 1082.28 20.7678 1082.28 19.7385C1082.28 18.7192 1082.52 17.8048 1083 16.9953C1083.48 16.1759 1084.13 15.5363 1084.95 15.0766C1085.77 14.6169 1086.67 14.3871 1087.65 14.3871C1088.64 14.3871 1089.54 14.6169 1090.35 15.0766C1091.17 15.5363 1091.81 16.1759 1092.28 16.9953C1092.76 17.8048 1093 18.7192 1093 19.7385C1093 20.7678 1092.76 21.6922 1092.28 22.5117C1091.81 23.3211 1091.17 23.9557 1090.35 24.4154C1089.53 24.8751 1088.63 25.1049 1087.65 25.1049ZM1087.65 23.2312C1088.28 23.2312 1088.83 23.0913 1089.31 22.8115C1089.79 22.5217 1090.17 22.1119 1090.44 21.5823C1090.71 21.0526 1090.84 20.438 1090.84 19.7385C1090.84 19.039 1090.71 18.4294 1090.44 17.9097C1090.17 17.3801 1089.79 16.9754 1089.31 16.6955C1088.83 16.4157 1088.28 16.2758 1087.65 16.2758C1087.02 16.2758 1086.46 16.4157 1085.97 16.6955C1085.49 16.9754 1085.12 17.3801 1084.85 17.9097C1084.58 18.4294 1084.44 19.039 1084.44 19.7385C1084.44 20.438 1084.58 21.0526 1084.85 21.5823C1085.12 22.1119 1085.49 22.5217 1085.97 22.8115C1086.46 23.0913 1087.02 23.2312 1087.65 23.2312ZM1108.55 14.537L1105.63 25H1103.15L1101.19 17.55L1099.14 25L1096.68 25.015L1093.86 14.537H1096.11L1097.95 22.6616L1100.08 14.537H1102.42L1104.43 22.6166L1106.29 14.537H1108.55Z" fill="white"/>
<path d="M1262.69 15.6849C1262.45 15.2452 1262.12 14.9104 1261.7 14.6806C1261.28 14.4507 1260.79 14.3358 1260.23 14.3358C1259.61 14.3358 1259.06 14.4757 1258.58 14.7555C1258.1 15.0353 1257.73 15.435 1257.46 15.9547C1257.19 16.4744 1257.05 17.074 1257.05 17.7535C1257.05 18.453 1257.19 19.0626 1257.46 19.5823C1257.74 20.1019 1258.12 20.5017 1258.61 20.7815C1259.1 21.0613 1259.67 21.2012 1260.32 21.2012C1261.12 21.2012 1261.77 20.9913 1262.28 20.5716C1262.79 20.1419 1263.13 19.5473 1263.29 18.7878H1259.69V17.1839H1265.36V19.0127C1265.22 19.7422 1264.92 20.4167 1264.46 21.0363C1264 21.6559 1263.4 22.1556 1262.67 22.5353C1261.95 22.9051 1261.14 23.0899 1260.24 23.0899C1259.24 23.0899 1258.32 22.8651 1257.5 22.4154C1256.69 21.9557 1256.05 21.3211 1255.58 20.5117C1255.12 19.7022 1254.89 18.7828 1254.89 17.7535C1254.89 16.7242 1255.12 15.8048 1255.58 14.9953C1256.05 14.1759 1256.69 13.5413 1257.5 13.0916C1258.32 12.6319 1259.23 12.4021 1260.23 12.4021C1261.41 12.4021 1262.43 12.6919 1263.3 13.2715C1264.17 13.8411 1264.77 14.6456 1265.1 15.6849H1262.69ZM1274.63 18.6679C1274.63 18.9677 1274.61 19.2375 1274.57 19.4773H1268.5C1268.55 20.0769 1268.76 20.5466 1269.13 20.8864C1269.5 21.2262 1269.95 21.3961 1270.49 21.3961C1271.27 21.3961 1271.83 21.0613 1272.16 20.3917H1274.42C1274.18 21.1912 1273.72 21.8508 1273.04 22.3704C1272.36 22.8801 1271.53 23.1349 1270.54 23.1349C1269.74 23.1349 1269.02 22.96 1268.38 22.6103C1267.75 22.2505 1267.25 21.7458 1266.89 21.0963C1266.54 20.4467 1266.37 19.6972 1266.37 18.8478C1266.37 17.9883 1266.54 17.2338 1266.89 16.5843C1267.24 15.9347 1267.73 15.435 1268.36 15.0853C1268.99 14.7355 1269.72 14.5606 1270.54 14.5606C1271.33 14.5606 1272.03 14.7305 1272.65 15.0703C1273.28 15.4101 1273.76 15.8947 1274.1 16.5243C1274.45 17.1439 1274.63 17.8584 1274.63 18.6679ZM1272.46 18.0683C1272.45 17.5286 1272.25 17.0989 1271.87 16.7791C1271.49 16.4494 1271.03 16.2845 1270.48 16.2845C1269.96 16.2845 1269.52 16.4444 1269.16 16.7642C1268.81 17.074 1268.59 17.5087 1268.51 18.0683H1272.46ZM1278.6 16.4194V20.4367C1278.6 20.7165 1278.67 20.9214 1278.8 21.0513C1278.94 21.1712 1279.17 21.2312 1279.49 21.2312H1280.46V23H1279.14C1277.37 23 1276.49 22.1406 1276.49 20.4217V16.4194H1275.5V14.6955H1276.49V12.6419H1278.6V14.6955H1280.46V16.4194H1278.6ZM1289.16 23.1049C1288.43 23.1049 1287.77 22.98 1287.18 22.7302C1286.6 22.4803 1286.14 22.1206 1285.8 21.6509C1285.46 21.1812 1285.28 20.6266 1285.27 19.987H1287.52C1287.55 20.4167 1287.7 20.7565 1287.97 21.0063C1288.25 21.2562 1288.63 21.3811 1289.11 21.3811C1289.6 21.3811 1289.99 21.2662 1290.27 21.0363C1290.55 20.7965 1290.69 20.4867 1290.69 20.1069C1290.69 19.7971 1290.59 19.5423 1290.4 19.3424C1290.21 19.1426 1289.97 18.9877 1289.68 18.8777C1289.4 18.7578 1289.01 18.6279 1288.51 18.488C1287.83 18.2881 1287.28 18.0933 1286.85 17.9034C1286.43 17.7035 1286.06 17.4087 1285.75 17.019C1285.45 16.6193 1285.3 16.0896 1285.3 15.4301C1285.3 14.8105 1285.46 14.2708 1285.77 13.8111C1286.08 13.3514 1286.51 13.0017 1287.07 12.7618C1287.63 12.512 1288.27 12.3871 1288.99 12.3871C1290.07 12.3871 1290.95 12.6519 1291.61 13.1815C1292.29 13.7012 1292.67 14.4307 1292.74 15.3701H1290.43C1290.41 15.0103 1290.26 14.7155 1289.97 14.4857C1289.69 14.2458 1289.31 14.1259 1288.84 14.1259C1288.43 14.1259 1288.1 14.2308 1287.85 14.4407C1287.61 14.6506 1287.49 14.9554 1287.49 15.3551C1287.49 15.6349 1287.58 15.8698 1287.76 16.0596C1287.95 16.2395 1288.18 16.3894 1288.45 16.5093C1288.73 16.6193 1289.12 16.7492 1289.62 16.8991C1290.3 17.0989 1290.86 17.2988 1291.28 17.4987C1291.71 17.6985 1292.08 17.9983 1292.39 18.3981C1292.7 18.7978 1292.86 19.3225 1292.86 19.972C1292.86 20.5316 1292.71 21.0513 1292.42 21.531C1292.13 22.0107 1291.71 22.3954 1291.15 22.6852C1290.59 22.965 1289.93 23.1049 1289.16 23.1049ZM1302.4 18.6679C1302.4 18.9677 1302.38 19.2375 1302.34 19.4773H1296.27C1296.32 20.0769 1296.53 20.5466 1296.9 20.8864C1297.27 21.2262 1297.72 21.3961 1298.26 21.3961C1299.04 21.3961 1299.6 21.0613 1299.92 20.3917H1302.19C1301.95 21.1912 1301.49 21.8508 1300.81 22.3704C1300.13 22.8801 1299.3 23.1349 1298.31 23.1349C1297.51 23.1349 1296.79 22.96 1296.15 22.6103C1295.52 22.2505 1295.02 21.7458 1294.66 21.0963C1294.31 20.4467 1294.14 19.6972 1294.14 18.8478C1294.14 17.9883 1294.31 17.2338 1294.66 16.5843C1295.01 15.9347 1295.5 15.435 1296.13 15.0853C1296.76 14.7355 1297.49 14.5606 1298.31 14.5606C1299.1 14.5606 1299.8 14.7305 1300.42 15.0703C1301.05 15.4101 1301.53 15.8947 1301.87 16.5243C1302.22 17.1439 1302.4 17.8584 1302.4 18.6679ZM1300.22 18.0683C1300.21 17.5286 1300.02 17.0989 1299.64 16.7791C1299.26 16.4494 1298.8 16.2845 1298.25 16.2845C1297.73 16.2845 1297.29 16.4444 1296.93 16.7642C1296.58 17.074 1296.36 17.5087 1296.28 18.0683H1300.22ZM1306.37 16.4194V20.4367C1306.37 20.7165 1306.44 20.9214 1306.57 21.0513C1306.71 21.1712 1306.94 21.2312 1307.26 21.2312H1308.23V23H1306.91C1305.14 23 1304.26 22.1406 1304.26 20.4217V16.4194H1303.27V14.6955H1304.26V12.6419H1306.37V14.6955H1308.23V16.4194H1306.37ZM1327.3 12.537L1324.38 23H1321.9L1319.94 15.55L1317.89 23L1315.43 23.015L1312.61 12.537H1314.86L1316.7 20.6616L1318.83 12.537H1321.17L1323.18 20.6166L1325.04 12.537H1327.3ZM1333.53 23.1049C1332.55 23.1049 1331.65 22.8751 1330.83 22.4154C1330.01 21.9557 1329.36 21.3211 1328.88 20.5117C1328.4 19.6922 1328.16 18.7678 1328.16 17.7385C1328.16 16.7192 1328.4 15.8048 1328.88 14.9953C1329.36 14.1759 1330.01 13.5363 1330.83 13.0766C1331.65 12.6169 1332.55 12.3871 1333.53 12.3871C1334.52 12.3871 1335.41 12.6169 1336.22 13.0766C1337.04 13.5363 1337.69 14.1759 1338.16 14.9953C1338.64 15.8048 1338.88 16.7192 1338.88 17.7385C1338.88 18.7678 1338.64 19.6922 1338.16 20.5117C1337.69 21.3211 1337.04 21.9557 1336.22 22.4154C1335.4 22.8751 1334.51 23.1049 1333.53 23.1049ZM1333.53 21.2312C1334.16 21.2312 1334.71 21.0913 1335.19 20.8115C1335.67 20.5217 1336.04 20.1119 1336.31 19.5823C1336.58 19.0526 1336.72 18.438 1336.72 17.7385C1336.72 17.039 1336.58 16.4294 1336.31 15.9097C1336.04 15.3801 1335.67 14.9754 1335.19 14.6955C1334.71 14.4157 1334.16 14.2758 1333.53 14.2758C1332.9 14.2758 1332.34 14.4157 1331.85 14.6955C1331.37 14.9754 1330.99 15.3801 1330.72 15.9097C1330.45 16.4294 1330.32 17.039 1330.32 17.7385C1330.32 18.438 1330.45 19.0526 1330.72 19.5823C1330.99 20.1119 1331.37 20.5217 1331.85 20.8115C1332.34 21.0913 1332.9 21.2312 1333.53 21.2312ZM1354.42 12.537L1351.5 23H1349.03L1347.06 15.55L1345.01 23L1342.55 23.015L1339.73 12.537H1341.98L1343.83 20.6616L1345.96 12.537H1348.29L1350.3 20.6166L1352.16 12.537H1354.42ZM1362.08 12.3571L1361.84 19.5973H1360.07L1359.82 12.3571H1362.08ZM1361 23.1049C1360.62 23.1049 1360.31 22.99 1360.06 22.7602C1359.82 22.5203 1359.7 22.2255 1359.7 21.8757C1359.7 21.526 1359.82 21.2362 1360.06 21.0063C1360.31 20.7665 1360.62 20.6466 1361 20.6466C1361.37 20.6466 1361.68 20.7665 1361.91 21.0063C1362.15 21.2362 1362.27 21.526 1362.27 21.8757C1362.27 22.2255 1362.15 22.5203 1361.91 22.7602C1361.68 22.99 1361.37 23.1049 1361 23.1049Z" fill="white"/>
<defs>
<linearGradient id="paint0_linear_884_1610" x1="5.12242e-06" y1="16.9998" x2="1452" y2="17" gradientUnits="userSpaceOnUse">
<stop stop-color="#4285F4"/>
<stop offset="0.291667" stop-color="#DB4437"/>
<stop offset="0.541667" stop-color="#F89B00"/>
<stop offset="0.791667" stop-color="#0F9D58"/>
<stop offset="1" stop-color="#4285F4"/>
</linearGradient>
</defs>
</svg>
