<svg width="62" height="62" viewBox="0 0 62 62" fill="none" xmlns="http://www.w3.org/2000/svg">
<path fill-rule="evenodd" clip-rule="evenodd" d="M3.75932 28.8302C2.08869 29.7947 2.08869 32.2061 3.75932 33.1706L15.7447 40.0904C14.1556 37.4326 13.2423 34.3242 13.2423 31.0025C13.2423 27.6781 14.157 24.5674 15.7485 21.9083L3.75932 28.8302ZM30.7101 13.2702C30.7988 13.2689 30.8876 13.2682 30.9766 13.2682C37.6582 13.2682 43.4769 16.9634 46.5004 22.4216V8.49407C46.5004 6.56498 44.4121 5.35931 42.7415 6.32385L30.7101 13.2702ZM46.5004 39.5833C43.4769 45.0416 37.6582 48.7367 30.9766 48.7367C30.89 48.7367 30.8036 48.7361 30.7174 48.7349L42.7415 55.677C44.4121 56.6415 46.5004 55.4358 46.5004 53.5068V39.5833Z" fill="#34A853" fill-opacity="0.9"/>
<path fill-rule="evenodd" clip-rule="evenodd" d="M48.7075 31.3295C48.7095 31.2206 48.7105 31.1115 48.7105 31.0022C48.7105 24.3364 45.0329 18.5296 39.596 15.5H53.5063C55.4354 15.5 56.641 17.5883 55.6765 19.2589L48.7075 31.3295ZM40.1227 46.1989C37.4521 47.8097 34.3224 48.7365 30.9762 48.7365C27.6603 48.7365 24.5569 47.8264 21.9023 46.2424L28.8297 58.2411C29.7942 59.9117 32.2056 59.9117 33.1701 58.2411L40.1227 46.1989ZM13.2436 31.2452L6.32336 19.2589C5.35882 17.5883 6.5645 15.5 8.49358 15.5H22.3565C16.9196 18.5296 13.242 24.3364 13.242 31.0022C13.242 31.0833 13.2425 31.1643 13.2436 31.2452Z" fill="#FBBC04" fill-opacity="0.9"/>
<path fill-rule="evenodd" clip-rule="evenodd" d="M58.2415 33.1706C59.9122 32.2061 59.9122 29.7947 58.2416 28.8302L46.1794 21.8661C47.7865 24.5345 48.7109 27.6606 48.7109 31.0026C48.7109 34.3418 47.788 37.4655 46.1833 40.1324L58.2415 33.1706ZM31.2846 48.7342C31.1822 48.7359 31.0795 48.7368 30.9766 48.7368C24.3299 48.7368 18.5372 45.0802 15.5005 39.6689V53.5068C15.5005 55.4358 17.5888 56.6415 19.2594 55.677L31.2846 48.7342ZM31.2923 13.2711L19.2594 6.32385C17.5888 5.35931 15.5005 6.56498 15.5005 8.49406V22.3363C18.5372 16.9249 24.3299 13.2683 30.9766 13.2683C31.0821 13.2683 31.1873 13.2692 31.2923 13.2711Z" fill="#EA4335" fill-opacity="0.9"/>
<path fill-rule="evenodd" clip-rule="evenodd" d="M33.1701 3.75884C32.2056 2.0882 29.7942 2.0882 28.8297 3.75883L21.8984 15.7642C24.5539 14.1788 27.6587 13.2678 30.9763 13.2678C34.324 13.2678 37.4551 14.1954 40.1265 15.8076L33.1701 3.75884ZM48.7075 30.6703C48.7095 30.7806 48.7105 30.8912 48.7105 31.0021C48.7105 37.6646 45.0364 43.4691 39.6038 46.4999H53.5063C55.4353 46.4999 56.641 44.4116 55.6765 42.741L48.7075 30.6703ZM22.3487 46.4999C16.9161 43.4691 13.242 37.6646 13.242 31.0021C13.242 30.9194 13.2426 30.8369 13.2437 30.7546L6.32336 42.741C5.35882 44.4116 6.56449 46.4999 8.49357 46.4999H22.3487Z" fill="#4285F4" fill-opacity="0.9"/>
<path fill-rule="evenodd" clip-rule="evenodd" d="M41.1034 19.0639C34.5322 13.4892 24.6927 14.2838 19.1004 20.8314C20.2234 19.5513 22.1699 19.4041 23.4734 20.5099C24.7902 21.6271 24.9521 23.6002 23.8351 24.9171L23.8355 24.9174C27.1781 20.9775 33.0748 20.4838 37.0254 23.8055C37.036 23.8147 37.0466 23.8239 37.0573 23.8329C38.3742 24.9502 40.3475 24.7883 41.4648 23.4714C42.582 22.1545 42.4202 20.1813 41.1034 19.064L41.1034 19.0639Z" fill="url(#paint0_linear_800_1853)"/>
<path fill-rule="evenodd" clip-rule="evenodd" d="M19.0651 20.8724L19.065 20.8726C13.4947 27.4383 14.2834 37.2671 20.816 42.8618L20.8725 42.9097L20.8726 42.9096C19.5558 41.7924 19.394 39.8192 20.5112 38.5023C21.624 37.1907 23.5859 37.0248 24.9027 38.1273C20.9736 34.7791 20.4886 28.8849 23.8164 24.9395C23.8224 24.9325 23.8284 24.9255 23.8344 24.9184C24.9517 23.6015 24.7898 21.6282 23.4729 20.5109C22.156 19.3937 20.1827 19.5555 19.0654 20.8725C19.0654 20.8725 19.0653 20.8726 19.0653 20.8726L19.0651 20.8724Z" fill="url(#paint1_linear_800_1853)"/>
<path fill-rule="evenodd" clip-rule="evenodd" d="M20.8739 42.9085C27.4585 48.4948 37.3249 47.6856 42.9112 41.101L42.9111 41.1009C41.7939 42.4178 39.8206 42.5796 38.5038 41.4623C37.1891 40.347 37.0255 38.3785 38.1365 37.0616C34.7911 40.9976 28.8942 41.4872 24.9457 38.1614C24.9372 38.154 24.9287 38.1467 24.9201 38.1395C23.6032 37.0222 21.6299 37.1841 20.5126 38.501C19.3954 39.8179 19.5572 41.7911 20.8741 42.9084L20.8739 42.9085Z" fill="url(#paint2_linear_800_1853)"/>
<path fill-rule="evenodd" clip-rule="evenodd" d="M42.9115 41.1022L42.9115 41.1021C48.485 34.5327 47.6923 24.6965 41.1494 19.1034L41.124 19.0818C42.4225 20.202 42.5771 22.162 41.4655 23.4722C40.3506 24.7864 38.3833 24.9503 37.0664 23.8408C41.0024 27.1879 41.4902 33.0871 38.1604 37.035C38.1543 37.042 38.1483 37.049 38.1423 37.0561C37.0251 38.373 37.1869 40.3463 38.5039 41.4636C39.8208 42.5808 41.7941 42.419 42.9113 41.1021L42.9115 41.1022Z" fill="url(#paint3_linear_800_1853)"/>
<defs>
<linearGradient id="paint0_linear_800_1853" x1="33.4352" y1="19.1605" x2="21.6964" y2="22.5082" gradientUnits="userSpaceOnUse">
<stop stop-color="#4285F4"/>
<stop offset="1" stop-color="#4285F4" stop-opacity="0.7"/>
</linearGradient>
<linearGradient id="paint1_linear_800_1853" x1="19.1617" y1="28.5407" x2="22.5095" y2="40.2796" gradientUnits="userSpaceOnUse">
<stop stop-color="#0F9D58"/>
<stop offset="1" stop-color="#0F9D58" stop-opacity="0.7"/>
</linearGradient>
<linearGradient id="paint2_linear_800_1853" x1="28.5423" y1="42.8121" x2="40.2812" y2="39.4643" gradientUnits="userSpaceOnUse">
<stop stop-color="#F4B400"/>
<stop offset="1" stop-color="#F4B400" stop-opacity="0.7"/>
</linearGradient>
<linearGradient id="paint3_linear_800_1853" x1="42.8177" y1="33.4362" x2="39.4676" y2="21.7041" gradientUnits="userSpaceOnUse">
<stop stop-color="#DB4437"/>
<stop offset="1" stop-color="#DB4437" stop-opacity="0.7"/>
</linearGradient>
</defs>
</svg>
