<svg width="35" height="35" viewBox="0 0 35 35" fill="none" xmlns="http://www.w3.org/2000/svg">
<path d="M29.629 6.06007C27.3982 5.03649 25.006 4.28236 22.5049 3.85044C22.4593 3.84211 22.4138 3.86294 22.3903 3.90461C22.0827 4.45179 21.7419 5.16565 21.5033 5.72673C18.8131 5.32398 16.1367 5.32398 13.5017 5.72673C13.263 5.15317 12.9099 4.45179 12.6008 3.90461C12.5774 3.86433 12.5319 3.8435 12.4863 3.85044C9.98653 4.28098 7.59436 5.03511 5.3622 6.06007C5.34287 6.0684 5.32631 6.0823 5.31532 6.10034C0.777863 12.8792 -0.465136 19.4914 0.144638 26.0217C0.147397 26.0536 0.165331 26.0842 0.190164 26.1036C3.18385 28.3021 6.08374 29.6368 8.92978 30.5215C8.97533 30.5354 9.02359 30.5187 9.05258 30.4812C9.72581 29.5618 10.3259 28.5924 10.8405 27.573C10.8709 27.5133 10.8419 27.4425 10.7798 27.4188C9.8279 27.0578 8.9215 26.6175 8.04961 26.1175C7.98064 26.0773 7.97512 25.9786 8.03856 25.9314C8.22204 25.7939 8.40557 25.6509 8.58077 25.5064C8.61246 25.48 8.65663 25.4745 8.6939 25.4911C14.4219 28.1063 20.6231 28.1063 26.2835 25.4911C26.3207 25.4731 26.3649 25.4787 26.398 25.505C26.5732 25.6495 26.7567 25.7939 26.9416 25.9314C27.005 25.9786 27.0009 26.0773 26.9319 26.1175C26.06 26.6272 25.1536 27.0578 24.2003 27.4175C24.1383 27.4411 24.1107 27.5133 24.141 27.573C24.6666 28.591 25.2667 29.5604 25.9276 30.4798C25.9552 30.5187 26.0048 30.5354 26.0504 30.5215C28.9102 29.6368 31.8101 28.3021 34.8038 26.1036C34.83 26.0842 34.8465 26.055 34.8493 26.0231C35.5791 18.4734 33.627 11.9154 29.6745 6.10172C29.6648 6.0823 29.6483 6.0684 29.629 6.06007ZM11.6959 22.0455C9.97135 22.0455 8.5504 20.4622 8.5504 18.5179C8.5504 16.5735 9.9438 14.9902 11.6959 14.9902C13.4617 14.9902 14.8689 16.5874 14.8413 18.5179C14.8413 20.4622 13.4479 22.0455 11.6959 22.0455ZM23.3257 22.0455C21.6012 22.0455 20.1803 20.4622 20.1803 18.5179C20.1803 16.5735 21.5736 14.9902 23.3257 14.9902C25.0915 14.9902 26.4987 16.5874 26.4711 18.5179C26.4711 20.4622 25.0915 22.0455 23.3257 22.0455Z" fill="#010000"/>
</svg>
