<svg width="487" height="487" viewBox="0 0 487 487" fill="none" xmlns="http://www.w3.org/2000/svg">
<path d="M94.8021 302.87C88.5544 312.279 94.8352 324.923 106.108 325.629L369.134 342.107C380.406 342.813 388.216 331.052 383.191 320.936L265.948 84.91C260.924 74.7948 246.833 73.912 240.585 83.3211L94.8021 302.87Z" fill="#34A853" fill-opacity="0.9"/>
<path d="M183.721 94.8021C174.312 88.5544 161.667 94.8352 160.961 106.108L144.484 369.134C143.778 380.406 155.539 388.216 165.654 383.191L401.68 265.948C411.796 260.924 412.678 246.833 403.269 240.585L183.721 94.8021Z" fill="#FBBC04" fill-opacity="0.9"/>
<path d="M302.869 391.788C312.278 398.035 324.922 391.755 325.628 380.482L342.106 117.456C342.812 106.184 331.051 98.3739 320.936 103.399L84.9093 220.642C74.794 225.666 73.9113 239.757 83.3204 246.005L302.869 391.788Z" fill="#DB4437"/>
<path d="M391.788 183.72C398.035 174.311 391.754 161.667 380.482 160.961L117.456 144.483C106.183 143.777 98.3737 155.538 103.398 165.654L220.642 401.68C225.666 411.795 239.757 412.678 246.004 403.269L391.788 183.72Z" fill="#4285F4"/>
</svg>
