<svg width="520" height="245" viewBox="0 0 520 245" fill="none" xmlns="http://www.w3.org/2000/svg">
<mask id="mask0_800_1941" style="mask-type:alpha" maskUnits="userSpaceOnUse" x="2" y="66" width="177" height="136">
<path d="M166.613 68.5841C174.729 71.4968 178.787 75.3804 178.787 80.235C178.787 81.8123 178.06 84.7864 176.606 89.1548L141.721 190.189C141.479 191.039 141.055 192.071 140.449 193.284C139.844 194.498 138.208 196.137 135.544 198.199C133 200.141 129.911 201.112 126.277 201.112C122.765 201.112 119.676 200.141 117.011 198.199C114.467 196.137 112.772 194.133 111.923 192.192L90.6651 129.387C77.2198 169.193 70.3762 189.461 70.1339 190.189C69.8917 190.918 69.3465 191.949 68.4987 193.284C67.6507 194.619 66.6817 195.833 65.5916 196.925C62.8056 199.716 59.4745 201.112 55.5984 201.112C51.7223 201.112 48.5123 200.202 45.9686 198.382C43.5461 196.561 41.9108 194.741 41.0629 192.92L39.7911 190.189L4.72421 89.1548C3.3918 85.1501 2.72559 82.1768 2.72559 80.235C2.72559 75.3804 6.7834 71.5575 14.8991 68.7662C18.4118 67.5525 21.5612 66.9457 24.3471 66.9457C27.2542 66.9457 29.4345 67.9166 30.8881 69.8584C32.4627 71.8002 33.8557 74.7736 35.0671 78.7786L55.0533 139.581L74.8579 79.689C76.5534 74.5916 79.6424 71.072 84.124 69.1303C86.0621 68.2807 88.5459 67.856 91.5738 67.856C94.7232 67.856 97.6304 68.8875 100.295 70.9507C102.96 72.8925 104.656 74.8343 105.382 76.7762L126.277 139.945L146.264 78.7786C147.233 75.9875 148.02 73.9241 148.626 72.5891C149.231 71.2541 150.321 69.9798 151.896 68.7662C153.592 67.4311 155.651 66.7637 158.073 66.7637C160.496 66.7637 163.343 67.3705 166.613 68.5841Z" fill="black"/>
</mask>
<g mask="url(#mask0_800_1941)">
<path d="M141.257 210.719C138.1 220.257 127.822 225.427 118.302 222.265C108.781 219.104 103.623 208.809 106.781 199.271L150.959 65.8327C154.116 56.2948 164.394 51.1256 173.914 54.287C183.435 57.4484 188.593 67.7432 185.435 77.2811L141.257 210.719Z" fill="#0F9D58" fill-opacity="0.95"/>
<path d="M113.618 199.457C116.261 207.476 124.892 211.831 132.896 209.184C140.9 206.538 145.245 197.892 142.602 189.874L103.934 72.5759C101.291 64.5572 92.6596 60.2022 84.6558 62.8487C76.652 65.4951 72.3065 74.1408 74.9498 82.1594L113.618 199.457Z" fill="#F4B400" fill-opacity="0.95"/>
<path d="M67.6938 198.272C65.0655 206.21 56.511 210.513 48.5868 207.882C40.6626 205.25 36.3694 196.681 38.9977 188.743L79.8155 65.4526C82.4438 57.5137 90.9983 53.2112 98.9225 55.8425C106.847 58.4739 111.14 67.0427 108.511 74.9815L67.6938 198.272Z" fill="#DB4437" fill-opacity="0.95"/>
<path d="M42.257 216.414C45.4 225.908 55.6299 231.053 65.1061 227.907C74.5822 224.76 79.7162 214.513 76.5731 205.019L32.3426 71.4205C29.1995 61.9269 18.9696 56.7817 9.49346 59.9284C0.0173099 63.0751 -5.11667 73.3221 -1.9736 82.8157L42.257 216.414Z" fill="#4285F4" fill-opacity="0.95"/>
</g>
<mask id="mask1_800_1941" style="mask-type:alpha" maskUnits="userSpaceOnUse" x="340" y="66" width="177" height="136">
<path d="M352.781 68.5841C344.665 71.4968 340.607 75.3804 340.607 80.235C340.607 81.8123 341.334 84.7864 342.787 89.1548L377.673 190.189C377.915 191.039 378.339 192.071 378.944 193.284C379.55 194.498 381.185 196.137 383.85 198.199C386.394 200.141 389.482 201.112 393.116 201.112C396.629 201.112 399.718 200.141 402.383 198.199C404.926 196.137 406.622 194.133 407.47 192.192L428.728 129.387C442.174 169.193 449.018 189.461 449.26 190.189C449.502 190.918 450.047 191.949 450.895 193.284C451.743 194.619 452.712 195.833 453.802 196.925C456.588 199.716 459.919 201.112 463.795 201.112C467.671 201.112 470.881 200.202 473.425 198.382C475.848 196.561 477.483 194.741 478.331 192.92L479.602 190.189L514.67 89.1548C516.002 85.1501 516.668 82.1768 516.668 80.235C516.668 75.3804 512.61 71.5575 504.495 68.7662C500.982 67.5525 497.833 66.9457 495.046 66.9457C492.14 66.9457 489.959 67.9166 488.506 69.8584C486.931 71.8002 485.537 74.7736 484.327 78.7786L464.341 139.581L444.536 79.689C442.84 74.5916 439.751 71.072 435.27 69.1303C433.331 68.2807 430.848 67.856 427.82 67.856C424.67 67.856 421.763 68.8875 419.098 70.9507C416.434 72.8925 414.738 74.8343 414.011 76.7762L393.116 139.945L373.13 78.7786C372.161 75.9875 371.374 73.9241 370.768 72.5891C370.162 71.2541 369.073 69.9798 367.498 68.7662C365.802 67.4311 363.743 66.7637 361.32 66.7637C358.898 66.7637 356.051 67.3705 352.781 68.5841Z" fill="black"/>
</mask>
<g mask="url(#mask1_800_1941)">
<path d="M378.136 210.719C381.294 220.257 391.572 225.427 401.092 222.265C410.612 219.104 415.77 208.809 412.613 199.271L368.435 65.8327C365.277 56.2948 355 51.1256 345.479 54.287C335.959 57.4484 330.801 67.7432 333.959 77.2811L378.136 210.719Z" fill="#0F9D58" fill-opacity="0.95"/>
<path d="M405.777 199.457C403.134 207.476 394.502 211.831 386.499 209.184C378.495 206.538 374.149 197.892 376.793 189.874L415.46 72.5759C418.104 64.5572 426.735 60.2022 434.739 62.8487C442.743 65.4951 447.088 74.1408 444.445 82.1594L405.777 199.457Z" fill="#F4B400" fill-opacity="0.95"/>
<path d="M451.701 198.272C454.329 206.21 462.884 210.513 470.808 207.882C478.732 205.25 483.025 196.681 480.397 188.743L439.579 65.4526C436.951 57.5137 428.396 53.2112 420.472 55.8425C412.548 58.4739 408.255 67.0427 410.883 74.9815L451.701 198.272Z" fill="#DB4437" fill-opacity="0.95"/>
<path d="M477.137 216.414C473.994 225.908 463.764 231.053 454.287 227.907C444.811 224.76 439.677 214.513 442.82 205.019L487.051 71.4205C490.194 61.9269 500.424 56.7817 509.9 59.9284C519.376 63.0751 524.51 73.3221 521.367 82.8157L477.137 216.414Z" fill="#4285F4" fill-opacity="0.95"/>
</g>
<path fill-rule="evenodd" clip-rule="evenodd" d="M178.25 128.055C173.242 130.951 173.242 138.193 178.25 141.09L214.174 161.87C209.411 153.889 206.673 144.554 206.673 134.578C206.673 124.595 209.415 115.253 214.186 107.267L178.25 128.055ZM259.031 81.3257C259.297 81.322 259.563 81.3197 259.829 81.3197C279.857 81.3197 297.297 92.4173 306.36 108.809V66.9823C306.36 61.1889 300.101 57.5681 295.094 60.4648L259.031 81.3257ZM306.36 160.347C297.297 176.74 279.857 187.837 259.829 187.837C259.571 187.837 259.312 187.835 259.053 187.831L295.094 208.68C300.101 211.577 306.36 207.955 306.36 202.162V160.347Z" fill="#34A853" fill-opacity="0.9"/>
<path fill-rule="evenodd" clip-rule="evenodd" d="M312.977 135.562C312.983 135.234 312.986 134.907 312.986 134.579C312.986 114.561 301.962 97.1217 285.667 88.0234H327.36C333.143 88.0234 336.756 94.2944 333.865 99.3116L312.977 135.562ZM287.245 180.217C279.24 185.054 269.859 187.838 259.83 187.838C249.891 187.838 240.589 185.104 232.632 180.348L253.396 216.381C256.287 221.398 263.515 221.398 266.405 216.381L287.245 180.217ZM206.679 135.308L185.936 99.3116C183.045 94.2944 186.659 88.0234 192.441 88.0234H233.993C217.697 97.1217 206.673 114.561 206.673 134.579C206.673 134.822 206.676 135.066 206.679 135.308Z" fill="#FBBC04" fill-opacity="0.9"/>
<path fill-rule="evenodd" clip-rule="evenodd" d="M341.553 141.09C346.561 138.193 346.561 130.951 341.553 128.055L305.398 107.14C310.215 115.154 312.986 124.542 312.986 134.578C312.986 144.607 310.22 153.988 305.41 161.997L341.553 141.09ZM260.753 187.83C260.446 187.835 260.138 187.837 259.83 187.837C239.907 187.837 222.545 176.856 213.442 160.605V202.162C213.442 207.955 219.702 211.577 224.71 208.68L260.753 187.83ZM260.777 81.3288L224.71 60.4648C219.702 57.5681 213.442 61.1889 213.442 66.9823V108.552C222.545 92.3016 239.907 81.3204 259.83 81.3204C260.147 81.3204 260.462 81.3227 260.777 81.3288Z" fill="#EA4335" fill-opacity="0.9"/>
<path fill-rule="evenodd" clip-rule="evenodd" d="M266.405 52.7628C263.515 47.7457 256.287 47.7457 253.395 52.7628L232.62 88.8163C240.579 84.0554 249.886 81.3196 259.829 81.3196C269.864 81.3196 279.249 84.1053 287.256 88.9471L266.405 52.7628ZM312.976 133.582C312.983 133.913 312.986 134.246 312.986 134.578C312.986 154.587 301.973 172.019 285.69 181.121H327.361C333.143 181.121 336.756 174.849 333.866 169.832L312.976 133.582ZM233.97 181.121C217.686 172.019 206.674 154.587 206.674 134.578C206.674 134.33 206.675 134.082 206.678 133.836L185.936 169.832C183.045 174.849 186.659 181.121 192.441 181.121H233.97Z" fill="#4285F4" fill-opacity="0.9"/>
<path fill-rule="evenodd" clip-rule="evenodd" d="M290.185 98.7324C270.48 81.9832 240.97 84.3788 224.212 104.065C227.575 100.198 233.425 99.7465 237.341 103.075C241.288 106.43 241.773 112.356 238.425 116.31L238.426 116.311C248.446 104.477 266.124 102.996 277.966 112.976C277.996 113.002 278.026 113.028 278.056 113.054C282.004 116.41 287.918 115.923 291.267 111.969C294.616 108.014 294.131 102.088 290.184 98.7324H290.185Z" fill="url(#paint0_linear_800_1941)"/>
<path fill-rule="evenodd" clip-rule="evenodd" d="M224.128 104.16C207.42 123.89 209.799 153.434 229.416 170.23L229.546 170.341C225.599 166.985 225.114 161.059 228.463 157.104C231.806 153.156 237.707 152.665 241.654 156.003C229.848 145.949 228.386 128.222 238.377 116.364C238.393 116.346 238.408 116.328 238.423 116.31C241.773 112.355 241.288 106.429 237.34 103.074C233.393 99.7185 227.478 100.205 224.129 104.16H224.128Z" fill="url(#paint1_linear_800_1941)"/>
<path fill-rule="evenodd" clip-rule="evenodd" d="M229.548 170.34V170.341C249.243 187.081 278.73 184.697 295.494 165.04L295.603 164.912C292.254 168.867 286.339 169.353 282.391 165.998C278.444 162.643 277.959 156.717 281.308 152.762C271.272 164.614 253.555 166.082 241.713 156.05C241.701 156.04 241.689 156.029 241.676 156.019C237.729 152.663 231.814 153.15 228.465 157.104C225.117 161.059 225.602 166.985 229.548 170.34Z" fill="url(#paint2_linear_800_1941)"/>
<path fill-rule="evenodd" clip-rule="evenodd" d="M290.315 98.8416L290.223 98.7637C294.136 102.125 294.607 108.025 291.269 111.967C287.931 115.909 282.045 116.405 278.098 113.087C289.897 123.154 291.342 140.893 281.323 152.745C281.318 152.75 281.313 152.756 281.308 152.762C277.959 156.717 278.445 162.643 282.392 165.998C286.339 169.353 292.254 168.867 295.602 164.912L295.603 164.913L295.653 164.853C312.306 145.122 309.912 115.621 290.315 98.8416Z" fill="url(#paint3_linear_800_1941)"/>
<path d="M21.6989 17.7247C21.6989 20.544 20.8626 22.7899 19.1898 24.4627C17.3103 26.4549 14.8388 27.4511 11.7752 27.4511C8.84322 27.4511 6.36229 26.4362 4.33244 24.4063C2.30259 22.3765 1.28767 19.8767 1.28767 16.9071C1.28767 13.9375 2.30259 11.4378 4.33244 9.40798C6.36229 7.37813 8.84322 6.3632 11.7752 6.3632C13.26 6.3632 14.6602 6.62633 15.9759 7.15259C17.2915 7.67884 18.3722 8.42124 19.218 9.37978L17.3573 11.2405C16.7371 10.4887 15.9289 9.90604 14.9328 9.49255C13.9554 9.06027 12.9029 8.84413 11.7752 8.84413C9.57622 8.84413 7.71553 9.60532 6.19314 11.1277C4.68955 12.6689 3.93775 14.5954 3.93775 16.9071C3.93775 19.2189 4.68955 21.1454 6.19314 22.6866C7.71553 24.209 9.57622 24.9702 11.7752 24.9702C13.7863 24.9702 15.459 24.4063 16.7935 23.2786C18.1279 22.1509 18.8985 20.6003 19.1052 18.6269H11.7752V16.2023H21.558C21.6519 16.7286 21.6989 17.2361 21.6989 17.7247ZM23.4722 20.0929C23.4722 17.9691 24.1394 16.2117 25.4738 14.8209C26.8271 13.4301 28.528 12.7347 30.5767 12.7347C32.6253 12.7347 34.3168 13.4301 35.6513 14.8209C37.0045 16.2117 37.6811 17.9691 37.6811 20.0929C37.6811 22.2355 37.0045 23.9928 35.6513 25.3648C34.3168 26.7557 32.6253 27.4511 30.5767 27.4511C28.528 27.4511 26.8271 26.7557 25.4738 25.3648C24.1394 23.974 23.4722 22.2167 23.4722 20.0929ZM26.0659 20.0929C26.0659 21.5777 26.4982 22.7805 27.3627 23.7015C28.2273 24.6224 29.2986 25.0829 30.5767 25.0829C31.8547 25.0829 32.926 24.6224 33.7906 23.7015C34.6551 22.7805 35.0874 21.5777 35.0874 20.0929C35.0874 18.6269 34.6551 17.4334 33.7906 16.5124C32.9072 15.5727 31.8359 15.1028 30.5767 15.1028C29.3174 15.1028 28.2461 15.5727 27.3627 16.5124C26.4982 17.4334 26.0659 18.6269 26.0659 20.0929ZM39.2478 20.0929C39.2478 17.9691 39.915 16.2117 41.2494 14.8209C42.6027 13.4301 44.3036 12.7347 46.3523 12.7347C48.4009 12.7347 50.0924 13.4301 51.4269 14.8209C52.7801 16.2117 53.4567 17.9691 53.4567 20.0929C53.4567 22.2355 52.7801 23.9928 51.4269 25.3648C50.0924 26.7557 48.4009 27.4511 46.3523 27.4511C44.3036 27.4511 42.6027 26.7557 41.2494 25.3648C39.915 23.974 39.2478 22.2167 39.2478 20.0929ZM41.8415 20.0929C41.8415 21.5777 42.2738 22.7805 43.1383 23.7015C44.0029 24.6224 45.0742 25.0829 46.3523 25.0829C47.6303 25.0829 48.7016 24.6224 49.5662 23.7015C50.4307 22.7805 50.863 21.5777 50.863 20.0929C50.863 18.6269 50.4307 17.4334 49.5662 16.5124C48.6828 15.5727 47.6115 15.1028 46.3523 15.1028C45.093 15.1028 44.0217 15.5727 43.1383 16.5124C42.2738 17.4334 41.8415 18.6269 41.8415 20.0929ZM62.0151 25.0829C63.2931 25.0829 64.3363 24.6224 65.1444 23.7015C65.9902 22.7805 66.4131 21.5777 66.4131 20.0929C66.4131 18.6457 65.9902 17.4522 65.1444 16.5124C64.3175 15.5727 63.2743 15.1028 62.0151 15.1028C60.7746 15.1028 59.7315 15.5727 58.8857 16.5124C58.04 17.4522 57.6171 18.6457 57.6171 20.0929C57.6171 21.5589 58.04 22.7524 58.8857 23.6733C59.7315 24.613 60.7746 25.0829 62.0151 25.0829ZM61.9305 33.5406C61.1599 33.5406 60.4363 33.4373 59.7597 33.2305C59.0831 33.0426 58.4628 32.77 57.899 32.4129C57.354 32.0558 56.8841 31.6329 56.4894 31.1443C56.0947 30.6556 55.794 30.1106 55.5872 29.5091L58.04 28.4942C58.3219 29.3024 58.8106 29.9508 59.506 30.4395C60.2014 30.9281 61.0096 31.1725 61.9305 31.1725C63.3401 31.1725 64.4396 30.7496 65.229 29.9038C66.0184 29.058 66.4131 27.8928 66.4131 26.408V25.0829H66.3003C65.8117 25.8159 65.1444 26.3986 64.2987 26.8308C63.4717 27.2443 62.5695 27.4511 61.5922 27.4511C59.7879 27.4511 58.2373 26.7463 56.9405 25.3367C55.6624 23.8894 55.0234 22.1415 55.0234 20.0929C55.0234 18.0442 55.6624 16.3057 56.9405 14.8773C58.2373 13.4489 59.7879 12.7347 61.5922 12.7347C62.5695 12.7347 63.4717 12.9508 64.2987 13.3831C65.1444 13.7966 65.8117 14.3698 66.3003 15.1028H66.4131V13.1857H68.894V26.408C68.894 28.6258 68.2644 30.3643 67.0051 31.6235C65.7271 32.9016 64.0355 33.5406 61.9305 33.5406ZM74.6501 6.81428V27H72.0564V6.81428H74.6501ZM83.8752 27.4511C81.8453 27.4511 80.1726 26.7557 78.8569 25.3648C77.5413 23.974 76.8835 22.2167 76.8835 20.0929C76.8835 17.9878 77.5225 16.2399 78.8005 14.8491C80.0786 13.4395 81.7138 12.7347 83.706 12.7347C85.7547 12.7347 87.3804 13.4019 88.5833 14.7363C89.805 16.052 90.4158 17.9033 90.4158 20.2902L90.3876 20.5721H79.5335C79.5711 21.9254 80.0222 23.0155 80.8868 23.8425C81.7513 24.6694 82.7851 25.0829 83.9879 25.0829C85.6419 25.0829 86.9387 24.2559 87.8785 22.602L90.1903 23.7297C89.57 24.895 88.7055 25.8065 87.5966 26.4643C86.5065 27.1222 85.266 27.4511 83.8752 27.4511ZM79.7309 18.4295H87.6529C87.5778 17.471 87.1831 16.6816 86.4689 16.0614C85.7735 15.4223 84.8337 15.1028 83.6496 15.1028C82.6723 15.1028 81.8265 15.4035 81.1123 16.005C80.4169 16.6064 79.9564 17.4146 79.7309 18.4295ZM99.4334 27V6.81428H105.607C108.69 6.81428 111.161 7.74463 113.022 9.60532C114.902 11.466 115.841 13.9 115.841 16.9071C115.841 19.9331 114.902 22.3765 113.022 24.2371C111.161 26.079 108.69 27 105.607 27H99.4334ZM102.027 9.29521V24.5191H105.607C107.957 24.5191 109.808 23.8519 111.161 22.5174C112.515 21.1642 113.191 19.2941 113.191 16.9071C113.191 14.539 112.515 12.6783 111.161 11.3251C109.808 9.97182 107.957 9.29521 105.607 9.29521H102.027ZM124.264 27.4511C122.234 27.4511 120.561 26.7557 119.246 25.3648C117.93 23.974 117.272 22.2167 117.272 20.0929C117.272 17.9878 117.911 16.2399 119.189 14.8491C120.467 13.4395 122.103 12.7347 124.095 12.7347C126.143 12.7347 127.769 13.4019 128.972 14.7363C130.194 16.052 130.805 17.9033 130.805 20.2902L130.776 20.5721H119.922C119.96 21.9254 120.411 23.0155 121.276 23.8425C122.14 24.6694 123.174 25.0829 124.377 25.0829C126.031 25.0829 127.328 24.2559 128.267 22.602L130.579 23.7297C129.959 24.895 129.094 25.8065 127.985 26.4643C126.895 27.1222 125.655 27.4511 124.264 27.4511ZM120.12 18.4295H128.042C127.967 17.471 127.572 16.6816 126.858 16.0614C126.162 15.4223 125.223 15.1028 124.038 15.1028C123.061 15.1028 122.215 15.4035 121.501 16.005C120.806 16.6064 120.345 17.4146 120.12 18.4295ZM139.611 27H137.017L131.435 13.1857H134.254L138.314 23.8988H138.371L142.487 13.1857H145.249L139.611 27ZM152.732 27.4511C150.702 27.4511 149.029 26.7557 147.713 25.3648C146.398 23.974 145.74 22.2167 145.74 20.0929C145.74 17.9878 146.379 16.2399 147.657 14.8491C148.935 13.4395 150.57 12.7347 152.563 12.7347C154.611 12.7347 156.237 13.4019 157.44 14.7363C158.661 16.052 159.272 17.9033 159.272 20.2902L159.244 20.5721H148.39C148.428 21.9254 148.879 23.0155 149.743 23.8425C150.608 24.6694 151.642 25.0829 152.844 25.0829C154.498 25.0829 155.795 24.2559 156.735 22.602L159.047 23.7297C158.427 24.895 157.562 25.8065 156.453 26.4643C155.363 27.1222 154.122 27.4511 152.732 27.4511ZM148.587 18.4295H156.509C156.434 17.471 156.04 16.6816 155.325 16.0614C154.63 15.4223 153.69 15.1028 152.506 15.1028C151.529 15.1028 150.683 15.4035 149.969 16.005C149.273 16.6064 148.813 17.4146 148.587 18.4295ZM164.238 6.81428V27H161.644V6.81428H164.238ZM166.471 20.0929C166.471 17.9691 167.138 16.2117 168.473 14.8209C169.826 13.4301 171.527 12.7347 173.576 12.7347C175.624 12.7347 177.316 13.4301 178.65 14.8209C180.004 16.2117 180.68 17.9691 180.68 20.0929C180.68 22.2355 180.004 23.9928 178.65 25.3648C177.316 26.7557 175.624 27.4511 173.576 27.4511C171.527 27.4511 169.826 26.7557 168.473 25.3648C167.138 23.974 166.471 22.2167 166.471 20.0929ZM169.065 20.0929C169.065 21.5777 169.497 22.7805 170.362 23.7015C171.226 24.6224 172.298 25.0829 173.576 25.0829C174.854 25.0829 175.925 24.6224 176.79 23.7015C177.654 22.7805 178.087 21.5777 178.087 20.0929C178.087 18.6269 177.654 17.4334 176.79 16.5124C175.906 15.5727 174.835 15.1028 173.576 15.1028C172.316 15.1028 171.245 15.5727 170.362 16.5124C169.497 17.4334 169.065 18.6269 169.065 20.0929ZM189.665 25.0829C190.905 25.0829 191.948 24.613 192.794 23.6733C193.64 22.7524 194.063 21.5589 194.063 20.0929C194.063 18.6457 193.64 17.4522 192.794 16.5124C191.948 15.5727 190.905 15.1028 189.665 15.1028C188.405 15.1028 187.353 15.5727 186.507 16.5124C185.68 17.4522 185.267 18.6457 185.267 20.0929C185.267 21.5589 185.68 22.7618 186.507 23.7015C187.353 24.6224 188.405 25.0829 189.665 25.0829ZM190.088 27.4511C189.073 27.4511 188.142 27.2349 187.297 26.8027C186.47 26.3704 185.831 25.7971 185.38 25.0829H185.267L185.38 27V33.0895H182.786V13.1857H185.267V15.1028H185.38C185.831 14.3886 186.47 13.8154 187.297 13.3831C188.142 12.9508 189.073 12.7347 190.088 12.7347C191.911 12.7347 193.452 13.4489 194.711 14.8773C196.008 16.3245 196.656 18.063 196.656 20.0929C196.656 22.1415 196.008 23.88 194.711 25.3085C193.452 26.7369 191.911 27.4511 190.088 27.4511ZM205.234 27.4511C203.205 27.4511 201.532 26.7557 200.216 25.3648C198.901 23.974 198.243 22.2167 198.243 20.0929C198.243 17.9878 198.882 16.2399 200.16 14.8491C201.438 13.4395 203.073 12.7347 205.065 12.7347C207.114 12.7347 208.74 13.4019 209.943 14.7363C211.164 16.052 211.775 17.9033 211.775 20.2902L211.747 20.5721H200.893C200.93 21.9254 201.381 23.0155 202.246 23.8425C203.111 24.6694 204.144 25.0829 205.347 25.0829C207.001 25.0829 208.298 24.2559 209.238 22.602L211.549 23.7297C210.929 24.895 210.065 25.8065 208.956 26.4643C207.866 27.1222 206.625 27.4511 205.234 27.4511ZM201.09 18.4295H209.012C208.937 17.471 208.542 16.6816 207.828 16.0614C207.133 15.4223 206.193 15.1028 205.009 15.1028C204.032 15.1028 203.186 15.4035 202.472 16.005C201.776 16.6064 201.316 17.4146 201.09 18.4295ZM216.741 27H214.147V13.1857H216.628V15.4411H216.741C217.004 14.7081 217.539 14.0879 218.348 13.5804C219.175 13.0542 219.983 12.7911 220.772 12.7911C221.524 12.7911 222.163 12.9038 222.689 13.1294L221.9 15.6385C221.58 15.5069 221.073 15.4411 220.377 15.4411C219.4 15.4411 218.545 15.8358 217.812 16.6252C217.098 17.4146 216.741 18.3356 216.741 19.3881V27ZM242.642 21.6153C242.642 23.382 241.993 24.801 240.697 25.8723C239.381 26.9248 237.783 27.4511 235.904 27.4511C234.231 27.4511 232.756 26.9624 231.478 25.9851C230.2 25.0077 229.316 23.6733 228.828 21.9818L231.309 20.9668C231.478 21.5683 231.713 22.1133 232.013 22.602C232.314 23.0907 232.662 23.5135 233.057 23.8706C233.47 24.209 233.921 24.4815 234.41 24.6882C234.898 24.8762 235.415 24.9702 235.96 24.9702C237.144 24.9702 238.112 24.6694 238.864 24.068C239.616 23.4478 239.992 22.6302 239.992 21.6153C239.992 20.7695 239.682 20.0459 239.061 19.4445C238.479 18.8618 237.389 18.298 235.791 17.7529C234.175 17.1703 233.169 16.7756 232.775 16.5688C230.632 15.4787 229.561 13.8718 229.561 11.7479C229.561 10.2631 230.153 8.99449 231.337 7.94197C232.54 6.88946 234.015 6.3632 235.763 6.3632C237.304 6.3632 238.639 6.75789 239.766 7.54728C240.894 8.31787 241.646 9.28581 242.022 10.4511L239.597 11.466C239.372 10.7142 238.921 10.094 238.244 9.60532C237.586 9.09786 236.778 8.84413 235.819 8.84413C234.804 8.84413 233.949 9.12605 233.254 9.6899C232.558 10.2162 232.211 10.9022 232.211 11.7479C232.211 12.4434 232.483 13.0448 233.028 13.5522C233.63 14.0597 234.936 14.6611 236.947 15.3566C238.996 16.052 240.452 16.9071 241.317 17.9221C242.2 18.9182 242.642 20.1493 242.642 21.6153ZM250.066 27.2255C248.938 27.2255 247.999 26.8778 247.247 26.1824C246.514 25.487 246.138 24.5191 246.119 23.2786V15.5539H243.695V13.1857H246.119V8.9569H248.713V13.1857H252.096V15.5539H248.713V22.4328C248.713 23.3538 248.892 23.9834 249.249 24.3217C249.606 24.6412 250.01 24.801 250.461 24.801C250.668 24.801 250.865 24.7822 251.053 24.7446C251.26 24.6882 251.448 24.6224 251.617 24.5473L252.434 26.859C251.758 27.1034 250.968 27.2255 250.066 27.2255ZM266.686 27H264.205V25.0829H264.092C263.698 25.7595 263.087 26.3234 262.26 26.7745C261.452 27.2255 260.606 27.4511 259.723 27.4511C258.031 27.4511 256.725 26.9718 255.804 26.0133C254.902 25.0359 254.451 23.6545 254.451 21.869V13.1857H257.044V21.6998C257.101 23.9552 258.238 25.0829 260.456 25.0829C261.489 25.0829 262.354 24.6694 263.049 23.8425C263.745 22.9967 264.092 21.9912 264.092 20.8259V13.1857H266.686V27ZM275.908 25.0829C277.186 25.0829 278.229 24.6224 279.037 23.7015C279.883 22.7805 280.306 21.5777 280.306 20.0929C280.306 18.6457 279.883 17.4522 279.037 16.5124C278.21 15.5727 277.167 15.1028 275.908 15.1028C274.668 15.1028 273.624 15.5727 272.779 16.5124C271.933 17.4522 271.51 18.6457 271.51 20.0929C271.51 21.5589 271.933 22.7524 272.779 23.6733C273.624 24.613 274.668 25.0829 275.908 25.0829ZM275.485 27.4511C273.681 27.4511 272.13 26.7369 270.833 25.3085C269.555 23.8613 268.916 22.1227 268.916 20.0929C268.916 18.063 269.555 16.3245 270.833 14.8773C272.13 13.4489 273.681 12.7347 275.485 12.7347C276.5 12.7347 277.421 12.9508 278.248 13.3831C279.094 13.8154 279.742 14.3886 280.193 15.1028H280.306L280.193 13.1857V6.81428H282.787V27H280.306V25.0829H280.193C279.742 25.7971 279.094 26.3704 278.248 26.8027C277.421 27.2349 276.5 27.4511 275.485 27.4511ZM292.014 27.4511C289.984 27.4511 288.311 26.7557 286.996 25.3648C285.68 23.974 285.022 22.2167 285.022 20.0929C285.022 17.9878 285.661 16.2399 286.939 14.8491C288.217 13.4395 289.853 12.7347 291.845 12.7347C293.893 12.7347 295.519 13.4019 296.722 14.7363C297.944 16.052 298.555 17.9033 298.555 20.2902L298.526 20.5721H287.672C287.71 21.9254 288.161 23.0155 289.026 23.8425C289.89 24.6694 290.924 25.0829 292.127 25.0829C293.781 25.0829 295.078 24.2559 296.017 22.602L298.329 23.7297C297.709 24.895 296.844 25.8065 295.735 26.4643C294.645 27.1222 293.405 27.4511 292.014 27.4511ZM287.87 18.4295H295.792C295.717 17.471 295.322 16.6816 294.608 16.0614C293.912 15.4223 292.973 15.1028 291.788 15.1028C290.811 15.1028 289.965 15.4035 289.251 16.005C288.556 16.6064 288.095 17.4146 287.87 18.4295ZM300.926 13.1857H303.407V15.1028H303.52C303.915 14.4262 304.516 13.8624 305.324 13.4113C306.151 12.9602 307.007 12.7347 307.89 12.7347C309.582 12.7347 310.878 13.2233 311.781 14.2007C312.701 15.1592 313.162 16.5312 313.162 18.3168V27H310.568V18.4859C310.512 16.2305 309.375 15.1028 307.157 15.1028C306.123 15.1028 305.259 15.5257 304.563 16.3715C303.868 17.1985 303.52 18.1946 303.52 19.3599V27H300.926V13.1857ZM320.96 27.2255C319.832 27.2255 318.893 26.8778 318.141 26.1824C317.408 25.487 317.032 24.5191 317.013 23.2786V15.5539H314.589V13.1857H317.013V8.9569H319.607V13.1857H322.99V15.5539H319.607V22.4328C319.607 23.3538 319.785 23.9834 320.142 24.3217C320.5 24.6412 320.904 24.801 321.355 24.801C321.561 24.801 321.759 24.7822 321.947 24.7446C322.153 24.6882 322.341 24.6224 322.511 24.5473L323.328 26.859C322.652 27.1034 321.862 27.2255 320.96 27.2255ZM341.053 27.4511C338.065 27.4511 335.565 26.4456 333.554 24.4345C331.562 22.4234 330.565 19.9143 330.565 16.9071C330.565 13.9 331.562 11.4002 333.554 9.40798C335.546 7.37813 338.046 6.3632 341.053 6.3632C344.098 6.3632 346.569 7.4627 348.468 9.66171L346.607 11.466C345.16 9.71809 343.308 8.84413 341.053 8.84413C338.816 8.84413 336.946 9.59592 335.443 11.0995C333.958 12.5843 333.216 14.5202 333.216 16.9071C333.216 19.2941 333.958 21.23 335.443 22.7148C336.946 24.2184 338.816 24.9702 341.053 24.9702C343.402 24.9702 345.442 23.9834 347.171 22.01L349.06 23.8425C348.101 24.9889 346.926 25.8817 345.536 26.5207C344.145 27.141 342.651 27.4511 341.053 27.4511ZM353.958 6.81428V27H351.364V6.81428H353.958ZM369.241 27H366.76V25.0829H366.648C366.253 25.7595 365.642 26.3234 364.815 26.7745C364.007 27.2255 363.161 27.4511 362.278 27.4511C360.586 27.4511 359.28 26.9718 358.359 26.0133C357.457 25.0359 357.006 23.6545 357.006 21.869V13.1857H359.599V21.6998C359.656 23.9552 360.793 25.0829 363.011 25.0829C364.044 25.0829 364.909 24.6694 365.604 23.8425C366.3 22.9967 366.648 21.9912 366.648 20.8259V13.1857H369.241V27ZM379.7 27.4511C378.685 27.4511 377.755 27.2349 376.909 26.8027C376.082 26.3704 375.443 25.7971 374.992 25.0829H374.879V27H372.399V6.81428H374.992V13.1857L374.879 15.1028H374.992C375.443 14.3886 376.082 13.8154 376.909 13.3831C377.755 12.9508 378.685 12.7347 379.7 12.7347C381.523 12.7347 383.065 13.4489 384.324 14.8773C385.621 16.3245 386.269 18.063 386.269 20.0929C386.269 22.1415 385.621 23.88 384.324 25.3085C383.065 26.7369 381.523 27.4511 379.7 27.4511ZM379.277 25.0829C380.518 25.0829 381.561 24.613 382.407 23.6733C383.253 22.7524 383.675 21.5589 383.675 20.0929C383.675 18.6457 383.253 17.4522 382.407 16.5124C381.561 15.5727 380.518 15.1028 379.277 15.1028C378.018 15.1028 376.966 15.5727 376.12 16.5124C375.293 17.4522 374.879 18.6457 374.879 20.0929C374.879 21.5589 375.293 22.7618 376.12 23.7015C376.966 24.6224 378.018 25.0829 379.277 25.0829ZM399.077 23.1658C399.077 24.3687 398.55 25.3836 397.498 26.2106C396.445 27.0376 395.12 27.4511 393.523 27.4511C392.132 27.4511 390.91 27.094 389.858 26.3798C388.805 25.6468 388.053 24.6882 387.602 23.5041L389.914 22.5174C390.252 23.3444 390.741 23.9928 391.38 24.4627C392.038 24.9138 392.752 25.1393 393.523 25.1393C394.35 25.1393 395.036 24.9608 395.581 24.6037C396.145 24.2465 396.427 23.8237 396.427 23.335C396.427 22.4516 395.75 21.8032 394.397 21.3897L392.029 20.7977C389.341 20.1211 387.997 18.8242 387.997 16.9071C387.997 15.6479 388.504 14.6424 389.519 13.8906C390.553 13.12 391.869 12.7347 393.466 12.7347C394.688 12.7347 395.788 13.026 396.765 13.6086C397.761 14.1913 398.456 14.9713 398.851 15.9486L396.539 16.9071C396.276 16.3245 395.844 15.8734 395.242 15.5539C394.66 15.2156 394.002 15.0464 393.269 15.0464C392.592 15.0464 391.982 15.2156 391.436 15.5539C390.91 15.8922 390.647 16.3057 390.647 16.7944C390.647 17.5838 391.39 18.1476 392.874 18.4859L394.961 19.0216C397.705 19.6982 399.077 21.0796 399.077 23.1658Z" fill="#6A6A6A"/>
<defs>
<linearGradient id="paint0_linear_800_1941" x1="267.2" y1="99.0221" x2="232.004" y2="109.04" gradientUnits="userSpaceOnUse">
<stop stop-color="#4285F4"/>
<stop offset="1" stop-color="#4285F4" stop-opacity="0.7"/>
</linearGradient>
<linearGradient id="paint1_linear_800_1941" x1="224.417" y1="127.188" x2="234.489" y2="162.431" gradientUnits="userSpaceOnUse">
<stop stop-color="#0F9D58"/>
<stop offset="1" stop-color="#0F9D58" stop-opacity="0.7"/>
</linearGradient>
<linearGradient id="paint2_linear_800_1941" x1="252.533" y1="170.051" x2="287.729" y2="160.033" gradientUnits="userSpaceOnUse">
<stop stop-color="#F4B400"/>
<stop offset="1" stop-color="#F4B400" stop-opacity="0.7"/>
</linearGradient>
<linearGradient id="paint3_linear_800_1941" x1="295.326" y1="141.894" x2="285.246" y2="106.682" gradientUnits="userSpaceOnUse">
<stop stop-color="#DB4437"/>
<stop offset="1" stop-color="#DB4437" stop-opacity="0.7"/>
</linearGradient>
</defs>
</svg>
