<svg width="520" height="245" viewBox="0 0 520 245" fill="none" xmlns="http://www.w3.org/2000/svg">
<mask id="mask0_893_1820" style="mask-type:alpha" maskUnits="userSpaceOnUse" x="2" y="66" width="177" height="136">
<path d="M166.613 68.5841C174.728 71.4968 178.786 75.3804 178.786 80.235C178.786 81.8123 178.06 84.7864 176.606 89.1548L141.721 190.189C141.478 191.039 141.055 192.071 140.449 193.284C139.844 194.498 138.208 196.137 135.543 198.199C133 200.141 129.911 201.112 126.277 201.112C122.764 201.112 119.675 200.141 117.011 198.199C114.467 196.137 112.771 194.134 111.923 192.192L90.6648 129.387C77.2196 169.193 70.3759 189.461 70.1337 190.189C69.8914 190.918 69.3463 191.949 68.4984 193.284C67.6505 194.619 66.6815 195.833 65.5913 196.925C62.8054 199.716 59.4743 201.112 55.5981 201.112C51.7221 201.112 48.5121 200.202 45.9684 198.382C43.5458 196.561 41.9106 194.741 41.0627 192.92L39.7908 190.189L4.72397 89.1548C3.39155 85.1501 2.72534 82.1768 2.72534 80.235C2.72534 75.3804 6.78316 71.5575 14.8988 68.7662C18.4116 67.5525 21.5609 66.9457 24.3469 66.9457C27.254 66.9457 29.4343 67.9166 30.8879 69.8584C32.4625 71.8002 33.8555 74.7736 35.0668 78.7786L55.0531 139.581L74.8577 79.689C76.5532 74.5916 79.6422 71.072 84.1237 69.1303C86.0618 68.2807 88.5456 67.856 91.5735 67.856C94.723 67.856 97.6301 68.8875 100.295 70.9507C102.96 72.8925 104.656 74.8343 105.382 76.7762L126.277 139.945L146.263 78.7786C147.232 75.9875 148.02 73.9241 148.626 72.5891C149.231 71.2541 150.321 69.9798 151.896 68.7662C153.592 67.4311 155.651 66.7637 158.073 66.7637C160.496 66.7637 163.343 67.3705 166.613 68.5841Z" fill="black"/>
</mask>
<g mask="url(#mask0_893_1820)">
<path d="M141.257 210.719C138.099 220.257 127.822 225.427 118.301 222.265C108.781 219.104 103.623 208.809 106.781 199.271L150.958 65.8327C154.116 56.2948 164.394 51.1256 173.914 54.287C183.434 57.4484 188.592 67.7432 185.435 77.2811L141.257 210.719Z" fill="#0F9D58" fill-opacity="0.95"/>
<path d="M113.617 199.457C116.261 207.476 124.892 211.831 132.896 209.184C140.899 206.538 145.245 197.892 142.602 189.874L103.934 72.5759C101.291 64.5572 92.6593 60.2022 84.6554 62.8487C76.6516 65.4951 72.3061 74.1408 74.9495 82.1594L113.617 199.457Z" fill="#F4B400" fill-opacity="0.95"/>
<path d="M67.6935 198.272C65.0652 206.21 56.5107 210.513 48.5865 207.882C40.6624 205.25 36.3692 196.681 38.9975 188.743L79.8152 65.4526C82.4435 57.5137 90.998 53.2112 98.9222 55.8425C106.846 58.4739 111.14 67.0427 108.511 74.9815L67.6935 198.272Z" fill="#DB4437" fill-opacity="0.95"/>
<path d="M42.2568 216.414C45.3999 225.908 55.6298 231.053 65.106 227.907C74.5821 224.76 79.7161 214.513 76.573 205.019L32.3424 71.4205C29.1994 61.9269 18.9695 56.7817 9.49334 59.9284C0.0171878 63.0751 -5.11679 73.3221 -1.97372 82.8157L42.2568 216.414Z" fill="#4285F4" fill-opacity="0.95"/>
</g>
<mask id="mask1_893_1820" style="mask-type:alpha" maskUnits="userSpaceOnUse" x="340" y="66" width="177" height="136">
<path d="M352.78 68.5841C344.665 71.4968 340.607 75.3804 340.607 80.235C340.607 81.8123 341.334 84.7864 342.787 89.1548L377.672 190.189C377.915 191.039 378.339 192.071 378.944 193.284C379.55 194.498 381.185 196.137 383.85 198.199C386.394 200.141 389.482 201.112 393.116 201.112C396.629 201.112 399.718 200.141 402.383 198.199C404.926 196.137 406.622 194.134 407.47 192.192L428.728 129.387C442.174 169.193 449.017 189.461 449.26 190.189C449.502 190.918 450.047 191.949 450.895 193.284C451.743 194.619 452.712 195.833 453.802 196.925C456.588 199.716 459.919 201.112 463.795 201.112C467.671 201.112 470.881 200.202 473.425 198.382C475.848 196.561 477.483 194.741 478.331 192.92L479.602 190.189L514.669 89.1548C516.002 85.1501 516.668 82.1768 516.668 80.235C516.668 75.3804 512.61 71.5575 504.494 68.7662C500.982 67.5525 497.832 66.9457 495.046 66.9457C492.14 66.9457 489.959 67.9166 488.506 69.8584C486.931 71.8002 485.537 74.7736 484.327 78.7786L464.34 139.581L444.536 79.689C442.84 74.5916 439.751 71.072 435.269 69.1303C433.331 68.2807 430.848 67.856 427.82 67.856C424.67 67.856 421.763 68.8875 419.098 70.9507C416.434 72.8925 414.738 74.8343 414.011 76.7762L393.116 139.945L373.13 78.7786C372.161 75.9875 371.374 73.9241 370.768 72.5891C370.162 71.2541 369.072 69.9798 367.497 68.7662C365.802 67.4311 363.743 66.7637 361.32 66.7637C358.897 66.7637 356.051 67.3705 352.78 68.5841Z" fill="black"/>
</mask>
<g mask="url(#mask1_893_1820)">
<path d="M378.136 210.719C381.294 220.257 391.571 225.427 401.092 222.265C410.612 219.104 415.77 208.809 412.612 199.271L368.435 65.8327C365.277 56.2948 354.999 51.1256 345.479 54.287C335.959 57.4484 330.801 67.7432 333.958 77.2811L378.136 210.719Z" fill="#0F9D58" fill-opacity="0.95"/>
<path d="M405.777 199.457C403.133 207.476 394.502 211.831 386.498 209.184C378.494 206.538 374.149 197.892 376.792 189.874L415.46 72.5759C418.103 64.5572 426.735 60.2022 434.738 62.8487C442.742 65.4951 447.088 74.1408 444.444 82.1594L405.777 199.457Z" fill="#F4B400" fill-opacity="0.95"/>
<path d="M451.701 198.272C454.329 206.21 462.883 210.513 470.807 207.882C478.732 205.25 483.025 196.681 480.397 188.743L439.579 65.4526C436.951 57.5137 428.396 53.2112 420.472 55.8425C412.548 58.4739 408.254 67.0427 410.883 74.9815L451.701 198.272Z" fill="#DB4437" fill-opacity="0.95"/>
<path d="M477.136 216.414C473.993 225.908 463.763 231.053 454.287 227.907C444.811 224.76 439.677 214.513 442.82 205.019L487.051 71.4205C490.194 61.9269 500.424 56.7817 509.9 59.9284C519.376 63.0751 524.51 73.3221 521.367 82.8157L477.136 216.414Z" fill="#4285F4" fill-opacity="0.95"/>
</g>
<path fill-rule="evenodd" clip-rule="evenodd" d="M178.25 128.055C173.242 130.951 173.242 138.193 178.25 141.09L214.174 161.87C209.411 153.889 206.673 144.554 206.673 134.578C206.673 124.595 209.415 115.253 214.186 107.267L178.25 128.055ZM259.031 81.3257C259.297 81.322 259.563 81.3197 259.829 81.3197C279.857 81.3197 297.297 92.4173 306.36 108.809V66.9823C306.36 61.1889 300.101 57.5681 295.094 60.4648L259.031 81.3257ZM306.36 160.347C297.297 176.74 279.857 187.837 259.829 187.837C259.571 187.837 259.312 187.835 259.053 187.831L295.094 208.68C300.101 211.577 306.36 207.955 306.36 202.162V160.347Z" fill="#34A853" fill-opacity="0.9"/>
<path fill-rule="evenodd" clip-rule="evenodd" d="M312.977 135.562C312.983 135.234 312.986 134.907 312.986 134.579C312.986 114.561 301.962 97.1217 285.666 88.0234H327.36C333.143 88.0234 336.756 94.2944 333.865 99.3116L312.977 135.562ZM287.244 180.217C279.24 185.054 269.859 187.838 259.829 187.838C249.891 187.838 240.589 185.104 232.632 180.348L253.395 216.381C256.287 221.398 263.515 221.398 266.405 216.381L287.244 180.217ZM206.678 135.308L185.936 99.3116C183.044 94.2944 186.659 88.0234 192.441 88.0234H233.993C217.697 97.1217 206.673 114.561 206.673 134.579C206.673 134.822 206.675 135.066 206.678 135.308Z" fill="#FBBC04" fill-opacity="0.9"/>
<path fill-rule="evenodd" clip-rule="evenodd" d="M341.553 141.09C346.561 138.193 346.561 130.951 341.553 128.055L305.398 107.14C310.215 115.154 312.986 124.542 312.986 134.578C312.986 144.607 310.22 153.988 305.41 161.997L341.553 141.09ZM260.753 187.83C260.446 187.835 260.138 187.837 259.83 187.837C239.907 187.837 222.545 176.856 213.442 160.605V202.162C213.442 207.955 219.702 211.577 224.709 208.68L260.753 187.83ZM260.777 81.3288L224.709 60.4648C219.702 57.5681 213.442 61.1889 213.442 66.9823V108.552C222.545 92.3016 239.907 81.3204 259.83 81.3204C260.146 81.3204 260.462 81.3227 260.777 81.3288Z" fill="#EA4335" fill-opacity="0.9"/>
<path fill-rule="evenodd" clip-rule="evenodd" d="M266.405 52.7628C263.515 47.7457 256.287 47.7457 253.395 52.7628L232.62 88.8163C240.58 84.0554 249.886 81.3196 259.829 81.3196C269.864 81.3196 279.249 84.1053 287.257 88.9471L266.405 52.7628ZM312.977 133.582C312.983 133.913 312.986 134.246 312.986 134.578C312.986 154.587 301.973 172.019 285.69 181.121H327.361C333.143 181.121 336.756 174.849 333.866 169.832L312.977 133.582ZM233.97 181.121C217.686 172.019 206.674 154.587 206.674 134.578C206.674 134.33 206.675 134.082 206.678 133.836L185.936 169.832C183.045 174.849 186.659 181.121 192.441 181.121H233.97Z" fill="#4285F4" fill-opacity="0.9"/>
<path fill-rule="evenodd" clip-rule="evenodd" d="M290.185 98.7324C270.48 81.9832 240.971 84.3788 224.212 104.065C227.575 100.198 233.426 99.7465 237.341 103.075C241.288 106.43 241.774 112.356 238.425 116.31L238.426 116.311C248.446 104.477 266.124 102.996 277.966 112.976C277.996 113.002 278.026 113.028 278.057 113.054C282.004 116.41 287.918 115.923 291.267 111.969C294.616 108.014 294.131 102.088 290.184 98.7324H290.185Z" fill="url(#paint0_linear_893_1820)"/>
<path fill-rule="evenodd" clip-rule="evenodd" d="M224.128 104.16C207.42 123.89 209.799 153.434 229.416 170.23L229.546 170.341C225.599 166.985 225.114 161.059 228.463 157.104C231.806 153.156 237.707 152.665 241.654 156.003C229.848 145.949 228.386 128.222 238.377 116.364C238.393 116.346 238.408 116.328 238.423 116.31C241.773 112.355 241.288 106.429 237.34 103.074C233.393 99.7185 227.478 100.205 224.129 104.16H224.128Z" fill="url(#paint1_linear_893_1820)"/>
<path fill-rule="evenodd" clip-rule="evenodd" d="M229.549 170.34V170.341C249.243 187.081 278.731 184.697 295.494 165.04L295.603 164.912C292.254 168.867 286.34 169.353 282.392 165.998C278.445 162.643 277.959 156.717 281.309 152.762C271.272 164.614 253.555 166.082 241.713 156.05C241.701 156.04 241.689 156.029 241.676 156.019C237.729 152.663 231.814 153.15 228.466 157.104C225.117 161.059 225.602 166.985 229.549 170.34Z" fill="url(#paint2_linear_893_1820)"/>
<path fill-rule="evenodd" clip-rule="evenodd" d="M290.315 98.8416L290.223 98.7637C294.136 102.125 294.607 108.025 291.269 111.967C287.931 115.909 282.045 116.405 278.098 113.087C289.897 123.154 291.342 140.893 281.323 152.745C281.318 152.75 281.313 152.756 281.308 152.762C277.959 156.717 278.445 162.643 282.392 165.998C286.339 169.353 292.254 168.867 295.602 164.912L295.603 164.913L295.653 164.853C312.306 145.122 309.912 115.621 290.315 98.8416Z" fill="url(#paint3_linear_893_1820)"/>
<path d="M81.6989 24.7247C81.6989 27.544 80.8626 29.7899 79.1898 31.4627C77.3103 33.4549 74.8388 34.4511 71.7752 34.4511C68.8432 34.4511 66.3623 33.4362 64.3324 31.4063C62.3026 29.3765 61.2877 26.8767 61.2877 23.9071C61.2877 20.9375 62.3026 18.4378 64.3324 16.408C66.3623 14.3781 68.8432 13.3632 71.7752 13.3632C73.26 13.3632 74.6602 13.6263 75.9759 14.1526C77.2915 14.6788 78.3722 15.4212 79.218 16.3798L77.3573 18.2405C76.7371 17.4887 75.9289 16.906 74.9328 16.4926C73.9554 16.0603 72.9029 15.8441 71.7752 15.8441C69.5762 15.8441 67.7155 16.6053 66.1931 18.1277C64.6895 19.6689 63.9378 21.5954 63.9378 23.9071C63.9378 26.2189 64.6895 28.1454 66.1931 29.6866C67.7155 31.209 69.5762 31.9702 71.7752 31.9702C73.7863 31.9702 75.459 31.4063 76.7935 30.2786C78.1279 29.1509 78.8985 27.6003 79.1052 25.6269H71.7752V23.2023H81.558C81.6519 23.7286 81.6989 24.2361 81.6989 24.7247ZM83.4722 27.0929C83.4722 24.9691 84.1394 23.2117 85.4738 21.8209C86.8271 20.4301 88.528 19.7347 90.5767 19.7347C92.6253 19.7347 94.3168 20.4301 95.6513 21.8209C97.0045 23.2117 97.6811 24.9691 97.6811 27.0929C97.6811 29.2355 97.0045 30.9928 95.6513 32.3648C94.3168 33.7557 92.6253 34.4511 90.5767 34.4511C88.528 34.4511 86.8271 33.7557 85.4738 32.3648C84.1394 30.974 83.4722 29.2167 83.4722 27.0929ZM86.0659 27.0929C86.0659 28.5777 86.4982 29.7805 87.3627 30.7015C88.2273 31.6224 89.2986 32.0829 90.5767 32.0829C91.8547 32.0829 92.926 31.6224 93.7906 30.7015C94.6551 29.7805 95.0874 28.5777 95.0874 27.0929C95.0874 25.6269 94.6551 24.4334 93.7906 23.5124C92.9072 22.5727 91.8359 22.1028 90.5767 22.1028C89.3174 22.1028 88.2461 22.5727 87.3627 23.5124C86.4982 24.4334 86.0659 25.6269 86.0659 27.0929ZM99.2478 27.0929C99.2478 24.9691 99.915 23.2117 101.249 21.8209C102.603 20.4301 104.304 19.7347 106.352 19.7347C108.401 19.7347 110.092 20.4301 111.427 21.8209C112.78 23.2117 113.457 24.9691 113.457 27.0929C113.457 29.2355 112.78 30.9928 111.427 32.3648C110.092 33.7557 108.401 34.4511 106.352 34.4511C104.304 34.4511 102.603 33.7557 101.249 32.3648C99.915 30.974 99.2478 29.2167 99.2478 27.0929ZM101.841 27.0929C101.841 28.5777 102.274 29.7805 103.138 30.7015C104.003 31.6224 105.074 32.0829 106.352 32.0829C107.63 32.0829 108.702 31.6224 109.566 30.7015C110.431 29.7805 110.863 28.5777 110.863 27.0929C110.863 25.6269 110.431 24.4334 109.566 23.5124C108.683 22.5727 107.612 22.1028 106.352 22.1028C105.093 22.1028 104.022 22.5727 103.138 23.5124C102.274 24.4334 101.841 25.6269 101.841 27.0929ZM122.015 32.0829C123.293 32.0829 124.336 31.6224 125.144 30.7015C125.99 29.7805 126.413 28.5777 126.413 27.0929C126.413 25.6457 125.99 24.4522 125.144 23.5124C124.317 22.5727 123.274 22.1028 122.015 22.1028C120.775 22.1028 119.732 22.5727 118.886 23.5124C118.04 24.4522 117.617 25.6457 117.617 27.0929C117.617 28.5589 118.04 29.7524 118.886 30.6733C119.732 31.613 120.775 32.0829 122.015 32.0829ZM121.931 40.5406C121.16 40.5406 120.436 40.4373 119.76 40.2305C119.083 40.0426 118.463 39.77 117.899 39.4129C117.354 39.0558 116.884 38.6329 116.489 38.1443C116.095 37.6556 115.794 37.1106 115.587 36.5091L118.04 35.4942C118.322 36.3024 118.811 36.9508 119.506 37.4395C120.201 37.9281 121.01 38.1725 121.931 38.1725C123.34 38.1725 124.44 37.7496 125.229 36.9038C126.018 36.058 126.413 34.8928 126.413 33.408V32.0829H126.3C125.812 32.8159 125.144 33.3986 124.299 33.8308C123.472 34.2443 122.57 34.4511 121.592 34.4511C119.788 34.4511 118.237 33.7463 116.94 32.3367C115.662 30.8894 115.023 29.1415 115.023 27.0929C115.023 25.0442 115.662 23.3057 116.94 21.8773C118.237 20.4489 119.788 19.7347 121.592 19.7347C122.57 19.7347 123.472 19.9508 124.299 20.3831C125.144 20.7966 125.812 21.3698 126.3 22.1028H126.413V20.1857H128.894V33.408C128.894 35.6258 128.264 37.3643 127.005 38.6235C125.727 39.9016 124.036 40.5406 121.931 40.5406ZM134.65 13.8143V34H132.056V13.8143H134.65ZM143.875 34.4511C141.845 34.4511 140.173 33.7557 138.857 32.3648C137.541 30.974 136.883 29.2167 136.883 27.0929C136.883 24.9878 137.522 23.2399 138.801 21.8491C140.079 20.4395 141.714 19.7347 143.706 19.7347C145.755 19.7347 147.38 20.4019 148.583 21.7363C149.805 23.052 150.416 24.9033 150.416 27.2902L150.388 27.5721H139.534C139.571 28.9254 140.022 30.0155 140.887 30.8425C141.751 31.6694 142.785 32.0829 143.988 32.0829C145.642 32.0829 146.939 31.2559 147.878 29.602L150.19 30.7297C149.57 31.895 148.705 32.8065 147.597 33.4643C146.506 34.1222 145.266 34.4511 143.875 34.4511ZM139.731 25.4295H147.653C147.578 24.471 147.183 23.6816 146.469 23.0614C145.773 22.4223 144.834 22.1028 143.65 22.1028C142.672 22.1028 141.827 22.4035 141.112 23.005C140.417 23.6064 139.956 24.4146 139.731 25.4295ZM159.433 34V13.8143H165.607C168.69 13.8143 171.161 14.7446 173.022 16.6053C174.902 18.466 175.841 20.9 175.841 23.9071C175.841 26.9331 174.902 29.3765 173.022 31.2371C171.161 33.079 168.69 34 165.607 34H159.433ZM162.027 16.2952V31.5191H165.607C167.957 31.5191 169.808 30.8519 171.161 29.5174C172.515 28.1642 173.191 26.2941 173.191 23.9071C173.191 21.539 172.515 19.6783 171.161 18.3251C169.808 16.9718 167.957 16.2952 165.607 16.2952H162.027ZM184.264 34.4511C182.234 34.4511 180.561 33.7557 179.246 32.3648C177.93 30.974 177.272 29.2167 177.272 27.0929C177.272 24.9878 177.911 23.2399 179.189 21.8491C180.467 20.4395 182.103 19.7347 184.095 19.7347C186.143 19.7347 187.769 20.4019 188.972 21.7363C190.194 23.052 190.805 24.9033 190.805 27.2902L190.776 27.5721H179.922C179.96 28.9254 180.411 30.0155 181.276 30.8425C182.14 31.6694 183.174 32.0829 184.377 32.0829C186.031 32.0829 187.328 31.2559 188.267 29.602L190.579 30.7297C189.959 31.895 189.094 32.8065 187.985 33.4643C186.895 34.1222 185.655 34.4511 184.264 34.4511ZM180.12 25.4295H188.042C187.967 24.471 187.572 23.6816 186.858 23.0614C186.162 22.4223 185.223 22.1028 184.038 22.1028C183.061 22.1028 182.215 22.4035 181.501 23.005C180.806 23.6064 180.345 24.4146 180.12 25.4295ZM199.611 34H197.017L191.435 20.1857H194.254L198.314 30.8988H198.371L202.487 20.1857H205.249L199.611 34ZM212.732 34.4511C210.702 34.4511 209.029 33.7557 207.713 32.3648C206.398 30.974 205.74 29.2167 205.74 27.0929C205.74 24.9878 206.379 23.2399 207.657 21.8491C208.935 20.4395 210.57 19.7347 212.563 19.7347C214.611 19.7347 216.237 20.4019 217.44 21.7363C218.661 23.052 219.272 24.9033 219.272 27.2902L219.244 27.5721H208.39C208.428 28.9254 208.879 30.0155 209.743 30.8425C210.608 31.6694 211.642 32.0829 212.844 32.0829C214.498 32.0829 215.795 31.2559 216.735 29.602L219.047 30.7297C218.427 31.895 217.562 32.8065 216.453 33.4643C215.363 34.1222 214.122 34.4511 212.732 34.4511ZM208.587 25.4295H216.509C216.434 24.471 216.04 23.6816 215.325 23.0614C214.63 22.4223 213.69 22.1028 212.506 22.1028C211.529 22.1028 210.683 22.4035 209.969 23.005C209.273 23.6064 208.813 24.4146 208.587 25.4295ZM224.238 13.8143V34H221.644V13.8143H224.238ZM226.471 27.0929C226.471 24.9691 227.138 23.2117 228.473 21.8209C229.826 20.4301 231.527 19.7347 233.576 19.7347C235.624 19.7347 237.316 20.4301 238.65 21.8209C240.004 23.2117 240.68 24.9691 240.68 27.0929C240.68 29.2355 240.004 30.9928 238.65 32.3648C237.316 33.7557 235.624 34.4511 233.576 34.4511C231.527 34.4511 229.826 33.7557 228.473 32.3648C227.138 30.974 226.471 29.2167 226.471 27.0929ZM229.065 27.0929C229.065 28.5777 229.497 29.7805 230.362 30.7015C231.226 31.6224 232.298 32.0829 233.576 32.0829C234.854 32.0829 235.925 31.6224 236.79 30.7015C237.654 29.7805 238.087 28.5777 238.087 27.0929C238.087 25.6269 237.654 24.4334 236.79 23.5124C235.906 22.5727 234.835 22.1028 233.576 22.1028C232.316 22.1028 231.245 22.5727 230.362 23.5124C229.497 24.4334 229.065 25.6269 229.065 27.0929ZM249.665 32.0829C250.905 32.0829 251.948 31.613 252.794 30.6733C253.64 29.7524 254.063 28.5589 254.063 27.0929C254.063 25.6457 253.64 24.4522 252.794 23.5124C251.948 22.5727 250.905 22.1028 249.665 22.1028C248.405 22.1028 247.353 22.5727 246.507 23.5124C245.68 24.4522 245.267 25.6457 245.267 27.0929C245.267 28.5589 245.68 29.7618 246.507 30.7015C247.353 31.6224 248.405 32.0829 249.665 32.0829ZM250.088 34.4511C249.073 34.4511 248.142 34.2349 247.297 33.8027C246.47 33.3704 245.831 32.7971 245.38 32.0829H245.267L245.38 34V40.0895H242.786V20.1857H245.267V22.1028H245.38C245.831 21.3886 246.47 20.8154 247.297 20.3831C248.142 19.9508 249.073 19.7347 250.088 19.7347C251.911 19.7347 253.452 20.4489 254.711 21.8773C256.008 23.3245 256.656 25.063 256.656 27.0929C256.656 29.1415 256.008 30.88 254.711 32.3085C253.452 33.7369 251.911 34.4511 250.088 34.4511ZM265.234 34.4511C263.205 34.4511 261.532 33.7557 260.216 32.3648C258.901 30.974 258.243 29.2167 258.243 27.0929C258.243 24.9878 258.882 23.2399 260.16 21.8491C261.438 20.4395 263.073 19.7347 265.065 19.7347C267.114 19.7347 268.74 20.4019 269.943 21.7363C271.164 23.052 271.775 24.9033 271.775 27.2902L271.747 27.5721H260.893C260.93 28.9254 261.381 30.0155 262.246 30.8425C263.111 31.6694 264.144 32.0829 265.347 32.0829C267.001 32.0829 268.298 31.2559 269.238 29.602L271.549 30.7297C270.929 31.895 270.065 32.8065 268.956 33.4643C267.866 34.1222 266.625 34.4511 265.234 34.4511ZM261.09 25.4295H269.012C268.937 24.471 268.542 23.6816 267.828 23.0614C267.133 22.4223 266.193 22.1028 265.009 22.1028C264.032 22.1028 263.186 22.4035 262.472 23.005C261.776 23.6064 261.316 24.4146 261.09 25.4295ZM276.741 34H274.147V20.1857H276.628V22.4411H276.741C277.004 21.7081 277.539 21.0879 278.348 20.5804C279.175 20.0542 279.983 19.7911 280.772 19.7911C281.524 19.7911 282.163 19.9038 282.689 20.1294L281.9 22.6385C281.58 22.5069 281.073 22.4411 280.377 22.4411C279.4 22.4411 278.545 22.8358 277.812 23.6252C277.098 24.4146 276.741 25.3356 276.741 26.3881V34ZM302.642 28.6153C302.642 30.382 301.993 31.801 300.697 32.8723C299.381 33.9248 297.783 34.4511 295.904 34.4511C294.231 34.4511 292.756 33.9624 291.478 32.9851C290.2 32.0077 289.316 30.6733 288.828 28.9818L291.309 27.9668C291.478 28.5683 291.713 29.1133 292.013 29.602C292.314 30.0907 292.662 30.5135 293.057 30.8706C293.47 31.209 293.921 31.4815 294.41 31.6882C294.898 31.8762 295.415 31.9702 295.96 31.9702C297.144 31.9702 298.112 31.6694 298.864 31.068C299.616 30.4478 299.992 29.6302 299.992 28.6153C299.992 27.7695 299.682 27.0459 299.061 26.4445C298.479 25.8618 297.389 25.298 295.791 24.7529C294.175 24.1703 293.169 23.7756 292.775 23.5688C290.632 22.4787 289.561 20.8718 289.561 18.7479C289.561 17.2631 290.153 15.9945 291.337 14.942C292.54 13.8895 294.015 13.3632 295.763 13.3632C297.304 13.3632 298.639 13.7579 299.766 14.5473C300.894 15.3179 301.646 16.2858 302.022 17.4511L299.597 18.466C299.372 17.7142 298.921 17.094 298.244 16.6053C297.586 16.0979 296.778 15.8441 295.819 15.8441C294.804 15.8441 293.949 16.1261 293.254 16.6899C292.558 17.2162 292.211 17.9022 292.211 18.7479C292.211 19.4434 292.483 20.0448 293.028 20.5522C293.63 21.0597 294.936 21.6611 296.947 22.3566C298.996 23.052 300.452 23.9071 301.317 24.9221C302.2 25.9182 302.642 27.1493 302.642 28.6153ZM310.066 34.2255C308.938 34.2255 307.999 33.8778 307.247 33.1824C306.514 32.487 306.138 31.5191 306.119 30.2786V22.5539H303.695V20.1857H306.119V15.9569H308.713V20.1857H312.096V22.5539H308.713V29.4328C308.713 30.3538 308.892 30.9834 309.249 31.3217C309.606 31.6412 310.01 31.801 310.461 31.801C310.668 31.801 310.865 31.7822 311.053 31.7446C311.26 31.6882 311.448 31.6224 311.617 31.5473L312.434 33.859C311.758 34.1034 310.968 34.2255 310.066 34.2255ZM326.686 34H324.205V32.0829H324.092C323.698 32.7595 323.087 33.3234 322.26 33.7745C321.452 34.2255 320.606 34.4511 319.723 34.4511C318.031 34.4511 316.725 33.9718 315.804 33.0133C314.902 32.0359 314.451 30.6545 314.451 28.869V20.1857H317.044V28.6998C317.101 30.9552 318.238 32.0829 320.456 32.0829C321.489 32.0829 322.354 31.6694 323.049 30.8425C323.745 29.9967 324.092 28.9912 324.092 27.8259V20.1857H326.686V34ZM335.908 32.0829C337.186 32.0829 338.229 31.6224 339.037 30.7015C339.883 29.7805 340.306 28.5777 340.306 27.0929C340.306 25.6457 339.883 24.4522 339.037 23.5124C338.21 22.5727 337.167 22.1028 335.908 22.1028C334.668 22.1028 333.624 22.5727 332.779 23.5124C331.933 24.4522 331.51 25.6457 331.51 27.0929C331.51 28.5589 331.933 29.7524 332.779 30.6733C333.624 31.613 334.668 32.0829 335.908 32.0829ZM335.485 34.4511C333.681 34.4511 332.13 33.7369 330.833 32.3085C329.555 30.8613 328.916 29.1227 328.916 27.0929C328.916 25.063 329.555 23.3245 330.833 21.8773C332.13 20.4489 333.681 19.7347 335.485 19.7347C336.5 19.7347 337.421 19.9508 338.248 20.3831C339.094 20.8154 339.742 21.3886 340.193 22.1028H340.306L340.193 20.1857V13.8143H342.787V34H340.306V32.0829H340.193C339.742 32.7971 339.094 33.3704 338.248 33.8027C337.421 34.2349 336.5 34.4511 335.485 34.4511ZM352.014 34.4511C349.984 34.4511 348.311 33.7557 346.996 32.3648C345.68 30.974 345.022 29.2167 345.022 27.0929C345.022 24.9878 345.661 23.2399 346.939 21.8491C348.217 20.4395 349.853 19.7347 351.845 19.7347C353.893 19.7347 355.519 20.4019 356.722 21.7363C357.944 23.052 358.555 24.9033 358.555 27.2902L358.526 27.5721H347.672C347.71 28.9254 348.161 30.0155 349.026 30.8425C349.89 31.6694 350.924 32.0829 352.127 32.0829C353.781 32.0829 355.078 31.2559 356.017 29.602L358.329 30.7297C357.709 31.895 356.844 32.8065 355.735 33.4643C354.645 34.1222 353.405 34.4511 352.014 34.4511ZM347.87 25.4295H355.792C355.717 24.471 355.322 23.6816 354.608 23.0614C353.912 22.4223 352.973 22.1028 351.788 22.1028C350.811 22.1028 349.965 22.4035 349.251 23.005C348.556 23.6064 348.095 24.4146 347.87 25.4295ZM360.926 20.1857H363.407V22.1028H363.52C363.915 21.4262 364.516 20.8624 365.324 20.4113C366.151 19.9602 367.007 19.7347 367.89 19.7347C369.582 19.7347 370.878 20.2233 371.781 21.2007C372.701 22.1592 373.162 23.5312 373.162 25.3168V34H370.568V25.4859C370.512 23.2305 369.375 22.1028 367.157 22.1028C366.123 22.1028 365.259 22.5257 364.563 23.3715C363.868 24.1985 363.52 25.1946 363.52 26.3599V34H360.926V20.1857ZM380.96 34.2255C379.832 34.2255 378.893 33.8778 378.141 33.1824C377.408 32.487 377.032 31.5191 377.013 30.2786V22.5539H374.589V20.1857H377.013V15.9569H379.607V20.1857H382.99V22.5539H379.607V29.4328C379.607 30.3538 379.785 30.9834 380.142 31.3217C380.5 31.6412 380.904 31.801 381.355 31.801C381.561 31.801 381.759 31.7822 381.947 31.7446C382.153 31.6882 382.341 31.6224 382.511 31.5473L383.328 33.859C382.652 34.1034 381.862 34.2255 380.96 34.2255ZM401.053 34.4511C398.065 34.4511 395.565 33.4456 393.554 31.4345C391.562 29.4234 390.565 26.9143 390.565 23.9071C390.565 20.9 391.562 18.4002 393.554 16.408C395.546 14.3781 398.046 13.3632 401.053 13.3632C404.098 13.3632 406.569 14.4627 408.468 16.6617L406.607 18.466C405.16 16.7181 403.308 15.8441 401.053 15.8441C398.816 15.8441 396.946 16.5959 395.443 18.0995C393.958 19.5843 393.216 21.5202 393.216 23.9071C393.216 26.2941 393.958 28.23 395.443 29.7148C396.946 31.2184 398.816 31.9702 401.053 31.9702C403.402 31.9702 405.442 30.9834 407.171 29.01L409.06 30.8425C408.101 31.9889 406.926 32.8817 405.536 33.5207C404.145 34.141 402.651 34.4511 401.053 34.4511ZM413.958 13.8143V34H411.364V13.8143H413.958ZM429.241 34H426.76V32.0829H426.648C426.253 32.7595 425.642 33.3234 424.815 33.7745C424.007 34.2255 423.161 34.4511 422.278 34.4511C420.586 34.4511 419.28 33.9718 418.359 33.0133C417.457 32.0359 417.006 30.6545 417.006 28.869V20.1857H419.599V28.6998C419.656 30.9552 420.793 32.0829 423.011 32.0829C424.044 32.0829 424.909 31.6694 425.604 30.8425C426.3 29.9967 426.648 28.9912 426.648 27.8259V20.1857H429.241V34ZM439.7 34.4511C438.685 34.4511 437.755 34.2349 436.909 33.8027C436.082 33.3704 435.443 32.7971 434.992 32.0829H434.879V34H432.399V13.8143H434.992V20.1857L434.879 22.1028H434.992C435.443 21.3886 436.082 20.8154 436.909 20.3831C437.755 19.9508 438.685 19.7347 439.7 19.7347C441.523 19.7347 443.065 20.4489 444.324 21.8773C445.621 23.3245 446.269 25.063 446.269 27.0929C446.269 29.1415 445.621 30.88 444.324 32.3085C443.065 33.7369 441.523 34.4511 439.7 34.4511ZM439.277 32.0829C440.518 32.0829 441.561 31.613 442.407 30.6733C443.253 29.7524 443.675 28.5589 443.675 27.0929C443.675 25.6457 443.253 24.4522 442.407 23.5124C441.561 22.5727 440.518 22.1028 439.277 22.1028C438.018 22.1028 436.966 22.5727 436.12 23.5124C435.293 24.4522 434.879 25.6457 434.879 27.0929C434.879 28.5589 435.293 29.7618 436.12 30.7015C436.966 31.6224 438.018 32.0829 439.277 32.0829ZM459.077 30.1658C459.077 31.3687 458.55 32.3836 457.498 33.2106C456.445 34.0376 455.12 34.4511 453.523 34.4511C452.132 34.4511 450.91 34.094 449.858 33.3798C448.805 32.6468 448.053 31.6882 447.602 30.5041L449.914 29.5174C450.252 30.3444 450.741 30.9928 451.38 31.4627C452.038 31.9138 452.752 32.1393 453.523 32.1393C454.35 32.1393 455.036 31.9608 455.581 31.6037C456.145 31.2465 456.427 30.8237 456.427 30.335C456.427 29.4516 455.75 28.8032 454.397 28.3897L452.029 27.7977C449.341 27.1211 447.997 25.8242 447.997 23.9071C447.997 22.6479 448.504 21.6424 449.519 20.8906C450.553 20.12 451.869 19.7347 453.466 19.7347C454.688 19.7347 455.788 20.026 456.765 20.6086C457.761 21.1913 458.456 21.9713 458.851 22.9486L456.539 23.9071C456.276 23.3245 455.844 22.8734 455.242 22.5539C454.66 22.2156 454.002 22.0464 453.269 22.0464C452.592 22.0464 451.982 22.2156 451.436 22.5539C450.91 22.8922 450.647 23.3057 450.647 23.7944C450.647 24.5838 451.39 25.1476 452.874 25.4859L454.961 26.0216C457.705 26.6982 459.077 28.0796 459.077 30.1658Z" fill="#6A6A6A"/>
<defs>
<linearGradient id="paint0_linear_893_1820" x1="267.2" y1="99.0221" x2="232.004" y2="109.04" gradientUnits="userSpaceOnUse">
<stop stop-color="#4285F4"/>
<stop offset="1" stop-color="#4285F4" stop-opacity="0.7"/>
</linearGradient>
<linearGradient id="paint1_linear_893_1820" x1="224.417" y1="127.188" x2="234.489" y2="162.431" gradientUnits="userSpaceOnUse">
<stop stop-color="#0F9D58"/>
<stop offset="1" stop-color="#0F9D58" stop-opacity="0.7"/>
</linearGradient>
<linearGradient id="paint2_linear_893_1820" x1="252.534" y1="170.051" x2="287.729" y2="160.033" gradientUnits="userSpaceOnUse">
<stop stop-color="#F4B400"/>
<stop offset="1" stop-color="#F4B400" stop-opacity="0.7"/>
</linearGradient>
<linearGradient id="paint3_linear_893_1820" x1="295.326" y1="141.894" x2="285.246" y2="106.682" gradientUnits="userSpaceOnUse">
<stop stop-color="#DB4437"/>
<stop offset="1" stop-color="#DB4437" stop-opacity="0.7"/>
</linearGradient>
</defs>
</svg>
